<mxfile host="app.diagrams.net" agent="Mozilla/5.0 (Windows NT 10.0; Win64; x64) AppleWebKit/537.36 (KHTML, like Gecko) Chrome/129.0.0.0 Safari/537.36" version="24.7.17">
  <diagram name="Страница — 1" id="wZxPJhys82itldmrv_u6">
    <mxGraphModel dx="3694" dy="2329" grid="1" gridSize="10" guides="1" tooltips="1" connect="1" arrows="1" fold="1" page="1" pageScale="1" pageWidth="827" pageHeight="1169" math="0" shadow="0">
      <root>
        <mxCell id="0" />
        <mxCell id="1" parent="0" />
        <mxCell id="cfdrwB-0t9WhW7MWjaBJ-24" value="&lt;font style=&quot;font-size: 20px;&quot;&gt;Покупатель&lt;/font&gt;" style="swimlane;childLayout=stackLayout;horizontal=1;startSize=50;horizontalStack=0;rounded=1;fontSize=14;fontStyle=0;strokeWidth=2;resizeParent=0;resizeLast=1;shadow=0;dashed=0;align=center;arcSize=4;whiteSpace=wrap;html=1;fillColor=#CDA2BE;strokeColor=#9673a6;gradientColor=none;" parent="1" vertex="1">
          <mxGeometry x="20" y="130" width="190" height="230" as="geometry" />
        </mxCell>
        <mxCell id="cfdrwB-0t9WhW7MWjaBJ-25" value="&lt;font style=&quot;font-size: 20px;&quot;&gt;&lt;span style=&quot;background-color: rgb(153, 255, 51);&quot;&gt;Код покупателя&lt;/span&gt;&lt;br&gt;&lt;/font&gt;&lt;div style=&quot;font-size: 20px;&quot;&gt;Дата приобретения&lt;/div&gt;&lt;div style=&quot;font-size: 20px;&quot;&gt;скидочной карты&lt;/div&gt;" style="align=left;strokeColor=none;fillColor=none;spacingLeft=4;fontSize=12;verticalAlign=top;resizable=0;rotatable=0;part=1;html=1;" parent="cfdrwB-0t9WhW7MWjaBJ-24" vertex="1">
          <mxGeometry y="50" width="190" height="180" as="geometry" />
        </mxCell>
        <mxCell id="cfdrwB-0t9WhW7MWjaBJ-26" value="&lt;font style=&quot;font-size: 20px;&quot;&gt;Купленная книга&lt;/font&gt;" style="swimlane;childLayout=stackLayout;horizontal=1;startSize=50;horizontalStack=0;rounded=1;fontSize=14;fontStyle=0;strokeWidth=2;resizeParent=0;resizeLast=1;shadow=0;dashed=0;align=center;arcSize=4;whiteSpace=wrap;html=1;fillColor=#C5B4BE;strokeColor=#6c8ebf;" parent="1" vertex="1">
          <mxGeometry x="360" y="160.31" width="390" height="229.69" as="geometry" />
        </mxCell>
        <mxCell id="cfdrwB-0t9WhW7MWjaBJ-27" value="&lt;font style=&quot;font-size: 20px;&quot;&gt;&lt;span style=&quot;background-color: rgb(246, 249, 72);&quot;&gt;Номер транзакции&lt;/span&gt;&lt;br&gt;&lt;span style=&quot;background-color: rgb(153, 255, 51);&quot;&gt;Код покупателя&lt;/span&gt;&lt;br&gt;&lt;/font&gt;&lt;div style=&quot;font-size: 20px;&quot;&gt;&lt;font style=&quot;font-size: 20px; background-color: rgb(102, 255, 255);&quot;&gt;Уникальный номер книжного издания&lt;/font&gt;&lt;/div&gt;&lt;div style=&quot;font-size: 20px;&quot;&gt;&lt;font style=&quot;font-size: 20px;&quot;&gt;Использование скидочной карты(да, нет)&lt;/font&gt;&lt;/div&gt;&lt;div style=&quot;font-size: 20px;&quot;&gt;&lt;font style=&quot;font-size: 20px;&quot;&gt;Дата совершения покупки&lt;/font&gt;&lt;/div&gt;&lt;div style=&quot;font-size: 20px;&quot;&gt;&lt;font style=&quot;font-size: 20px;&quot;&gt;Версия купленной книги&lt;/font&gt;&lt;/div&gt;&lt;div style=&quot;font-size: 20px;&quot;&gt;&lt;font style=&quot;font-size: 20px;&quot;&gt;Оставленная оценка&lt;/font&gt;&lt;/div&gt;" style="align=left;strokeColor=none;fillColor=none;spacingLeft=4;fontSize=12;verticalAlign=top;resizable=0;rotatable=0;part=1;html=1;" parent="cfdrwB-0t9WhW7MWjaBJ-26" vertex="1">
          <mxGeometry y="50" width="390" height="179.69" as="geometry" />
        </mxCell>
        <mxCell id="cfdrwB-0t9WhW7MWjaBJ-32" value="&lt;font style=&quot;font-size: 20px;&quot;&gt;Книга&lt;/font&gt;" style="swimlane;childLayout=stackLayout;horizontal=1;startSize=50;horizontalStack=0;rounded=1;fontSize=14;fontStyle=0;strokeWidth=2;resizeParent=0;resizeLast=1;shadow=0;dashed=0;align=center;arcSize=4;whiteSpace=wrap;html=1;fillColor=#CDA2BE;strokeColor=#9673a6;" parent="1" vertex="1">
          <mxGeometry x="900" y="120" width="360" height="210" as="geometry" />
        </mxCell>
        <mxCell id="cfdrwB-0t9WhW7MWjaBJ-33" value="&lt;span style=&quot;font-size: 20px; background-color: rgb(102, 255, 255);&quot;&gt;Уникальный номер книжного издания&lt;/span&gt;&lt;div&gt;&lt;span style=&quot;font-size: 20px;&quot;&gt;Название книги&lt;/span&gt;&lt;/div&gt;&lt;div&gt;&lt;span style=&quot;font-size: 20px;&quot;&gt;Количество страниц&lt;/span&gt;&lt;span style=&quot;font-size: 20px;&quot;&gt;&lt;br&gt;&lt;/span&gt;&lt;/div&gt;&lt;div&gt;&lt;span style=&quot;font-size: 20px;&quot;&gt;Год публикации&lt;/span&gt;&lt;/div&gt;&lt;div&gt;&lt;span style=&quot;font-size: 20px;&quot;&gt;Жанр&lt;/span&gt;&lt;/div&gt;&lt;div style=&quot;font-size: 20px;&quot;&gt;&lt;span style=&quot;background-color: rgb(196, 138, 86);&quot;&gt;Код отдела&lt;/span&gt;&lt;/div&gt;" style="align=left;strokeColor=none;fillColor=none;spacingLeft=4;fontSize=12;verticalAlign=top;resizable=0;rotatable=0;part=1;html=1;" parent="cfdrwB-0t9WhW7MWjaBJ-32" vertex="1">
          <mxGeometry y="50" width="360" height="160" as="geometry" />
        </mxCell>
        <mxCell id="cfdrwB-0t9WhW7MWjaBJ-38" value="" style="shape=image;verticalLabelPosition=bottom;labelBackgroundColor=default;verticalAlign=top;aspect=fixed;imageAspect=0;image=data:image/png,iVBORw0KGgoAAAANSUhEUgAAAOQAAADdCAYAAACrIt7oAAAAAXNSR0IArs4c6QAAIABJREFUeF7tnXd8VVW6939r79OSk4QECE16Vbp06SnAHceZudeLioqCCuiMdRy9lrkzwx1fARVlVEAFpAjogGMDpEPoNUgzFAsgCFIM6Zy693o/e+fEiZEk++x+Div/QfZ61rN+a33zrL4I2A9TgClgGwWIbTxhjjAFmAJgQLJGwBSwkQIMSBtVBnOFKcCAZG2AKWAjBRiQNqoM5gpTgAHJ2gBTwEYKMCBtVBnMFaYAA5K1AaaAjRRgQNqoMpgrTAEGJGsDlihAKQi2DqoPj9ggTPmGhCYkEz6xKbgkL4jLJZIEBxAqJQhegnilhKdlF0HDl0D8+ei5KZ8QUEscNzhTBqTBAjPz5QrQnKEOeD03inzdG6mz6e/gSMwkvkMe4j8IEvy2/CPxKmpxkfSuNoCrDcTkIaBc0pegdA0RS/fxZce3k14LT8eLzgzIeKlJG5aDLr2NR4vL/UW+3q+pp+kzXNFnIP4IfBHQZLc5d+3ei4F/f1MBrsMNoe5DEN3ttvFCyUKu5OAq0uefZ2o3Zt8vGJD2rZuY9Ywe7OpFsMUoJLSYhEvTG8iRrwJAJfBFU3IJ1Ih9If1JiK5mH5DgtzMcnervJGTi1WJuNNZN/5YBabrk8ZuhBKLoqzsOzrRpXOEnRIZQbwBrki8CJ00ZDqHuyD0oy3va0SVtWyyByYCMXz5MK5nUNRWanRlJnI0Wc0Wf8qaDWLWklcGsf+dG0ff14+6Ok740TRANGTEgNYjHkgJ0R5frBU/XjXzB4saWg1gNmEKDx0HdrV9w/HhqMuk/zWfnemNA2rl2bO4b3XHDvQidWAApIpnZNY1Wl4h/oeZvfUtL997q7vLWoWhNmPU9A9IspeMoH7qmoRf1uq5H0bp+cCiYIbVL2cMBCA2fBOGSHuE7/n2GXdyq7AcD0o61YmOf6K62TSlp8jUp3eKJKRgrNA0HQJMGIJw+ZqGz1YQxdttgwIC0ceO3m2t0S6OOlPfmyQv5du6i1iac1IV1uhFqNmebU9wwjLSa768tiVm/Z0CapXSM50O3pnaD6Dtg+/GiUp0jGw1Crd/f5xTXDrQLlAxIpRV4DX9Ht3i7Qig7KEsQy5GxmlnYUJsFuc5zKwaT/h9aPgPLgLyGQVNSdLotsQkE4WzcRMarFVoMINR6ca7zbO5gq5dFGJBKWuU1/I24szsl/gPxFRmvFikBhFq9l+v8cdsQ0mvWFauqnAFplfIxkK+wb6SfK/6XO666qdXp/tOYctFe59l9Q6yKlAzIGADDCheFbde/yAWOPW/o0kbFCQ5pC7iAUggoAIVQPlaFBwQ8HEiP/LtcBqPHsGIA4ZZzdjuwbagVEz0MSCtau83zpDmpLSEWnjQExgoIwzKAn4BiFkqwk9weAbEabejnaA+KMeBxJzxoZSicMpRzdznC+4eSdm9WOvdlfMUxII3XOOZyEHf2DhD/Xpeu0UgCUZBP+R+BgFFkBFRv9qYrkQKKV+HCvXBAXz+l2or80Qi3nLXDgR1ZZkZKBmTM4WKsw8LW9pO54FfP6hody2E8igAyya9xXs8S0GV4HYl4CE63S0+7P0HZYuY2B9lj2uYBBqSutRjbxigFh00QdIuM5SAGIWI4GY7NRqlDc5CEYixDCjJ0871ypGzx7nYH2ZptRqRkQBrVSmLQrriz71ri3z1Ml0ZdDuMF+NCa/AamLCPQT/AqUvGkLv5Xrr9wAOHWc3Y6sC3TaCgZkDEIjhEu06XgkY6wLo1ZPiDM7SNZYi8jfK3JJv0EdyIV7+tSjsoZSZsHWr2320k3Gjr7yoA0u8XYND9he7d5XPDgWM0NWYKRJu4jmVdMh7FCWvopslEH6zSXpQqQ0j/DLd7e7SC7DIOSAWlTQMx2i252a7/nVAyAkuSL3NCShmb7XzU/uhxZSMJ6Q6BsOXe3A1sMgZIBaXXLsUH+dKN7BGhgteaZ1XDAj3wk1bamaFaRDYmUcpgMINRmYa6Tbhik95iSAWlW67BxPsKOQee4wNbGmqJJOACE0UXL+qIREtEVyIZX5+5rZAY23PLdHY4fVmfreUqEAWlEK4ghm7pM5sjjxtTPSWbhLXYsOl2O4UjCGk1/cK5WMGlHT4s52x3n84bptfeVAWnHFmSiT3Q9eoNgj6buavnOlmSSgVITXY8qK0O6rxU7elq8vd0h5GXpsc2OARlVtcbfx3RP/y0o2zFIdfSQo2PybJJZMsHu6hgJZbD1vLXuFveN0KoBA1KrgjGeXtzWSiChk5xqIKWxI4c0koHCWJCCLkMmkrAOvLvy6yLaXI/c0eNvPP39hDbj79ZijAGpRb04SEtzQFXDKC1zONt/xw38qmUsSUGXYyi82KA3lDRpOMTEXvc4Ok1apFYPBqRa5eIgHV2ORCSiTPX4UYqOcP+WZAWWx5ocdDlughfbwbv1Y0C697XJ38M8vdCWdJzxnRpN9HNGTe4sjaUK0PXoCII8TUBSNCLZuGBpQVRmTpejD5KwW3UP4Wr5SmuUrebsd7Ue10ONWwxINarFSRq6Fg/Cibc1NciygIfcDFMP8eopP12GfkjGTk0aVHZI6sa72oDWufURvvMrUd+OzoDUs3ZjzBZd75kN3j9OVWMUAxAThpzj+22+LsaK/Qt36TL0QDL2qdKhmigpNP4/H3/lbGPSa1ZRNPowIKNRK86+FTe3+oKIJ29U1RClSODJXMHdtPE38SAL/Rx9kYCduo0ppa5rs6nzXO2fuj8afRiQ0agVZ9+KW1qcIsJ3LdQCCeeNU8jA/c/Fiyx0BfojEVt1mX0VAxDqPw6eoy1IpzdOK9WIAalUqTj8Ttzc5BwRz6nbwyqtvfFNHyWDv58eT9LoCqUUJZv8dbHrhr+PVqoRA1KpUnH4Hd1U/xToj+oipLTk4Wz2JBl8Zlq8SSOvUyYhR1XPocoED677G0Au1yHt3ixWohMDUolKcfoN3ZR+FPTS9aoanjSpw3eezA/+8vl4lId+hjFIwXxV2lSBUqz/8ON8lxlvKNGJAalEpTj9hq4lK+Gkv1LV6CQgnb3f5wfu1bRVzM7S0k/xFurgIVX6VBRMntx59YyzXUlLQiZKV0LX+MOArE2hOP49XYEn4MU0VQ1OAtJ7y1d8nxUd4lgi0M+RhyR3R9VllGajk4aDOBt3Jt0X5NVmhwFZm0Jx/Hu6Ap3hxWG1QFJPd5B+B3hCUOtf/liVka5CS3hwUpVGlaJkOP3hl5xdZzxbmw4MyNoUiuPf0zXwwoVS1Y1NmthJaFqP9P/+chzLBLocK5Di/rXqMkp7XJtO/dbR4am2tdlgQNamUJz/nm4A1bSXlW84gQy9MDueZaLrUAc88sG7eVXlrFiTDBU3ID3mXarJBgNSlcLxk0gTkNL4yN33BNd/d5v4UeTqJaHLsQcp7t5ayhlOHpbt7LFiAwNSi4pxnpZuwHdwuJurLqa0QSChbTPS75vvVduIgYT0YwxEGrZq6d6LdW55nu+1YjIDMgYq3CoX6Qr8Fl58prqhSVEyYeinXL9N/2VVGczKl65DKVxur6r8pOcI0h9b6ez6Ro1jUdZlVaVu/CSiO5AAH66oHkdWSMG3vJ4MPH48fpT5ZUnoahxBgvsGVWWUbqhLf+qYs/PUGtMzIFWpG1+J6Dr44HJ7VJdK6rYm/+oAeq7qGddLIJ9iMurgWVW9CUmjJn8Oo/2LLkLkdzKv+sOAVN0K4ychXYF34cX9qhpahQzhAMSUW57he694OX6U+XlJ6MfohjQcUKWTtJEi9W5wLk890undapeJGJDx2nqiKJfmu3WkvCIn5QW+9Qhnv3Vro8g+Zj6lK5EOD86Bdzuidrpixw7vuY70WHaORcioFby2EtC1uAi3O11TqaUokPyfIkd8HUjPNd9osmXDxPJGCgd+hENF914+0N0dhKS3J/3Wfc2AtGEF28kl3a7bl3alpN59kQ/80IP033jWTmXUwxe6DmVwuROjthXpQRA07EIG7PiSARm1gtdeAtWNrapUEpR1x1zkAxd7kn6r4mp9UrVGFUDy9buRfrsPMSCvPb6iLjFdjoeRhOmqJi2uBmXaPRd4saAP6bVC8RUWUTttYgL6GZKRiEtwud1RZ1vRZRW815OB26tdHmKTOlErG98J6DpcgcudoEsppUiZNuYCj0t9SY+Vqi4O1sUPnYzQNWgFF06o+oMlAZk4AIRHC9Jre7V/oBiQOlVWrJrJmQhHcuOepGfaPlF6aDW0HFkOPV8eLu++XuKFs71Ir/UxHSnpSvwKCVipFkixzihwKGpAeqyqdoM5AzJWSdLo9/63GrUEUv9GnOm3gnCcy52Sm8AVvBROPZ/TxvHNCeJ2N9GYxb+Ty5Hy3ou8eLl3LHdf6TLMRjJU32Mr1H80zHd+k20M0K1hxYmhvVP5kaGg8CHhAS5yoEgUACoAdZv1eKdZnWPvJiZe2QWnji9EyZHy/nxeuNgjVqGka3AWHpV/qKQlobrjD/PdZnetqRmxCBknkCktxu4p6CaIOMBXM0wUAj6ktrptZ7vm+T5HcGOmqu5Zdc7IUI4t4AMXusba7CvNhRMFKFa9xVAu+x3zHDcuqfHiZAak0pYcJ9/lTuP8giC6Qaqft5GgrNf58UvtGh9NJ6VroT+UD1zmfRe6kv4rYmadkq7ESCTgQ9VayFsLb36S772yxmszGZBxApqSYixdCr7pNwhXFx0r2xCDPqR3GYvWaVtBwjovJcrR4r7LvHDpxljpvtKVOA6vu70Snav9xt05k/Tbl8O6rJpUjJ/Eue/AGbqMIOdStqohhn1o2HYgWjXcCwg66yBBWW9cIR883ZX0WXtGZ+u6mqNrcD1cOKo6OlZsLC87lUIGbi9hQOpaPbFrLJoIWVFKGcoW7dCq6WmDoJxQxPvPdLbzmJKuwgEkuruprnnpTp20B9c5ur8zvDYbrMtam0Ix/vutk5HmFOFyuCGESxEkSSh/Hq2GMWTVIosCRcOGQKs21CAoxxfz4qkbSI911Z6CsKoa6CoMhEfD1R2S49L4MfWOR/meS2p9B4UBaVVNG5zvnimuTiSp5c5Q8VfJMn8E8Db5bRHvSalTemZRVEBK6Q2HUtr7euWHLmTA2osGS6PYPF0JN3ich8edqjjRL/6aRU551LJlriIZA1K10vZNuH0SRhLgQ95VJRJSX7nTUUTHyqU0HMq0ey7yvgu2gZKuxna40V/12DESHYW6o7c5blw0SEmLYUAqUSmGvtk1ESmCE4UOT4IhdWs4lPXGl/Fl37W2OlLS1ZgCN57RBKPctQhA8GaNdvTZsFhJMzKk0pRkzL4xRoGdLzdcT3Ahi/DKZlLVeGE8lOPK+OC5tqTPyvNq/NOahq7Eo3DjDc0Xf0kw1rm7kD9/uRG5eVVAiV8MSCUqxdA3O6eglHPAq7ZbqrSoRkMppo70c+HijqTv2pNKfdLjO7oSL8KN5zXDGOmuigk9HuX7f1HrZA4bQ+pReza0seNFFPBupBoNpNwbM3L2VTqu5B1GiejrTfpt22e01JSCYD1ZBQcdobmbGumqypdacYeTSLdDZUr9ZxFSqVIx8t2Wv2GDOxmZZgBpBpRyHt7/XMC5TzwcTcOOprroBrQBh/I7gLjozx5fNS9p40Ny9v2OPuvnReMLAzIatWLg2+1/RgvixSkl2+P0Ko6hkTLS9aPeQT4iBm7HTXtW6nX3K92KNAQTPgF8Q3TpolYIKo8d7/qRP1/QVOnYkXVZ9WqNNrSz+Xn8y52K/zZyYqdqsQ2HUrpoWATEpKxCLlzwJErPLkXRBb90qDqaKpBPbeSjKfU0/oCEf+gLTseoWNkRR6v+ZMCxndH4Jn3LImS0isXI91v+ih2uJNwUV1BGxmby87AON8SErBNc8NybEM5+Dq/zLIIcRaFHRIM65Q/IluTzwCnpDlUHwp7uNKHlX4hwMlPaOWMYiNKunKQBb/J9tz+mpqkwINWoFiNpNv8Ve91J6BV3UFbqGv70drMU6ZxuUP4GgPMCYhmIcBQIlUfW8vGhQdGwclc1ZdQl3nOoKel0JKimmTAg1agWQ2m2voCDTje6xi2Uv+g7V1ru02uCRkl9y29ldhUJhxak3yHV59UYkErEjvFvtr2Aww43Ol8zUFpRX9IY193pP0j/vDVasmdAalEvhtJuewEHHddSpDSzbqQxqeO6sWTI2QVas2VAalUwRtLTieD2N+kphIr3qd5crqaohs++qnFKzzQSjM7rfk8Gn31bD7MMSD1UjAEbZ5am1G3aMJC//yCHUMhch2Uomzcz5pCzuUX5eW4SjHyLP5Gh372mlxsMSL2UtLGdi0uRlJ6OkopdKAxKjZUljRflWdt6Y8mQfM3d1MreMCA11o3dk8tvP6a4y6RjQJW3hVkCZdiH+m3/A22anAfxH9Bvm5qZlfCTjklZZEj+Rr2zZkDqraiN7MkwJrtKQYPkans0rYIy7YbH0K5ZPrjLi+UF/pj5CUsb3m8qJaGz3cig0yeM8JsBaYSqNrBJc5AEiiIQcDVtmLYCSune1/pdniy4Lu2b9xN9y8bDAZdum7qN0L5i256zzXRO+PaPJANhI7KRbDIgjVLWQrvyS79OGUZeSUO3Csq6bUcfaJ6U8xtX+Oxk3ovRtoyWUlRM7OEnoZN9yeCCat911Ku6GZB6KWkTO3I31YtipTBWuG0VlHWaZy/s+M36sf4eaOpJc55EMMTZAkxpBlV6BpI2fg4DT71ECKgZVcyANENlk/KgO5CAoKMENKwoMlZ1ywoopRvSvXWat+n6h/IxmX8VOrhdyAWQZPje06oCRLqmEogimrzCnTv5XLSnSbRWNQNSq4I2SV8Oo7MUNFTjmLFGd8UA9h9OMHWdUgKSd3nv6fOnskWVfZOuYKQuVw4hwZtkMKUfI/amVixhiABNGhIkZfv/CxnFq8yKiFXrgwFpE6C0uCHDGMAVvRqtmZFSAhKOei/d9HT+s9VpQNfhBvAp70Ms7gYiT1OpB7QSgJIR6r2J0tDpF/lBZ/+ipQ70SsuA1EtJi+zIY8YklN/ZomMEMQtKCUjiuu6Ffn86+1clEsqXFwOZ1J32BHEWDUVQlF64lNqxhOrV2zMFBQcKpxPU1T9M/KdnQTg3nWQGjivJ08xvGJBmqq1zXvJsqgulesNY4aYZUEpLIOBT+vZ/pniPXvJIupARkT9Sehk1yQ4D0iSh9c5GXmcEyl9S0jEyVvXTSCil6OipP/h7QSxr3evBfSbvsNW7RvSxx4DUR0dTrRgdGfWGUnpBS346veIJA+qDEAScda4v40Xavsejx233yI6pFVopMwakVcqrzNeoMWNt7siRUpqAifZdEOqDI7nz3GDB2U5iuKC7FM+dSQ2Dguh81+n9/qleD4JFRgZkbc3Pnr+3CkZpY3phofuJb880eiLs/65lNDcPSNExpc2YMxdLvmufcd8mvz2VtY9XLELapy5q9ITmwAOg/PkqA8eMv3AiHECYS5/izLj0nHTIeVeC5yAhfuXXgVAfnCk9EUxsUKff6FXFMSK3ZW4yIC2TXnnG8jqjH2Xla3Amno6oBGOFt9IrzM1Peg6C+DspipTSE3gkAaGwN2XgMz/W+Jy3ckXi90sGpM3rNgJjSbR7UzUXS7pfFKkT+azC/6tqS34a/aTnAKckUlIf3HWH+AtOk+SMiZsMOyWhubw2McCAtElFXM2NyKmNQhA4zI6MIN7nSWbZ5OrkyZkIh9uTeJDjrnSsKVJK64yeet1e7fHgwadsLLVtXGNA2qYqfu5I5NSGdITKfBi5pP8lGaUv1iaNBGVCQtKXFKUdOMcv36OUJnQ8dfsHUXqu4Y1/PFVYmz32e3Ye0pZtIBIZC0DgND0ywvscySqbolQYqfva7GTqZioUDiA8QAhAKUAFwJPW/QIfEnt1e0z9xcFK/YiX71iEtFlNRiKj1E01H0aS8D8k0/eKGkm2v4IGtAy3gne0J5zjChX9C891wDe3R/kYjpq84ykNA9JGtWkpjEh4mmT5ptpIjmvSFQakTard2gkc95MkMzDNJlJc024wIG1Q/dHegaOby9I1FdT5BMkOva6bTWZIkwIMSE3yaU8cWWcsre12OO05VbEgwQjnoyQrNF1328ygagUYkKql054wsh1OOulv+g4cUO4Rki3O0F4KZkFPBWwJ5M5XkoYiXJoTLMG6wS9ihFX3m+gpdFVb8sl3aUOc9GPydjhQ7iGSLb5jZPmYbXUK2A7I3dMSboLg2yEVh4qAvwDrh0zC8HiCki6FC+kofyDCdBidj5DsEIuM6ngxPJWtgNw7LXmAECrZRqRLjCLn7qjgQ6AAawa7cTOZ+NPj1IYLY1QGlsIocn8gw8S3jCobs6tdAdsAuWtq8kAaKtnKOSudLI+UT4LSX4CcIW5kxzKUkW6qdITK/DEjm8DRTosJFmwB5N5p9bLDwfx1P7vmoUrhZSgLkTPEFZtQ0vWoBw4XLZlNpdyDJFucZUJ7YlloVMByIHe9UXc4/JfXVO6mVlemSKRcP8SNEbEUKS2GkU3gaITEzOSWArn39fSbhcClz5XAWCFKrI0p6RakI4wfrDjPyGZTzURJn7wsA3L3PxqMEAMXV9fUTa0pUvouY/XQybjZzrOvDEZ9Gum1ZMUSIGUYfRdXX20CR6n4kUi5YfAkDLMjlHQNGsCJs5acZwT3B5LFZlOVtiU7fWc6kBKMNHhxdTTd1NoiZcYU/MpOokbGjOctgvH3JEt82056MF+UK2AqkLteTehHg76dWiJj1aJFJnrWDZ2M4cqLbdyXFkdGBqNxVWuKZVOB3PFawnUuV/r34SunoejGMoUSRJZE1g2dZC2UDEaFFcY+q1YBU4GUvNj7VocBRPBtMwLKYAE2DZ6MDCvqOzKBc86SbipbZ7Siyg3J03Qgy6Hs2IcIpbuNgNJfgI1DJyPLELWqMUpzUB8U0phR1cvFqn2VzzOyjeKq9bNhQkuAlHTYM6Ndd44G9hsBZaAQG4ZMQrYZetOVSIfHsnVGtgPHjEo2MQ/LgCyPlO37EMFvSKQMFGHDkBeNhTLSTZUio/pnxNVUNouMalSLiTSWAikplPtOx74Ile4S/Kejf1mpBonldcpibB7y/zDUiJqgW5GGEH60CEYWGY2oVBvYtBzIylAa0n01AMrIOuMlK97aADCeZGGODdoOc8EABWwBpFSufTM7DhKFks3h0jOyT9Jlu9KPdPEuOPz8wc8ohNA7UspLGy5ckF0w/XAxRpFsLImi+OzTGFNANyBzp7cfd+XCV5OEIB7LeAn/VKND7rQWjf3F391MKXLcwBW/E8QBT0dP/a5PUQSHBfIP8Lzrl+cla8vrp1MiGm8eoDloBOAHi2AcTbKxuLayst/HtgK6ALlvZtvRwaJvFko7cKSnqn2XcWvWVHyitzR7p7cf5XDXX+C7tMPFu3/5lkRN+UX2vm4c7MYwNUe36Fo0kfemWhIZ2bUberclu9rTDGTuzOvHhIqOza+8HU7w+6ivAL/Lmorlehf84CtdvUJqnRn+S1vHqIKyEFsudEdmNFfcWwzjwyQ7NFNvHZk9eyqgCci9Mzo8EC4+Pudqe1PDfp8YKMJtmS/jYyOKvn/2wL/5Lm2bqAbKYBE2ne+GbCVQ0jVoBhdOWxIZifMBkhmaa4R+zKY9FVANZO7MTmNCJXnzazrPGPb5woES3J35EpYaUfz9czMX+85vvEsVlAVYP3gyhtXYzd2AFuBwyhIY4ZxAskKzjdCN2bSvAqqA3Duj7QPh0m/mKDlcLEEZLME9aid6apJu/7TuqUhJyQ8WbOEqbqlTKrU0pgzWAKWlkRHO8SQrxJY2lFZmHH0XNZD7ZnYcHSw6Ik/gKIVAgjJUjAlDX8Y8vbXbO6PTyFBR3ofRRknJDxnKYmweXGXzAF2JpkjAGUsiI3WOI9mhd/XWidmLDQWiAjJ35g3jQkVHZ0cDY4UMYZ8vFCjBaL27r1tnNk9LEPl8wX+SKP0D8bOqoT4E8rF78GT0k/6/5FN0TKqDPFPXGKWM5bc2+PtIljA/NpoO89IIBRQDmTuz/bhQyVezlXRTq3PUd8l3jAf6D5qCAj0Ls3/eiM3+i2sGX+1ZbUX5UB8EHw7VbeT4Y4e24Q3WREZ+LMkWFijyl30UtwooAnLfjOvHB4uPzVITGSsr5y/0nR3yAprqrWbumx1vC5UeWcq5olubrPBDFCiSUxPQqV2BubtvKiKjyI8hw4T39NaF2Ys9BWoFMvfN1neFSk8s1gqjJI0UIYdOwQ16y7RjSkJ/iL7tasaRP8HY8Qog6O1ZLfakbiqD0WTR7Z1drUDue6f/i4H8Hc+raexVi156wbc/62X00FuSHS95syCUrY/WR8thJPwYkskio97tIZbt1QqkVLi8JXcuLPr2g9HRNviqwvh+9H07dDLa6i3Yzlfq3I5w0ZJouqyWw8gio97NIC7sKQJSKunhj8bMLTm+4D4tUIZKfYUoQ/OBL6NET/V2v95htug/Pk7ppI7lMFL+HpItLNJTA2YrPhRQDKQcKT+6/72i43PvUQtl5Ha4zKGTkKOXfHkzOib5eVdBuPSAQ8myh/Uwgp3a0Kvy49BOVEBGIuWikuML7lYFJfWh7BxWZ76m38XGe/7RqHf4yvk9SvxhMMZhC46zIkUNpBwpP3lgcdHRd+9SczYxfMXnD5SiV+ZLyNOq5cFXGnqD7pQDgv/rtrXd82o9jKybqrW+r4X0qoCUhDny6YQPCo/MGqUGytKzvn11SnFTr1kIaRF516v1RouB/IW1RUfLYQR/L8kSFmopK0t7bSigGsifQRnlYWFQH0q/x7Ksf+B3amXe+XLCAAi+bbXNrFoOI5tNVVvF12Q6TUCWQzn+g8Ijs0fVFqV+oS71wXceHw6ZijsIELlBR1kd7HzJezfEskW1bVawHEbKtsMpq1H2VYUCmoEsh/L3HxQeeUsdlD/iBOXw3xmTcKC2atnzsrdRmLrnQLj869r+ADAYa1PLtP3GAAAF6klEQVST/d6OCugCpNYxpRiWT1x8QYHJSMSmSx1RUHGaP3cq6gcD/HDiTLtHDP6YxbvgtP8EDm4j2fiXHSuc+WRvBXQDUirml58+8EHxkXejj5QRjaR1Sir8+wrIn8I4AWrrnlZ8a3lkFDGSDMNH9q525p1dFdAVSDlSfvbQksK8t2+vrUtphCCWw8j2phpRrdeUTd2BlKH8ZPySwqOzTYXSchjZ0sY1BY5RhTUESMnZvE/GLS46OkfV5oFoC2s5jIS/g2QKhlzkFa0W7PvYVsAwIGUoP75/UdGxuXer2TygVFbLYWRjRqVVxb5ToIChQFIKkvfRvYuKv3ov6qsaFfgOBqMSldg3saSAoUBKQkhQHlvxyJKCw9Nv03Oix3IY2QROLLXzmPHVcCBlKCeCO9pt/KLCo7Pv1KP7ajmMlK0zxkwLjzFHTQHy31BOWFB4dNZoLVBaDiPBSJLJ1hljrJ3HjLumAVkBZV6n0XOLv140Rg2U1sPIZlNjpmXHqKOmAlkxpjzy8f0Li47PjeqQs+UwiriDDDPmjZIYbTvMbQMUMB3ICiiPfjp+sTymVHB0y3IY2ZjRgKbHTF5NAUuArHAk76Oxi4qOz69xndJyGIHbSRY+ZM2HKWCGApYCKRUw76Ox84q/mj/2apvHLYeR8qNItrDEjIpgeTAFJAUsB1Jy4shHY98rPD7/Z7fZ2QDGO0m28E/WTJgCZipgCyClAh/9eOz8gmPz5WfKGYxmNgGWl50UsA2QcqRccvtbhd8ufSilfho6WfXWBsffSTJYZLRTI72WfLEVkJLw59bdt7WxY95Ai95nvItkCR9cSw2AldVeCtgKyLINjXskOi7vM10i6RUqyrMxo+nCswyrKmAbIOkaV2c4gofhcJtbSwxGc/VmudWogC2ApOvQBRwOWQIj4e8mmcL7rJ0wBeyggOVA0vXoCh4HLRkzsleo7NAGmQ+VFLAUSEthhPNekhVi1/szHGylgGVA0hx0h4j91nRTnWNIZug9W9UEc4YpYNVOHbre2RsktMcSGFlkZA3fxgqYHiFpjrMXxNBea2B03UWygmyd0cYN8lp3zVQg6QZnH3Ch3dZM4LjuJNlBtjf1Wm/xNi+/aUDSDY7+QHg7i4w2bxHMPUsVMAVIutEzBNS/yRIYOed9JCM031KVWeZMAYUKGA4k3ZT2GwgFyyyBEWzMqLAdsM9sooDhQIZ298nkudQNpHQtTBs7StvhONedJIONGW3SzpgbChUwHEjJD+HLZ/9IfF+8ZgqU8t5U1yiSHWQn/RU2AvaZfRQwBUipuMEjf/6Do2zvDEOhlGBkD9/Yp3UxT6JWwDQg5UiZ9/yj5EruG4ZAybqpUVc+S2A/BUwFUobyyP8+Tsr2/ENXKBmM9mtZzCNVCpgOZDmUf32clO3SB8pyGEeTjOBiVQqwREwBGylgCZDl3de/PEau7H5dU6SUx4yeMSTTzzaK26hRMVfUK2AZkPJET96fH3Fc2fumKijlyOi5j2T42aK/+vpnKW2mgKVASlqEjzw7jiv7YnZUULLIaLNmxNzRSwHLgZS7r4f/5yHiP/CWIijlyOi9j2SUscioVytgdmyjgC2AlCPl4ace4PyH5tQIpQQjnzyBDC2ZbRsFmSNMAR0VsA2QcqT88ukJxHfwnatCyWDUsdqZKbsqYCsg5Uj55VPjOd+hWT+DUu6m1nuEZOTPsKuQzC+mgB4K2A7I8u7r46M5/9GFMpQiAC79EZJxicGoR40zG7ZWwJZARiZ6HiNlW18jwQtPk8EnptlaReYcU0AnBWwLpFQ+mntLc9JrxWmdysrMMAVsr4CtgbS9esxBpoDOCjAgdRaUmWMKaFGAAalFPZaWKaCzAgxInQVl5pgCWhRgQGpRj6VlCuisAANSZ0GZOaaAFgUYkFrUY2mZAjorwIDUWVBmjimgRQEGpBb1WFqmgM4KMCB1FpSZYwpoUYABqUU9lpYpoLMCDEidBWXmmAJaFGBAalGPpWUK6KwAA1JnQZk5poAWBf4/m9O5sDjn0ogAAAAASUVORK5CYII=;rotation=-180;" parent="1" vertex="1">
          <mxGeometry x="329.04" y="209.99" width="30.96" height="30.01" as="geometry" />
        </mxCell>
        <mxCell id="cfdrwB-0t9WhW7MWjaBJ-40" value="&lt;font style=&quot;font-size: 20px;&quot;&gt;Учётная запись&lt;/font&gt;" style="swimlane;childLayout=stackLayout;horizontal=1;startSize=50;horizontalStack=0;rounded=1;fontSize=14;fontStyle=0;strokeWidth=2;resizeParent=0;resizeLast=1;shadow=0;dashed=0;align=center;arcSize=4;whiteSpace=wrap;html=1;fillColor=#EFE6EB;" parent="1" vertex="1">
          <mxGeometry x="-440" y="30" width="380" height="180" as="geometry" />
        </mxCell>
        <mxCell id="cfdrwB-0t9WhW7MWjaBJ-41" value="&lt;font style=&quot;font-size: 20px; background-color: rgb(153, 255, 51);&quot;&gt;Код покупателя&lt;/font&gt;&lt;div style=&quot;font-size: 20px;&quot;&gt;&lt;font style=&quot;font-size: 20px;&quot;&gt;Логин&lt;/font&gt;&lt;/div&gt;&lt;div style=&quot;font-size: 20px;&quot;&gt;&lt;font style=&quot;font-size: 20px;&quot;&gt;Почта&lt;/font&gt;&lt;/div&gt;&lt;div style=&quot;font-size: 20px;&quot;&gt;&lt;font style=&quot;font-size: 20px;&quot;&gt;Пароль&lt;/font&gt;&lt;/div&gt;&lt;div style=&quot;font-size: 20px;&quot;&gt;Роль пользователя (автор, покупатель)&lt;/div&gt;" style="align=left;strokeColor=none;fillColor=none;spacingLeft=4;fontSize=12;verticalAlign=top;resizable=0;rotatable=0;part=1;html=1;" parent="cfdrwB-0t9WhW7MWjaBJ-40" vertex="1">
          <mxGeometry y="50" width="380" height="130" as="geometry" />
        </mxCell>
        <mxCell id="cfdrwB-0t9WhW7MWjaBJ-43" value="" style="shape=image;verticalLabelPosition=bottom;labelBackgroundColor=default;verticalAlign=top;aspect=fixed;imageAspect=0;image=data:image/png,iVBORw0KGgoAAAANSUhEUgAAAOQAAADdCAYAAACrIt7oAAAAAXNSR0IArs4c6QAAIABJREFUeF7tnXd8VVW6939r79OSk4QECE16Vbp06SnAHceZudeLioqCCuiMdRy9lrkzwx1fARVlVEAFpAjogGMDpEPoNUgzFAsgCFIM6Zy693o/e+fEiZEk++x+Div/QfZ61rN+a33zrL4I2A9TgClgGwWIbTxhjjAFmAJgQLJGwBSwkQIMSBtVBnOFKcCAZG2AKWAjBRiQNqoM5gpTgAHJ2gBTwEYKMCBtVBnMFaYAA5K1AaaAjRRgQNqoMpgrTAEGJGsDlihAKQi2DqoPj9ggTPmGhCYkEz6xKbgkL4jLJZIEBxAqJQhegnilhKdlF0HDl0D8+ei5KZ8QUEscNzhTBqTBAjPz5QrQnKEOeD03inzdG6mz6e/gSMwkvkMe4j8IEvy2/CPxKmpxkfSuNoCrDcTkIaBc0pegdA0RS/fxZce3k14LT8eLzgzIeKlJG5aDLr2NR4vL/UW+3q+pp+kzXNFnIP4IfBHQZLc5d+3ei4F/f1MBrsMNoe5DEN3ttvFCyUKu5OAq0uefZ2o3Zt8vGJD2rZuY9Ywe7OpFsMUoJLSYhEvTG8iRrwJAJfBFU3IJ1Ih9If1JiK5mH5DgtzMcnervJGTi1WJuNNZN/5YBabrk8ZuhBKLoqzsOzrRpXOEnRIZQbwBrki8CJ00ZDqHuyD0oy3va0SVtWyyByYCMXz5MK5nUNRWanRlJnI0Wc0Wf8qaDWLWklcGsf+dG0ff14+6Ok740TRANGTEgNYjHkgJ0R5frBU/XjXzB4saWg1gNmEKDx0HdrV9w/HhqMuk/zWfnemNA2rl2bO4b3XHDvQidWAApIpnZNY1Wl4h/oeZvfUtL997q7vLWoWhNmPU9A9IspeMoH7qmoRf1uq5H0bp+cCiYIbVL2cMBCA2fBOGSHuE7/n2GXdyq7AcD0o61YmOf6K62TSlp8jUp3eKJKRgrNA0HQJMGIJw+ZqGz1YQxdttgwIC0ceO3m2t0S6OOlPfmyQv5du6i1iac1IV1uhFqNmebU9wwjLSa768tiVm/Z0CapXSM50O3pnaD6Dtg+/GiUp0jGw1Crd/f5xTXDrQLlAxIpRV4DX9Ht3i7Qig7KEsQy5GxmlnYUJsFuc5zKwaT/h9aPgPLgLyGQVNSdLotsQkE4WzcRMarFVoMINR6ca7zbO5gq5dFGJBKWuU1/I24szsl/gPxFRmvFikBhFq9l+v8cdsQ0mvWFauqnAFplfIxkK+wb6SfK/6XO666qdXp/tOYctFe59l9Q6yKlAzIGADDCheFbde/yAWOPW/o0kbFCQ5pC7iAUggoAIVQPlaFBwQ8HEiP/LtcBqPHsGIA4ZZzdjuwbagVEz0MSCtau83zpDmpLSEWnjQExgoIwzKAn4BiFkqwk9weAbEabejnaA+KMeBxJzxoZSicMpRzdznC+4eSdm9WOvdlfMUxII3XOOZyEHf2DhD/Xpeu0UgCUZBP+R+BgFFkBFRv9qYrkQKKV+HCvXBAXz+l2or80Qi3nLXDgR1ZZkZKBmTM4WKsw8LW9pO54FfP6hody2E8igAyya9xXs8S0GV4HYl4CE63S0+7P0HZYuY2B9lj2uYBBqSutRjbxigFh00QdIuM5SAGIWI4GY7NRqlDc5CEYixDCjJ0871ypGzx7nYH2ZptRqRkQBrVSmLQrriz71ri3z1Ml0ZdDuMF+NCa/AamLCPQT/AqUvGkLv5Xrr9wAOHWc3Y6sC3TaCgZkDEIjhEu06XgkY6wLo1ZPiDM7SNZYi8jfK3JJv0EdyIV7+tSjsoZSZsHWr2320k3Gjr7yoA0u8XYND9he7d5XPDgWM0NWYKRJu4jmVdMh7FCWvopslEH6zSXpQqQ0j/DLd7e7SC7DIOSAWlTQMx2i252a7/nVAyAkuSL3NCShmb7XzU/uhxZSMJ6Q6BsOXe3A1sMgZIBaXXLsUH+dKN7BGhgteaZ1XDAj3wk1bamaFaRDYmUcpgMINRmYa6Tbhik95iSAWlW67BxPsKOQee4wNbGmqJJOACE0UXL+qIREtEVyIZX5+5rZAY23PLdHY4fVmfreUqEAWlEK4ghm7pM5sjjxtTPSWbhLXYsOl2O4UjCGk1/cK5WMGlHT4s52x3n84bptfeVAWnHFmSiT3Q9eoNgj6buavnOlmSSgVITXY8qK0O6rxU7elq8vd0h5GXpsc2OARlVtcbfx3RP/y0o2zFIdfSQo2PybJJZMsHu6hgJZbD1vLXuFveN0KoBA1KrgjGeXtzWSiChk5xqIKWxI4c0koHCWJCCLkMmkrAOvLvy6yLaXI/c0eNvPP39hDbj79ZijAGpRb04SEtzQFXDKC1zONt/xw38qmUsSUGXYyi82KA3lDRpOMTEXvc4Ok1apFYPBqRa5eIgHV2ORCSiTPX4UYqOcP+WZAWWx5ocdDlughfbwbv1Y0C697XJ38M8vdCWdJzxnRpN9HNGTe4sjaUK0PXoCII8TUBSNCLZuGBpQVRmTpejD5KwW3UP4Wr5SmuUrebsd7Ue10ONWwxINarFSRq6Fg/Cibc1NciygIfcDFMP8eopP12GfkjGTk0aVHZI6sa72oDWufURvvMrUd+OzoDUs3ZjzBZd75kN3j9OVWMUAxAThpzj+22+LsaK/Qt36TL0QDL2qdKhmigpNP4/H3/lbGPSa1ZRNPowIKNRK86+FTe3+oKIJ29U1RClSODJXMHdtPE38SAL/Rx9kYCduo0ppa5rs6nzXO2fuj8afRiQ0agVZ9+KW1qcIsJ3LdQCCeeNU8jA/c/Fiyx0BfojEVt1mX0VAxDqPw6eoy1IpzdOK9WIAalUqTj8Ttzc5BwRz6nbwyqtvfFNHyWDv58eT9LoCqUUJZv8dbHrhr+PVqoRA1KpUnH4Hd1U/xToj+oipLTk4Wz2JBl8Zlq8SSOvUyYhR1XPocoED677G0Au1yHt3ixWohMDUolKcfoN3ZR+FPTS9aoanjSpw3eezA/+8vl4lId+hjFIwXxV2lSBUqz/8ON8lxlvKNGJAalEpTj9hq4lK+Gkv1LV6CQgnb3f5wfu1bRVzM7S0k/xFurgIVX6VBRMntx59YyzXUlLQiZKV0LX+MOArE2hOP49XYEn4MU0VQ1OAtJ7y1d8nxUd4lgi0M+RhyR3R9VllGajk4aDOBt3Jt0X5NVmhwFZm0Jx/Hu6Ap3hxWG1QFJPd5B+B3hCUOtf/liVka5CS3hwUpVGlaJkOP3hl5xdZzxbmw4MyNoUiuPf0zXwwoVS1Y1NmthJaFqP9P/+chzLBLocK5Di/rXqMkp7XJtO/dbR4am2tdlgQNamUJz/nm4A1bSXlW84gQy9MDueZaLrUAc88sG7eVXlrFiTDBU3ID3mXarJBgNSlcLxk0gTkNL4yN33BNd/d5v4UeTqJaHLsQcp7t5ayhlOHpbt7LFiAwNSi4pxnpZuwHdwuJurLqa0QSChbTPS75vvVduIgYT0YwxEGrZq6d6LdW55nu+1YjIDMgYq3CoX6Qr8Fl58prqhSVEyYeinXL9N/2VVGczKl65DKVxur6r8pOcI0h9b6ez6Ro1jUdZlVaVu/CSiO5AAH66oHkdWSMG3vJ4MPH48fpT5ZUnoahxBgvsGVWWUbqhLf+qYs/PUGtMzIFWpG1+J6Dr44HJ7VJdK6rYm/+oAeq7qGddLIJ9iMurgWVW9CUmjJn8Oo/2LLkLkdzKv+sOAVN0K4ychXYF34cX9qhpahQzhAMSUW57he694OX6U+XlJ6MfohjQcUKWTtJEi9W5wLk890undapeJGJDx2nqiKJfmu3WkvCIn5QW+9Qhnv3Vro8g+Zj6lK5EOD86Bdzuidrpixw7vuY70WHaORcioFby2EtC1uAi3O11TqaUokPyfIkd8HUjPNd9osmXDxPJGCgd+hENF914+0N0dhKS3J/3Wfc2AtGEF28kl3a7bl3alpN59kQ/80IP033jWTmXUwxe6DmVwuROjthXpQRA07EIG7PiSARm1gtdeAtWNrapUEpR1x1zkAxd7kn6r4mp9UrVGFUDy9buRfrsPMSCvPb6iLjFdjoeRhOmqJi2uBmXaPRd4saAP6bVC8RUWUTttYgL6GZKRiEtwud1RZ1vRZRW815OB26tdHmKTOlErG98J6DpcgcudoEsppUiZNuYCj0t9SY+Vqi4O1sUPnYzQNWgFF06o+oMlAZk4AIRHC9Jre7V/oBiQOlVWrJrJmQhHcuOepGfaPlF6aDW0HFkOPV8eLu++XuKFs71Ir/UxHSnpSvwKCVipFkixzihwKGpAeqyqdoM5AzJWSdLo9/63GrUEUv9GnOm3gnCcy52Sm8AVvBROPZ/TxvHNCeJ2N9GYxb+Ty5Hy3ou8eLl3LHdf6TLMRjJU32Mr1H80zHd+k20M0K1hxYmhvVP5kaGg8CHhAS5yoEgUACoAdZv1eKdZnWPvJiZe2QWnji9EyZHy/nxeuNgjVqGka3AWHpV/qKQlobrjD/PdZnetqRmxCBknkCktxu4p6CaIOMBXM0wUAj6ktrptZ7vm+T5HcGOmqu5Zdc7IUI4t4AMXusba7CvNhRMFKFa9xVAu+x3zHDcuqfHiZAak0pYcJ9/lTuP8giC6Qaqft5GgrNf58UvtGh9NJ6VroT+UD1zmfRe6kv4rYmadkq7ESCTgQ9VayFsLb36S772yxmszGZBxApqSYixdCr7pNwhXFx0r2xCDPqR3GYvWaVtBwjovJcrR4r7LvHDpxljpvtKVOA6vu70Snav9xt05k/Tbl8O6rJpUjJ/Eue/AGbqMIOdStqohhn1o2HYgWjXcCwg66yBBWW9cIR883ZX0WXtGZ+u6mqNrcD1cOKo6OlZsLC87lUIGbi9hQOpaPbFrLJoIWVFKGcoW7dCq6WmDoJxQxPvPdLbzmJKuwgEkuruprnnpTp20B9c5ur8zvDYbrMtam0Ix/vutk5HmFOFyuCGESxEkSSh/Hq2GMWTVIosCRcOGQKs21CAoxxfz4qkbSI911Z6CsKoa6CoMhEfD1R2S49L4MfWOR/meS2p9B4UBaVVNG5zvnimuTiSp5c5Q8VfJMn8E8Db5bRHvSalTemZRVEBK6Q2HUtr7euWHLmTA2osGS6PYPF0JN3ich8edqjjRL/6aRU551LJlriIZA1K10vZNuH0SRhLgQ95VJRJSX7nTUUTHyqU0HMq0ey7yvgu2gZKuxna40V/12DESHYW6o7c5blw0SEmLYUAqUSmGvtk1ESmCE4UOT4IhdWs4lPXGl/Fl37W2OlLS1ZgCN57RBKPctQhA8GaNdvTZsFhJMzKk0pRkzL4xRoGdLzdcT3Ahi/DKZlLVeGE8lOPK+OC5tqTPyvNq/NOahq7Eo3DjDc0Xf0kw1rm7kD9/uRG5eVVAiV8MSCUqxdA3O6eglHPAq7ZbqrSoRkMppo70c+HijqTv2pNKfdLjO7oSL8KN5zXDGOmuigk9HuX7f1HrZA4bQ+pReza0seNFFPBupBoNpNwbM3L2VTqu5B1GiejrTfpt22e01JSCYD1ZBQcdobmbGumqypdacYeTSLdDZUr9ZxFSqVIx8t2Wv2GDOxmZZgBpBpRyHt7/XMC5TzwcTcOOprroBrQBh/I7gLjozx5fNS9p40Ny9v2OPuvnReMLAzIatWLg2+1/RgvixSkl2+P0Ko6hkTLS9aPeQT4iBm7HTXtW6nX3K92KNAQTPgF8Q3TpolYIKo8d7/qRP1/QVOnYkXVZ9WqNNrSz+Xn8y52K/zZyYqdqsQ2HUrpoWATEpKxCLlzwJErPLkXRBb90qDqaKpBPbeSjKfU0/oCEf+gLTseoWNkRR6v+ZMCxndH4Jn3LImS0isXI91v+ih2uJNwUV1BGxmby87AON8SErBNc8NybEM5+Dq/zLIIcRaFHRIM65Q/IluTzwCnpDlUHwp7uNKHlX4hwMlPaOWMYiNKunKQBb/J9tz+mpqkwINWoFiNpNv8Ve91J6BV3UFbqGv70drMU6ZxuUP4GgPMCYhmIcBQIlUfW8vGhQdGwclc1ZdQl3nOoKel0JKimmTAg1agWQ2m2voCDTje6xi2Uv+g7V1ru02uCRkl9y29ldhUJhxak3yHV59UYkErEjvFvtr2Aww43Ol8zUFpRX9IY193pP0j/vDVasmdAalEvhtJuewEHHddSpDSzbqQxqeO6sWTI2QVas2VAalUwRtLTieD2N+kphIr3qd5crqaohs++qnFKzzQSjM7rfk8Gn31bD7MMSD1UjAEbZ5am1G3aMJC//yCHUMhch2Uomzcz5pCzuUX5eW4SjHyLP5Gh372mlxsMSL2UtLGdi0uRlJ6OkopdKAxKjZUljRflWdt6Y8mQfM3d1MreMCA11o3dk8tvP6a4y6RjQJW3hVkCZdiH+m3/A22anAfxH9Bvm5qZlfCTjklZZEj+Rr2zZkDqraiN7MkwJrtKQYPkans0rYIy7YbH0K5ZPrjLi+UF/pj5CUsb3m8qJaGz3cig0yeM8JsBaYSqNrBJc5AEiiIQcDVtmLYCSune1/pdniy4Lu2b9xN9y8bDAZdum7qN0L5i256zzXRO+PaPJANhI7KRbDIgjVLWQrvyS79OGUZeSUO3Csq6bUcfaJ6U8xtX+Oxk3ovRtoyWUlRM7OEnoZN9yeCCat911Ku6GZB6KWkTO3I31YtipTBWuG0VlHWaZy/s+M36sf4eaOpJc55EMMTZAkxpBlV6BpI2fg4DT71ECKgZVcyANENlk/KgO5CAoKMENKwoMlZ1ywoopRvSvXWat+n6h/IxmX8VOrhdyAWQZPje06oCRLqmEogimrzCnTv5XLSnSbRWNQNSq4I2SV8Oo7MUNFTjmLFGd8UA9h9OMHWdUgKSd3nv6fOnskWVfZOuYKQuVw4hwZtkMKUfI/amVixhiABNGhIkZfv/CxnFq8yKiFXrgwFpE6C0uCHDGMAVvRqtmZFSAhKOei/d9HT+s9VpQNfhBvAp70Ms7gYiT1OpB7QSgJIR6r2J0tDpF/lBZ/+ipQ70SsuA1EtJi+zIY8YklN/ZomMEMQtKCUjiuu6Ffn86+1clEsqXFwOZ1J32BHEWDUVQlF64lNqxhOrV2zMFBQcKpxPU1T9M/KdnQTg3nWQGjivJ08xvGJBmqq1zXvJsqgulesNY4aYZUEpLIOBT+vZ/pniPXvJIupARkT9Sehk1yQ4D0iSh9c5GXmcEyl9S0jEyVvXTSCil6OipP/h7QSxr3evBfSbvsNW7RvSxx4DUR0dTrRgdGfWGUnpBS346veIJA+qDEAScda4v40Xavsejx233yI6pFVopMwakVcqrzNeoMWNt7siRUpqAifZdEOqDI7nz3GDB2U5iuKC7FM+dSQ2Dguh81+n9/qleD4JFRgZkbc3Pnr+3CkZpY3phofuJb880eiLs/65lNDcPSNExpc2YMxdLvmufcd8mvz2VtY9XLELapy5q9ITmwAOg/PkqA8eMv3AiHECYS5/izLj0nHTIeVeC5yAhfuXXgVAfnCk9EUxsUKff6FXFMSK3ZW4yIC2TXnnG8jqjH2Xla3Amno6oBGOFt9IrzM1Peg6C+DspipTSE3gkAaGwN2XgMz/W+Jy3ckXi90sGpM3rNgJjSbR7UzUXS7pfFKkT+azC/6tqS34a/aTnAKckUlIf3HWH+AtOk+SMiZsMOyWhubw2McCAtElFXM2NyKmNQhA4zI6MIN7nSWbZ5OrkyZkIh9uTeJDjrnSsKVJK64yeet1e7fHgwadsLLVtXGNA2qYqfu5I5NSGdITKfBi5pP8lGaUv1iaNBGVCQtKXFKUdOMcv36OUJnQ8dfsHUXqu4Y1/PFVYmz32e3Ye0pZtIBIZC0DgND0ywvscySqbolQYqfva7GTqZioUDiA8QAhAKUAFwJPW/QIfEnt1e0z9xcFK/YiX71iEtFlNRiKj1E01H0aS8D8k0/eKGkm2v4IGtAy3gne0J5zjChX9C891wDe3R/kYjpq84ykNA9JGtWkpjEh4mmT5ptpIjmvSFQakTard2gkc95MkMzDNJlJc024wIG1Q/dHegaOby9I1FdT5BMkOva6bTWZIkwIMSE3yaU8cWWcsre12OO05VbEgwQjnoyQrNF1328ygagUYkKql054wsh1OOulv+g4cUO4Rki3O0F4KZkFPBWwJ5M5XkoYiXJoTLMG6wS9ihFX3m+gpdFVb8sl3aUOc9GPydjhQ7iGSLb5jZPmYbXUK2A7I3dMSboLg2yEVh4qAvwDrh0zC8HiCki6FC+kofyDCdBidj5DsEIuM6ngxPJWtgNw7LXmAECrZRqRLjCLn7qjgQ6AAawa7cTOZ+NPj1IYLY1QGlsIocn8gw8S3jCobs6tdAdsAuWtq8kAaKtnKOSudLI+UT4LSX4CcIW5kxzKUkW6qdITK/DEjm8DRTosJFmwB5N5p9bLDwfx1P7vmoUrhZSgLkTPEFZtQ0vWoBw4XLZlNpdyDJFucZUJ7YlloVMByIHe9UXc4/JfXVO6mVlemSKRcP8SNEbEUKS2GkU3gaITEzOSWArn39fSbhcClz5XAWCFKrI0p6RakI4wfrDjPyGZTzURJn7wsA3L3PxqMEAMXV9fUTa0pUvouY/XQybjZzrOvDEZ9Gum1ZMUSIGUYfRdXX20CR6n4kUi5YfAkDLMjlHQNGsCJs5acZwT3B5LFZlOVtiU7fWc6kBKMNHhxdTTd1NoiZcYU/MpOokbGjOctgvH3JEt82056MF+UK2AqkLteTehHg76dWiJj1aJFJnrWDZ2M4cqLbdyXFkdGBqNxVWuKZVOB3PFawnUuV/r34SunoejGMoUSRJZE1g2dZC2UDEaFFcY+q1YBU4GUvNj7VocBRPBtMwLKYAE2DZ6MDCvqOzKBc86SbipbZ7Siyg3J03Qgy6Hs2IcIpbuNgNJfgI1DJyPLELWqMUpzUB8U0phR1cvFqn2VzzOyjeKq9bNhQkuAlHTYM6Ndd44G9hsBZaAQG4ZMQrYZetOVSIfHsnVGtgPHjEo2MQ/LgCyPlO37EMFvSKQMFGHDkBeNhTLSTZUio/pnxNVUNouMalSLiTSWAikplPtOx74Ile4S/Kejf1mpBonldcpibB7y/zDUiJqgW5GGEH60CEYWGY2oVBvYtBzIylAa0n01AMrIOuMlK97aADCeZGGODdoOc8EABWwBpFSufTM7DhKFks3h0jOyT9Jlu9KPdPEuOPz8wc8ohNA7UspLGy5ckF0w/XAxRpFsLImi+OzTGFNANyBzp7cfd+XCV5OEIB7LeAn/VKND7rQWjf3F391MKXLcwBW/E8QBT0dP/a5PUQSHBfIP8Lzrl+cla8vrp1MiGm8eoDloBOAHi2AcTbKxuLayst/HtgK6ALlvZtvRwaJvFko7cKSnqn2XcWvWVHyitzR7p7cf5XDXX+C7tMPFu3/5lkRN+UX2vm4c7MYwNUe36Fo0kfemWhIZ2bUberclu9rTDGTuzOvHhIqOza+8HU7w+6ivAL/Lmorlehf84CtdvUJqnRn+S1vHqIKyEFsudEdmNFfcWwzjwyQ7NFNvHZk9eyqgCci9Mzo8EC4+Pudqe1PDfp8YKMJtmS/jYyOKvn/2wL/5Lm2bqAbKYBE2ne+GbCVQ0jVoBhdOWxIZifMBkhmaa4R+zKY9FVANZO7MTmNCJXnzazrPGPb5woES3J35EpYaUfz9czMX+85vvEsVlAVYP3gyhtXYzd2AFuBwyhIY4ZxAskKzjdCN2bSvAqqA3Duj7QPh0m/mKDlcLEEZLME9aid6apJu/7TuqUhJyQ8WbOEqbqlTKrU0pgzWAKWlkRHO8SQrxJY2lFZmHH0XNZD7ZnYcHSw6Ik/gKIVAgjJUjAlDX8Y8vbXbO6PTyFBR3ofRRknJDxnKYmweXGXzAF2JpkjAGUsiI3WOI9mhd/XWidmLDQWiAjJ35g3jQkVHZ0cDY4UMYZ8vFCjBaL27r1tnNk9LEPl8wX+SKP0D8bOqoT4E8rF78GT0k/6/5FN0TKqDPFPXGKWM5bc2+PtIljA/NpoO89IIBRQDmTuz/bhQyVezlXRTq3PUd8l3jAf6D5qCAj0Ls3/eiM3+i2sGX+1ZbUX5UB8EHw7VbeT4Y4e24Q3WREZ+LMkWFijyl30UtwooAnLfjOvHB4uPzVITGSsr5y/0nR3yAprqrWbumx1vC5UeWcq5olubrPBDFCiSUxPQqV2BubtvKiKjyI8hw4T39NaF2Ys9BWoFMvfN1neFSk8s1gqjJI0UIYdOwQ16y7RjSkJ/iL7tasaRP8HY8Qog6O1ZLfakbiqD0WTR7Z1drUDue6f/i4H8Hc+raexVi156wbc/62X00FuSHS95syCUrY/WR8thJPwYkskio97tIZbt1QqkVLi8JXcuLPr2g9HRNviqwvh+9H07dDLa6i3Yzlfq3I5w0ZJouqyWw8gio97NIC7sKQJSKunhj8bMLTm+4D4tUIZKfYUoQ/OBL6NET/V2v95htug/Pk7ppI7lMFL+HpItLNJTA2YrPhRQDKQcKT+6/72i43PvUQtl5Ha4zKGTkKOXfHkzOib5eVdBuPSAQ8myh/Uwgp3a0Kvy49BOVEBGIuWikuML7lYFJfWh7BxWZ76m38XGe/7RqHf4yvk9SvxhMMZhC46zIkUNpBwpP3lgcdHRd+9SczYxfMXnD5SiV+ZLyNOq5cFXGnqD7pQDgv/rtrXd82o9jKybqrW+r4X0qoCUhDny6YQPCo/MGqUGytKzvn11SnFTr1kIaRF516v1RouB/IW1RUfLYQR/L8kSFmopK0t7bSigGsifQRnlYWFQH0q/x7Ksf+B3amXe+XLCAAi+bbXNrFoOI5tNVVvF12Q6TUCWQzn+g8Ijs0fVFqV+oS71wXceHw6ZijsIELlBR1kd7HzJezfEskW1bVawHEbKtsMpq1H2VYUCmoEsh/L3HxQeeUsdlD/iBOXw3xmTcKC2atnzsrdRmLrnQLj869r+ADAYa1PLtP3GAAAF6klEQVST/d6OCugCpNYxpRiWT1x8QYHJSMSmSx1RUHGaP3cq6gcD/HDiTLtHDP6YxbvgtP8EDm4j2fiXHSuc+WRvBXQDUirml58+8EHxkXejj5QRjaR1Sir8+wrIn8I4AWrrnlZ8a3lkFDGSDMNH9q525p1dFdAVSDlSfvbQksK8t2+vrUtphCCWw8j2phpRrdeUTd2BlKH8ZPySwqOzTYXSchjZ0sY1BY5RhTUESMnZvE/GLS46OkfV5oFoC2s5jIS/g2QKhlzkFa0W7PvYVsAwIGUoP75/UdGxuXer2TygVFbLYWRjRqVVxb5ToIChQFIKkvfRvYuKv3ov6qsaFfgOBqMSldg3saSAoUBKQkhQHlvxyJKCw9Nv03Oix3IY2QROLLXzmPHVcCBlKCeCO9pt/KLCo7Pv1KP7ajmMlK0zxkwLjzFHTQHy31BOWFB4dNZoLVBaDiPBSJLJ1hljrJ3HjLumAVkBZV6n0XOLv140Rg2U1sPIZlNjpmXHqKOmAlkxpjzy8f0Li47PjeqQs+UwiriDDDPmjZIYbTvMbQMUMB3ICiiPfjp+sTymVHB0y3IY2ZjRgKbHTF5NAUuArHAk76Oxi4qOz69xndJyGIHbSRY+ZM2HKWCGApYCKRUw76Ox84q/mj/2apvHLYeR8qNItrDEjIpgeTAFJAUsB1Jy4shHY98rPD7/Z7fZ2QDGO0m28E/WTJgCZipgCyClAh/9eOz8gmPz5WfKGYxmNgGWl50UsA2QcqRccvtbhd8ufSilfho6WfXWBsffSTJYZLRTI72WfLEVkJLw59bdt7WxY95Ai95nvItkCR9cSw2AldVeCtgKyLINjXskOi7vM10i6RUqyrMxo+nCswyrKmAbIOkaV2c4gofhcJtbSwxGc/VmudWogC2ApOvQBRwOWQIj4e8mmcL7rJ0wBeyggOVA0vXoCh4HLRkzsleo7NAGmQ+VFLAUSEthhPNekhVi1/szHGylgGVA0hx0h4j91nRTnWNIZug9W9UEc4YpYNVOHbre2RsktMcSGFlkZA3fxgqYHiFpjrMXxNBea2B03UWygmyd0cYN8lp3zVQg6QZnH3Ch3dZM4LjuJNlBtjf1Wm/xNi+/aUDSDY7+QHg7i4w2bxHMPUsVMAVIutEzBNS/yRIYOed9JCM031KVWeZMAYUKGA4k3ZT2GwgFyyyBEWzMqLAdsM9sooDhQIZ298nkudQNpHQtTBs7StvhONedJIONGW3SzpgbChUwHEjJD+HLZ/9IfF+8ZgqU8t5U1yiSHWQn/RU2AvaZfRQwBUipuMEjf/6Do2zvDEOhlGBkD9/Yp3UxT6JWwDQg5UiZ9/yj5EruG4ZAybqpUVc+S2A/BUwFUobyyP8+Tsr2/ENXKBmM9mtZzCNVCpgOZDmUf32clO3SB8pyGEeTjOBiVQqwREwBGylgCZDl3de/PEau7H5dU6SUx4yeMSTTzzaK26hRMVfUK2AZkPJET96fH3Fc2fumKijlyOi5j2T42aK/+vpnKW2mgKVASlqEjzw7jiv7YnZUULLIaLNmxNzRSwHLgZS7r4f/5yHiP/CWIijlyOi9j2SUscioVytgdmyjgC2AlCPl4ace4PyH5tQIpQQjnzyBDC2ZbRsFmSNMAR0VsA2QcqT88ukJxHfwnatCyWDUsdqZKbsqYCsg5Uj55VPjOd+hWT+DUu6m1nuEZOTPsKuQzC+mgB4K2A7I8u7r46M5/9GFMpQiAC79EZJxicGoR40zG7ZWwJZARiZ6HiNlW18jwQtPk8EnptlaReYcU0AnBWwLpFQ+mntLc9JrxWmdysrMMAVsr4CtgbS9esxBpoDOCjAgdRaUmWMKaFGAAalFPZaWKaCzAgxInQVl5pgCWhRgQGpRj6VlCuisAANSZ0GZOaaAFgUYkFrUY2mZAjorwIDUWVBmjimgRQEGpBb1WFqmgM4KMCB1FpSZYwpoUYABqUU9lpYpoLMCDEidBWXmmAJaFGBAalGPpWUK6KwAA1JnQZk5poAWBf4/m9O5sDjn0ogAAAAASUVORK5CYII=;rotation=-180;" parent="1" vertex="1">
          <mxGeometry x="868.74" y="160" width="31.26" height="30.31" as="geometry" />
        </mxCell>
        <mxCell id="cfdrwB-0t9WhW7MWjaBJ-44" value="" style="edgeStyle=entityRelationEdgeStyle;fontSize=12;html=1;endArrow=ERoneToMany;rounded=0;exitX=1.018;exitY=0.114;exitDx=0;exitDy=0;exitPerimeter=0;entryX=0;entryY=0.25;entryDx=0;entryDy=0;" parent="1" source="cfdrwB-0t9WhW7MWjaBJ-25" target="cfdrwB-0t9WhW7MWjaBJ-27" edge="1">
          <mxGeometry width="100" height="100" relative="1" as="geometry">
            <mxPoint x="210" y="190" as="sourcePoint" />
            <mxPoint x="310" y="90" as="targetPoint" />
          </mxGeometry>
        </mxCell>
        <mxCell id="cfdrwB-0t9WhW7MWjaBJ-47" value="" style="shape=image;verticalLabelPosition=bottom;labelBackgroundColor=default;verticalAlign=top;aspect=fixed;imageAspect=0;image=data:image/png,iVBORw0KGgoAAAANSUhEUgAAAOQAAADdCAYAAACrIt7oAAAAAXNSR0IArs4c6QAAIABJREFUeF7tnXd8VVW6939r79OSk4QECE16Vbp06SnAHceZudeLioqCCuiMdRy9lrkzwx1fARVlVEAFpAjogGMDpEPoNUgzFAsgCFIM6Zy693o/e+fEiZEk++x+Div/QfZ61rN+a33zrL4I2A9TgClgGwWIbTxhjjAFmAJgQLJGwBSwkQIMSBtVBnOFKcCAZG2AKWAjBRiQNqoM5gpTgAHJ2gBTwEYKMCBtVBnMFaYAA5K1AaaAjRRgQNqoMpgrTAEGJGsDlihAKQi2DqoPj9ggTPmGhCYkEz6xKbgkL4jLJZIEBxAqJQhegnilhKdlF0HDl0D8+ei5KZ8QUEscNzhTBqTBAjPz5QrQnKEOeD03inzdG6mz6e/gSMwkvkMe4j8IEvy2/CPxKmpxkfSuNoCrDcTkIaBc0pegdA0RS/fxZce3k14LT8eLzgzIeKlJG5aDLr2NR4vL/UW+3q+pp+kzXNFnIP4IfBHQZLc5d+3ei4F/f1MBrsMNoe5DEN3ttvFCyUKu5OAq0uefZ2o3Zt8vGJD2rZuY9Ywe7OpFsMUoJLSYhEvTG8iRrwJAJfBFU3IJ1Ih9If1JiK5mH5DgtzMcnervJGTi1WJuNNZN/5YBabrk8ZuhBKLoqzsOzrRpXOEnRIZQbwBrki8CJ00ZDqHuyD0oy3va0SVtWyyByYCMXz5MK5nUNRWanRlJnI0Wc0Wf8qaDWLWklcGsf+dG0ff14+6Ok740TRANGTEgNYjHkgJ0R5frBU/XjXzB4saWg1gNmEKDx0HdrV9w/HhqMuk/zWfnemNA2rl2bO4b3XHDvQidWAApIpnZNY1Wl4h/oeZvfUtL997q7vLWoWhNmPU9A9IspeMoH7qmoRf1uq5H0bp+cCiYIbVL2cMBCA2fBOGSHuE7/n2GXdyq7AcD0o61YmOf6K62TSlp8jUp3eKJKRgrNA0HQJMGIJw+ZqGz1YQxdttgwIC0ceO3m2t0S6OOlPfmyQv5du6i1iac1IV1uhFqNmebU9wwjLSa768tiVm/Z0CapXSM50O3pnaD6Dtg+/GiUp0jGw1Crd/f5xTXDrQLlAxIpRV4DX9Ht3i7Qig7KEsQy5GxmlnYUJsFuc5zKwaT/h9aPgPLgLyGQVNSdLotsQkE4WzcRMarFVoMINR6ca7zbO5gq5dFGJBKWuU1/I24szsl/gPxFRmvFikBhFq9l+v8cdsQ0mvWFauqnAFplfIxkK+wb6SfK/6XO666qdXp/tOYctFe59l9Q6yKlAzIGADDCheFbde/yAWOPW/o0kbFCQ5pC7iAUggoAIVQPlaFBwQ8HEiP/LtcBqPHsGIA4ZZzdjuwbagVEz0MSCtau83zpDmpLSEWnjQExgoIwzKAn4BiFkqwk9weAbEabejnaA+KMeBxJzxoZSicMpRzdznC+4eSdm9WOvdlfMUxII3XOOZyEHf2DhD/Xpeu0UgCUZBP+R+BgFFkBFRv9qYrkQKKV+HCvXBAXz+l2or80Qi3nLXDgR1ZZkZKBmTM4WKsw8LW9pO54FfP6hody2E8igAyya9xXs8S0GV4HYl4CE63S0+7P0HZYuY2B9lj2uYBBqSutRjbxigFh00QdIuM5SAGIWI4GY7NRqlDc5CEYixDCjJ0871ypGzx7nYH2ZptRqRkQBrVSmLQrriz71ri3z1Ml0ZdDuMF+NCa/AamLCPQT/AqUvGkLv5Xrr9wAOHWc3Y6sC3TaCgZkDEIjhEu06XgkY6wLo1ZPiDM7SNZYi8jfK3JJv0EdyIV7+tSjsoZSZsHWr2320k3Gjr7yoA0u8XYND9he7d5XPDgWM0NWYKRJu4jmVdMh7FCWvopslEH6zSXpQqQ0j/DLd7e7SC7DIOSAWlTQMx2i252a7/nVAyAkuSL3NCShmb7XzU/uhxZSMJ6Q6BsOXe3A1sMgZIBaXXLsUH+dKN7BGhgteaZ1XDAj3wk1bamaFaRDYmUcpgMINRmYa6Tbhik95iSAWlW67BxPsKOQee4wNbGmqJJOACE0UXL+qIREtEVyIZX5+5rZAY23PLdHY4fVmfreUqEAWlEK4ghm7pM5sjjxtTPSWbhLXYsOl2O4UjCGk1/cK5WMGlHT4s52x3n84bptfeVAWnHFmSiT3Q9eoNgj6buavnOlmSSgVITXY8qK0O6rxU7elq8vd0h5GXpsc2OARlVtcbfx3RP/y0o2zFIdfSQo2PybJJZMsHu6hgJZbD1vLXuFveN0KoBA1KrgjGeXtzWSiChk5xqIKWxI4c0koHCWJCCLkMmkrAOvLvy6yLaXI/c0eNvPP39hDbj79ZijAGpRb04SEtzQFXDKC1zONt/xw38qmUsSUGXYyi82KA3lDRpOMTEXvc4Ok1apFYPBqRa5eIgHV2ORCSiTPX4UYqOcP+WZAWWx5ocdDlughfbwbv1Y0C697XJ38M8vdCWdJzxnRpN9HNGTe4sjaUK0PXoCII8TUBSNCLZuGBpQVRmTpejD5KwW3UP4Wr5SmuUrebsd7Ue10ONWwxINarFSRq6Fg/Cibc1NciygIfcDFMP8eopP12GfkjGTk0aVHZI6sa72oDWufURvvMrUd+OzoDUs3ZjzBZd75kN3j9OVWMUAxAThpzj+22+LsaK/Qt36TL0QDL2qdKhmigpNP4/H3/lbGPSa1ZRNPowIKNRK86+FTe3+oKIJ29U1RClSODJXMHdtPE38SAL/Rx9kYCduo0ppa5rs6nzXO2fuj8afRiQ0agVZ9+KW1qcIsJ3LdQCCeeNU8jA/c/Fiyx0BfojEVt1mX0VAxDqPw6eoy1IpzdOK9WIAalUqTj8Ttzc5BwRz6nbwyqtvfFNHyWDv58eT9LoCqUUJZv8dbHrhr+PVqoRA1KpUnH4Hd1U/xToj+oipLTk4Wz2JBl8Zlq8SSOvUyYhR1XPocoED677G0Au1yHt3ixWohMDUolKcfoN3ZR+FPTS9aoanjSpw3eezA/+8vl4lId+hjFIwXxV2lSBUqz/8ON8lxlvKNGJAalEpTj9hq4lK+Gkv1LV6CQgnb3f5wfu1bRVzM7S0k/xFurgIVX6VBRMntx59YyzXUlLQiZKV0LX+MOArE2hOP49XYEn4MU0VQ1OAtJ7y1d8nxUd4lgi0M+RhyR3R9VllGajk4aDOBt3Jt0X5NVmhwFZm0Jx/Hu6Ap3hxWG1QFJPd5B+B3hCUOtf/liVka5CS3hwUpVGlaJkOP3hl5xdZzxbmw4MyNoUiuPf0zXwwoVS1Y1NmthJaFqP9P/+chzLBLocK5Di/rXqMkp7XJtO/dbR4am2tdlgQNamUJz/nm4A1bSXlW84gQy9MDueZaLrUAc88sG7eVXlrFiTDBU3ID3mXarJBgNSlcLxk0gTkNL4yN33BNd/d5v4UeTqJaHLsQcp7t5ayhlOHpbt7LFiAwNSi4pxnpZuwHdwuJurLqa0QSChbTPS75vvVduIgYT0YwxEGrZq6d6LdW55nu+1YjIDMgYq3CoX6Qr8Fl58prqhSVEyYeinXL9N/2VVGczKl65DKVxur6r8pOcI0h9b6ez6Ro1jUdZlVaVu/CSiO5AAH66oHkdWSMG3vJ4MPH48fpT5ZUnoahxBgvsGVWWUbqhLf+qYs/PUGtMzIFWpG1+J6Dr44HJ7VJdK6rYm/+oAeq7qGddLIJ9iMurgWVW9CUmjJn8Oo/2LLkLkdzKv+sOAVN0K4ychXYF34cX9qhpahQzhAMSUW57he694OX6U+XlJ6MfohjQcUKWTtJEi9W5wLk890undapeJGJDx2nqiKJfmu3WkvCIn5QW+9Qhnv3Vro8g+Zj6lK5EOD86Bdzuidrpixw7vuY70WHaORcioFby2EtC1uAi3O11TqaUokPyfIkd8HUjPNd9osmXDxPJGCgd+hENF914+0N0dhKS3J/3Wfc2AtGEF28kl3a7bl3alpN59kQ/80IP033jWTmXUwxe6DmVwuROjthXpQRA07EIG7PiSARm1gtdeAtWNrapUEpR1x1zkAxd7kn6r4mp9UrVGFUDy9buRfrsPMSCvPb6iLjFdjoeRhOmqJi2uBmXaPRd4saAP6bVC8RUWUTttYgL6GZKRiEtwud1RZ1vRZRW815OB26tdHmKTOlErG98J6DpcgcudoEsppUiZNuYCj0t9SY+Vqi4O1sUPnYzQNWgFF06o+oMlAZk4AIRHC9Jre7V/oBiQOlVWrJrJmQhHcuOepGfaPlF6aDW0HFkOPV8eLu++XuKFs71Ir/UxHSnpSvwKCVipFkixzihwKGpAeqyqdoM5AzJWSdLo9/63GrUEUv9GnOm3gnCcy52Sm8AVvBROPZ/TxvHNCeJ2N9GYxb+Ty5Hy3ou8eLl3LHdf6TLMRjJU32Mr1H80zHd+k20M0K1hxYmhvVP5kaGg8CHhAS5yoEgUACoAdZv1eKdZnWPvJiZe2QWnji9EyZHy/nxeuNgjVqGka3AWHpV/qKQlobrjD/PdZnetqRmxCBknkCktxu4p6CaIOMBXM0wUAj6ktrptZ7vm+T5HcGOmqu5Zdc7IUI4t4AMXusba7CvNhRMFKFa9xVAu+x3zHDcuqfHiZAak0pYcJ9/lTuP8giC6Qaqft5GgrNf58UvtGh9NJ6VroT+UD1zmfRe6kv4rYmadkq7ESCTgQ9VayFsLb36S772yxmszGZBxApqSYixdCr7pNwhXFx0r2xCDPqR3GYvWaVtBwjovJcrR4r7LvHDpxljpvtKVOA6vu70Snav9xt05k/Tbl8O6rJpUjJ/Eue/AGbqMIOdStqohhn1o2HYgWjXcCwg66yBBWW9cIR883ZX0WXtGZ+u6mqNrcD1cOKo6OlZsLC87lUIGbi9hQOpaPbFrLJoIWVFKGcoW7dCq6WmDoJxQxPvPdLbzmJKuwgEkuruprnnpTp20B9c5ur8zvDYbrMtam0Ix/vutk5HmFOFyuCGESxEkSSh/Hq2GMWTVIosCRcOGQKs21CAoxxfz4qkbSI911Z6CsKoa6CoMhEfD1R2S49L4MfWOR/meS2p9B4UBaVVNG5zvnimuTiSp5c5Q8VfJMn8E8Db5bRHvSalTemZRVEBK6Q2HUtr7euWHLmTA2osGS6PYPF0JN3ich8edqjjRL/6aRU551LJlriIZA1K10vZNuH0SRhLgQ95VJRJSX7nTUUTHyqU0HMq0ey7yvgu2gZKuxna40V/12DESHYW6o7c5blw0SEmLYUAqUSmGvtk1ESmCE4UOT4IhdWs4lPXGl/Fl37W2OlLS1ZgCN57RBKPctQhA8GaNdvTZsFhJMzKk0pRkzL4xRoGdLzdcT3Ahi/DKZlLVeGE8lOPK+OC5tqTPyvNq/NOahq7Eo3DjDc0Xf0kw1rm7kD9/uRG5eVVAiV8MSCUqxdA3O6eglHPAq7ZbqrSoRkMppo70c+HijqTv2pNKfdLjO7oSL8KN5zXDGOmuigk9HuX7f1HrZA4bQ+pReza0seNFFPBupBoNpNwbM3L2VTqu5B1GiejrTfpt22e01JSCYD1ZBQcdobmbGumqypdacYeTSLdDZUr9ZxFSqVIx8t2Wv2GDOxmZZgBpBpRyHt7/XMC5TzwcTcOOprroBrQBh/I7gLjozx5fNS9p40Ny9v2OPuvnReMLAzIatWLg2+1/RgvixSkl2+P0Ko6hkTLS9aPeQT4iBm7HTXtW6nX3K92KNAQTPgF8Q3TpolYIKo8d7/qRP1/QVOnYkXVZ9WqNNrSz+Xn8y52K/zZyYqdqsQ2HUrpoWATEpKxCLlzwJErPLkXRBb90qDqaKpBPbeSjKfU0/oCEf+gLTseoWNkRR6v+ZMCxndH4Jn3LImS0isXI91v+ih2uJNwUV1BGxmby87AON8SErBNc8NybEM5+Dq/zLIIcRaFHRIM65Q/IluTzwCnpDlUHwp7uNKHlX4hwMlPaOWMYiNKunKQBb/J9tz+mpqkwINWoFiNpNv8Ve91J6BV3UFbqGv70drMU6ZxuUP4GgPMCYhmIcBQIlUfW8vGhQdGwclc1ZdQl3nOoKel0JKimmTAg1agWQ2m2voCDTje6xi2Uv+g7V1ru02uCRkl9y29ldhUJhxak3yHV59UYkErEjvFvtr2Aww43Ol8zUFpRX9IY193pP0j/vDVasmdAalEvhtJuewEHHddSpDSzbqQxqeO6sWTI2QVas2VAalUwRtLTieD2N+kphIr3qd5crqaohs++qnFKzzQSjM7rfk8Gn31bD7MMSD1UjAEbZ5am1G3aMJC//yCHUMhch2Uomzcz5pCzuUX5eW4SjHyLP5Gh372mlxsMSL2UtLGdi0uRlJ6OkopdKAxKjZUljRflWdt6Y8mQfM3d1MreMCA11o3dk8tvP6a4y6RjQJW3hVkCZdiH+m3/A22anAfxH9Bvm5qZlfCTjklZZEj+Rr2zZkDqraiN7MkwJrtKQYPkans0rYIy7YbH0K5ZPrjLi+UF/pj5CUsb3m8qJaGz3cig0yeM8JsBaYSqNrBJc5AEiiIQcDVtmLYCSune1/pdniy4Lu2b9xN9y8bDAZdum7qN0L5i256zzXRO+PaPJANhI7KRbDIgjVLWQrvyS79OGUZeSUO3Csq6bUcfaJ6U8xtX+Oxk3ovRtoyWUlRM7OEnoZN9yeCCat911Ku6GZB6KWkTO3I31YtipTBWuG0VlHWaZy/s+M36sf4eaOpJc55EMMTZAkxpBlV6BpI2fg4DT71ECKgZVcyANENlk/KgO5CAoKMENKwoMlZ1ywoopRvSvXWat+n6h/IxmX8VOrhdyAWQZPje06oCRLqmEogimrzCnTv5XLSnSbRWNQNSq4I2SV8Oo7MUNFTjmLFGd8UA9h9OMHWdUgKSd3nv6fOnskWVfZOuYKQuVw4hwZtkMKUfI/amVixhiABNGhIkZfv/CxnFq8yKiFXrgwFpE6C0uCHDGMAVvRqtmZFSAhKOei/d9HT+s9VpQNfhBvAp70Ms7gYiT1OpB7QSgJIR6r2J0tDpF/lBZ/+ipQ70SsuA1EtJi+zIY8YklN/ZomMEMQtKCUjiuu6Ffn86+1clEsqXFwOZ1J32BHEWDUVQlF64lNqxhOrV2zMFBQcKpxPU1T9M/KdnQTg3nWQGjivJ08xvGJBmqq1zXvJsqgulesNY4aYZUEpLIOBT+vZ/pniPXvJIupARkT9Sehk1yQ4D0iSh9c5GXmcEyl9S0jEyVvXTSCil6OipP/h7QSxr3evBfSbvsNW7RvSxx4DUR0dTrRgdGfWGUnpBS346veIJA+qDEAScda4v40Xavsejx233yI6pFVopMwakVcqrzNeoMWNt7siRUpqAifZdEOqDI7nz3GDB2U5iuKC7FM+dSQ2Dguh81+n9/qleD4JFRgZkbc3Pnr+3CkZpY3phofuJb880eiLs/65lNDcPSNExpc2YMxdLvmufcd8mvz2VtY9XLELapy5q9ITmwAOg/PkqA8eMv3AiHECYS5/izLj0nHTIeVeC5yAhfuXXgVAfnCk9EUxsUKff6FXFMSK3ZW4yIC2TXnnG8jqjH2Xla3Amno6oBGOFt9IrzM1Peg6C+DspipTSE3gkAaGwN2XgMz/W+Jy3ckXi90sGpM3rNgJjSbR7UzUXS7pfFKkT+azC/6tqS34a/aTnAKckUlIf3HWH+AtOk+SMiZsMOyWhubw2McCAtElFXM2NyKmNQhA4zI6MIN7nSWbZ5OrkyZkIh9uTeJDjrnSsKVJK64yeet1e7fHgwadsLLVtXGNA2qYqfu5I5NSGdITKfBi5pP8lGaUv1iaNBGVCQtKXFKUdOMcv36OUJnQ8dfsHUXqu4Y1/PFVYmz32e3Ye0pZtIBIZC0DgND0ywvscySqbolQYqfva7GTqZioUDiA8QAhAKUAFwJPW/QIfEnt1e0z9xcFK/YiX71iEtFlNRiKj1E01H0aS8D8k0/eKGkm2v4IGtAy3gne0J5zjChX9C891wDe3R/kYjpq84ykNA9JGtWkpjEh4mmT5ptpIjmvSFQakTard2gkc95MkMzDNJlJc024wIG1Q/dHegaOby9I1FdT5BMkOva6bTWZIkwIMSE3yaU8cWWcsre12OO05VbEgwQjnoyQrNF1328ygagUYkKql054wsh1OOulv+g4cUO4Rki3O0F4KZkFPBWwJ5M5XkoYiXJoTLMG6wS9ihFX3m+gpdFVb8sl3aUOc9GPydjhQ7iGSLb5jZPmYbXUK2A7I3dMSboLg2yEVh4qAvwDrh0zC8HiCki6FC+kofyDCdBidj5DsEIuM6ngxPJWtgNw7LXmAECrZRqRLjCLn7qjgQ6AAawa7cTOZ+NPj1IYLY1QGlsIocn8gw8S3jCobs6tdAdsAuWtq8kAaKtnKOSudLI+UT4LSX4CcIW5kxzKUkW6qdITK/DEjm8DRTosJFmwB5N5p9bLDwfx1P7vmoUrhZSgLkTPEFZtQ0vWoBw4XLZlNpdyDJFucZUJ7YlloVMByIHe9UXc4/JfXVO6mVlemSKRcP8SNEbEUKS2GkU3gaITEzOSWArn39fSbhcClz5XAWCFKrI0p6RakI4wfrDjPyGZTzURJn7wsA3L3PxqMEAMXV9fUTa0pUvouY/XQybjZzrOvDEZ9Gum1ZMUSIGUYfRdXX20CR6n4kUi5YfAkDLMjlHQNGsCJs5acZwT3B5LFZlOVtiU7fWc6kBKMNHhxdTTd1NoiZcYU/MpOokbGjOctgvH3JEt82056MF+UK2AqkLteTehHg76dWiJj1aJFJnrWDZ2M4cqLbdyXFkdGBqNxVWuKZVOB3PFawnUuV/r34SunoejGMoUSRJZE1g2dZC2UDEaFFcY+q1YBU4GUvNj7VocBRPBtMwLKYAE2DZ6MDCvqOzKBc86SbipbZ7Siyg3J03Qgy6Hs2IcIpbuNgNJfgI1DJyPLELWqMUpzUB8U0phR1cvFqn2VzzOyjeKq9bNhQkuAlHTYM6Ndd44G9hsBZaAQG4ZMQrYZetOVSIfHsnVGtgPHjEo2MQ/LgCyPlO37EMFvSKQMFGHDkBeNhTLSTZUio/pnxNVUNouMalSLiTSWAikplPtOx74Ile4S/Kejf1mpBonldcpibB7y/zDUiJqgW5GGEH60CEYWGY2oVBvYtBzIylAa0n01AMrIOuMlK97aADCeZGGODdoOc8EABWwBpFSufTM7DhKFks3h0jOyT9Jlu9KPdPEuOPz8wc8ohNA7UspLGy5ckF0w/XAxRpFsLImi+OzTGFNANyBzp7cfd+XCV5OEIB7LeAn/VKND7rQWjf3F391MKXLcwBW/E8QBT0dP/a5PUQSHBfIP8Lzrl+cla8vrp1MiGm8eoDloBOAHi2AcTbKxuLayst/HtgK6ALlvZtvRwaJvFko7cKSnqn2XcWvWVHyitzR7p7cf5XDXX+C7tMPFu3/5lkRN+UX2vm4c7MYwNUe36Fo0kfemWhIZ2bUberclu9rTDGTuzOvHhIqOza+8HU7w+6ivAL/Lmorlehf84CtdvUJqnRn+S1vHqIKyEFsudEdmNFfcWwzjwyQ7NFNvHZk9eyqgCci9Mzo8EC4+Pudqe1PDfp8YKMJtmS/jYyOKvn/2wL/5Lm2bqAbKYBE2ne+GbCVQ0jVoBhdOWxIZifMBkhmaa4R+zKY9FVANZO7MTmNCJXnzazrPGPb5woES3J35EpYaUfz9czMX+85vvEsVlAVYP3gyhtXYzd2AFuBwyhIY4ZxAskKzjdCN2bSvAqqA3Duj7QPh0m/mKDlcLEEZLME9aid6apJu/7TuqUhJyQ8WbOEqbqlTKrU0pgzWAKWlkRHO8SQrxJY2lFZmHH0XNZD7ZnYcHSw6Ik/gKIVAgjJUjAlDX8Y8vbXbO6PTyFBR3ofRRknJDxnKYmweXGXzAF2JpkjAGUsiI3WOI9mhd/XWidmLDQWiAjJ35g3jQkVHZ0cDY4UMYZ8vFCjBaL27r1tnNk9LEPl8wX+SKP0D8bOqoT4E8rF78GT0k/6/5FN0TKqDPFPXGKWM5bc2+PtIljA/NpoO89IIBRQDmTuz/bhQyVezlXRTq3PUd8l3jAf6D5qCAj0Ls3/eiM3+i2sGX+1ZbUX5UB8EHw7VbeT4Y4e24Q3WREZ+LMkWFijyl30UtwooAnLfjOvHB4uPzVITGSsr5y/0nR3yAprqrWbumx1vC5UeWcq5olubrPBDFCiSUxPQqV2BubtvKiKjyI8hw4T39NaF2Ys9BWoFMvfN1neFSk8s1gqjJI0UIYdOwQ16y7RjSkJ/iL7tasaRP8HY8Qog6O1ZLfakbiqD0WTR7Z1drUDue6f/i4H8Hc+raexVi156wbc/62X00FuSHS95syCUrY/WR8thJPwYkskio97tIZbt1QqkVLi8JXcuLPr2g9HRNviqwvh+9H07dDLa6i3Yzlfq3I5w0ZJouqyWw8gio97NIC7sKQJSKunhj8bMLTm+4D4tUIZKfYUoQ/OBL6NET/V2v95htug/Pk7ppI7lMFL+HpItLNJTA2YrPhRQDKQcKT+6/72i43PvUQtl5Ha4zKGTkKOXfHkzOib5eVdBuPSAQ8myh/Uwgp3a0Kvy49BOVEBGIuWikuML7lYFJfWh7BxWZ76m38XGe/7RqHf4yvk9SvxhMMZhC46zIkUNpBwpP3lgcdHRd+9SczYxfMXnD5SiV+ZLyNOq5cFXGnqD7pQDgv/rtrXd82o9jKybqrW+r4X0qoCUhDny6YQPCo/MGqUGytKzvn11SnFTr1kIaRF516v1RouB/IW1RUfLYQR/L8kSFmopK0t7bSigGsifQRnlYWFQH0q/x7Ksf+B3amXe+XLCAAi+bbXNrFoOI5tNVVvF12Q6TUCWQzn+g8Ijs0fVFqV+oS71wXceHw6ZijsIELlBR1kd7HzJezfEskW1bVawHEbKtsMpq1H2VYUCmoEsh/L3HxQeeUsdlD/iBOXw3xmTcKC2atnzsrdRmLrnQLj869r+ADAYa1PLtP3GAAAF6klEQVST/d6OCugCpNYxpRiWT1x8QYHJSMSmSx1RUHGaP3cq6gcD/HDiTLtHDP6YxbvgtP8EDm4j2fiXHSuc+WRvBXQDUirml58+8EHxkXejj5QRjaR1Sir8+wrIn8I4AWrrnlZ8a3lkFDGSDMNH9q525p1dFdAVSDlSfvbQksK8t2+vrUtphCCWw8j2phpRrdeUTd2BlKH8ZPySwqOzTYXSchjZ0sY1BY5RhTUESMnZvE/GLS46OkfV5oFoC2s5jIS/g2QKhlzkFa0W7PvYVsAwIGUoP75/UdGxuXer2TygVFbLYWRjRqVVxb5ToIChQFIKkvfRvYuKv3ov6qsaFfgOBqMSldg3saSAoUBKQkhQHlvxyJKCw9Nv03Oix3IY2QROLLXzmPHVcCBlKCeCO9pt/KLCo7Pv1KP7ajmMlK0zxkwLjzFHTQHy31BOWFB4dNZoLVBaDiPBSJLJ1hljrJ3HjLumAVkBZV6n0XOLv140Rg2U1sPIZlNjpmXHqKOmAlkxpjzy8f0Li47PjeqQs+UwiriDDDPmjZIYbTvMbQMUMB3ICiiPfjp+sTymVHB0y3IY2ZjRgKbHTF5NAUuArHAk76Oxi4qOz69xndJyGIHbSRY+ZM2HKWCGApYCKRUw76Ox84q/mj/2apvHLYeR8qNItrDEjIpgeTAFJAUsB1Jy4shHY98rPD7/Z7fZ2QDGO0m28E/WTJgCZipgCyClAh/9eOz8gmPz5WfKGYxmNgGWl50UsA2QcqRccvtbhd8ufSilfho6WfXWBsffSTJYZLRTI72WfLEVkJLw59bdt7WxY95Ai95nvItkCR9cSw2AldVeCtgKyLINjXskOi7vM10i6RUqyrMxo+nCswyrKmAbIOkaV2c4gofhcJtbSwxGc/VmudWogC2ApOvQBRwOWQIj4e8mmcL7rJ0wBeyggOVA0vXoCh4HLRkzsleo7NAGmQ+VFLAUSEthhPNekhVi1/szHGylgGVA0hx0h4j91nRTnWNIZug9W9UEc4YpYNVOHbre2RsktMcSGFlkZA3fxgqYHiFpjrMXxNBea2B03UWygmyd0cYN8lp3zVQg6QZnH3Ch3dZM4LjuJNlBtjf1Wm/xNi+/aUDSDY7+QHg7i4w2bxHMPUsVMAVIutEzBNS/yRIYOed9JCM031KVWeZMAYUKGA4k3ZT2GwgFyyyBEWzMqLAdsM9sooDhQIZ298nkudQNpHQtTBs7StvhONedJIONGW3SzpgbChUwHEjJD+HLZ/9IfF+8ZgqU8t5U1yiSHWQn/RU2AvaZfRQwBUipuMEjf/6Do2zvDEOhlGBkD9/Yp3UxT6JWwDQg5UiZ9/yj5EruG4ZAybqpUVc+S2A/BUwFUobyyP8+Tsr2/ENXKBmM9mtZzCNVCpgOZDmUf32clO3SB8pyGEeTjOBiVQqwREwBGylgCZDl3de/PEau7H5dU6SUx4yeMSTTzzaK26hRMVfUK2AZkPJET96fH3Fc2fumKijlyOi5j2T42aK/+vpnKW2mgKVASlqEjzw7jiv7YnZUULLIaLNmxNzRSwHLgZS7r4f/5yHiP/CWIijlyOi9j2SUscioVytgdmyjgC2AlCPl4ace4PyH5tQIpQQjnzyBDC2ZbRsFmSNMAR0VsA2QcqT88ukJxHfwnatCyWDUsdqZKbsqYCsg5Uj55VPjOd+hWT+DUu6m1nuEZOTPsKuQzC+mgB4K2A7I8u7r46M5/9GFMpQiAC79EZJxicGoR40zG7ZWwJZARiZ6HiNlW18jwQtPk8EnptlaReYcU0AnBWwLpFQ+mntLc9JrxWmdysrMMAVsr4CtgbS9esxBpoDOCjAgdRaUmWMKaFGAAalFPZaWKaCzAgxInQVl5pgCWhRgQGpRj6VlCuisAANSZ0GZOaaAFgUYkFrUY2mZAjorwIDUWVBmjimgRQEGpBb1WFqmgM4KMCB1FpSZYwpoUYABqUU9lpYpoLMCDEidBWXmmAJaFGBAalGPpWUK6KwAA1JnQZk5poAWBf4/m9O5sDjn0ogAAAAASUVORK5CYII=;rotation=-180;" parent="1" vertex="1">
          <mxGeometry x="-11.26" y="170" width="31.26" height="30.31" as="geometry" />
        </mxCell>
        <mxCell id="cfdrwB-0t9WhW7MWjaBJ-48" value="" style="edgeStyle=entityRelationEdgeStyle;fontSize=12;html=1;endArrow=ERoneToMany;rounded=0;exitX=-0.01;exitY=0.104;exitDx=0;exitDy=0;exitPerimeter=0;entryX=1.007;entryY=0.426;entryDx=0;entryDy=0;entryPerimeter=0;" parent="1" source="cfdrwB-0t9WhW7MWjaBJ-33" target="cfdrwB-0t9WhW7MWjaBJ-27" edge="1">
          <mxGeometry width="100" height="100" relative="1" as="geometry">
            <mxPoint x="690" y="330" as="sourcePoint" />
            <mxPoint x="780" y="300" as="targetPoint" />
          </mxGeometry>
        </mxCell>
        <mxCell id="cfdrwB-0t9WhW7MWjaBJ-49" value="" style="edgeStyle=entityRelationEdgeStyle;fontSize=12;html=1;endArrow=ERone;endFill=1;rounded=0;exitX=0.014;exitY=0.103;exitDx=0;exitDy=0;exitPerimeter=0;entryX=1.005;entryY=0.194;entryDx=0;entryDy=0;entryPerimeter=0;" parent="1" source="cfdrwB-0t9WhW7MWjaBJ-25" target="cfdrwB-0t9WhW7MWjaBJ-41" edge="1">
          <mxGeometry width="100" height="100" relative="1" as="geometry">
            <mxPoint x="-80" y="199" as="sourcePoint" />
            <mxPoint x="-110" y="110" as="targetPoint" />
            <Array as="points">
              <mxPoint x="-90" y="180" />
              <mxPoint y="190" />
              <mxPoint x="-50" y="180" />
              <mxPoint x="-41" y="190" />
              <mxPoint x="-60" y="180" />
              <mxPoint x="-80" y="199" />
              <mxPoint x="-70" y="190" />
              <mxPoint x="-110" y="190" />
              <mxPoint x="-80" y="190" />
            </Array>
          </mxGeometry>
        </mxCell>
        <mxCell id="cfdrwB-0t9WhW7MWjaBJ-50" value="&lt;span style=&quot;font-size: 20px;&quot;&gt;Контакты&lt;/span&gt;" style="swimlane;childLayout=stackLayout;horizontal=1;startSize=50;horizontalStack=0;rounded=1;fontSize=14;fontStyle=0;strokeWidth=2;resizeParent=0;resizeLast=1;shadow=0;dashed=0;align=center;arcSize=26;whiteSpace=wrap;html=1;fillColor=#EFE6EB;strokeColor=#9673a6;gradientColor=none;" parent="1" vertex="1">
          <mxGeometry x="-540" y="260" width="170" height="239.99" as="geometry" />
        </mxCell>
        <mxCell id="cfdrwB-0t9WhW7MWjaBJ-51" value="&lt;span style=&quot;font-size: 20px; background-color: rgb(153, 255, 51);&quot;&gt;Код покупателя&lt;/span&gt;&lt;div&gt;&lt;span style=&quot;font-size: 20px;&quot;&gt;Номер телефона&lt;/span&gt;&lt;/div&gt;&lt;div&gt;&lt;span style=&quot;font-size: 20px;&quot;&gt;Фамилия&lt;/span&gt;&lt;/div&gt;&lt;div&gt;&lt;span style=&quot;font-size: 20px;&quot;&gt;Имя&lt;/span&gt;&lt;/div&gt;&lt;div&gt;&lt;span style=&quot;font-size: 20px;&quot;&gt;Отчество&lt;/span&gt;&lt;/div&gt;&lt;div&gt;&lt;span style=&quot;font-size: 20px;&quot;&gt;Пол&lt;/span&gt;&lt;/div&gt;&lt;div&gt;&lt;span style=&quot;font-size: 20px;&quot;&gt;Дата рождения&lt;/span&gt;&lt;/div&gt;" style="align=left;strokeColor=none;fillColor=none;spacingLeft=4;fontSize=12;verticalAlign=top;resizable=0;rotatable=0;part=1;html=1;" parent="cfdrwB-0t9WhW7MWjaBJ-50" vertex="1">
          <mxGeometry y="50" width="170" height="189.99" as="geometry" />
        </mxCell>
        <mxCell id="cfdrwB-0t9WhW7MWjaBJ-52" value="" style="edgeStyle=entityRelationEdgeStyle;fontSize=12;html=1;endArrow=ERone;endFill=1;rounded=0;exitX=0.03;exitY=0.141;exitDx=0;exitDy=0;exitPerimeter=0;entryX=1.007;entryY=0.147;entryDx=0;entryDy=0;entryPerimeter=0;" parent="1" source="cfdrwB-0t9WhW7MWjaBJ-25" target="cfdrwB-0t9WhW7MWjaBJ-51" edge="1">
          <mxGeometry width="100" height="100" relative="1" as="geometry">
            <mxPoint x="-0.6399999999998727" y="239.99999999999994" as="sourcePoint" />
            <mxPoint x="-100" y="448.94" as="targetPoint" />
          </mxGeometry>
        </mxCell>
        <mxCell id="cfdrwB-0t9WhW7MWjaBJ-53" value="&lt;span style=&quot;font-size: 20px;&quot;&gt;Адрес&lt;/span&gt;" style="swimlane;childLayout=stackLayout;horizontal=1;startSize=50;horizontalStack=0;rounded=1;fontSize=14;fontStyle=0;strokeWidth=2;resizeParent=0;resizeLast=1;shadow=0;dashed=0;align=center;arcSize=4;whiteSpace=wrap;html=1;fillColor=#EFE6EB;strokeColor=#9673a6;gradientColor=none;" parent="1" vertex="1">
          <mxGeometry x="-330" y="360" width="160" height="230" as="geometry" />
        </mxCell>
        <mxCell id="cfdrwB-0t9WhW7MWjaBJ-54" value="&lt;span style=&quot;font-size: 20px; background-color: rgb(153, 255, 51);&quot;&gt;Код покупателя&lt;/span&gt;&lt;div&gt;&lt;span style=&quot;font-size: 20px;&quot;&gt;Город&lt;/span&gt;&lt;/div&gt;&lt;div&gt;&lt;span style=&quot;font-size: 20px;&quot;&gt;улица&lt;/span&gt;&lt;/div&gt;&lt;div&gt;&lt;span style=&quot;font-size: 20px;&quot;&gt;квартира&lt;br&gt;&lt;/span&gt;&lt;div&gt;&lt;br&gt;&lt;/div&gt;&lt;/div&gt;" style="align=left;strokeColor=none;fillColor=none;spacingLeft=4;fontSize=12;verticalAlign=top;resizable=0;rotatable=0;part=1;html=1;" parent="cfdrwB-0t9WhW7MWjaBJ-53" vertex="1">
          <mxGeometry y="50" width="160" height="180" as="geometry" />
        </mxCell>
        <mxCell id="cfdrwB-0t9WhW7MWjaBJ-55" value="" style="edgeStyle=entityRelationEdgeStyle;fontSize=12;html=1;endArrow=ERone;endFill=1;rounded=0;exitX=-0.004;exitY=0.183;exitDx=0;exitDy=0;exitPerimeter=0;entryX=1.001;entryY=0.079;entryDx=0;entryDy=0;entryPerimeter=0;" parent="1" source="cfdrwB-0t9WhW7MWjaBJ-25" target="cfdrwB-0t9WhW7MWjaBJ-54" edge="1">
          <mxGeometry width="100" height="100" relative="1" as="geometry">
            <mxPoint x="330" y="520" as="sourcePoint" />
            <mxPoint x="430" y="420" as="targetPoint" />
          </mxGeometry>
        </mxCell>
        <mxCell id="cfdrwB-0t9WhW7MWjaBJ-58" value="&lt;span style=&quot;font-size: 20px;&quot;&gt;Авторы&lt;/span&gt;" style="swimlane;childLayout=stackLayout;horizontal=1;startSize=50;horizontalStack=0;rounded=1;fontSize=14;fontStyle=0;strokeWidth=2;resizeParent=0;resizeLast=1;shadow=0;dashed=0;align=center;arcSize=4;whiteSpace=wrap;html=1;fillColor=#EFE6EB;strokeColor=#9673a6;" parent="1" vertex="1">
          <mxGeometry x="1380" y="200.31" width="360" height="109.69" as="geometry" />
        </mxCell>
        <mxCell id="cfdrwB-0t9WhW7MWjaBJ-59" value="&lt;span style=&quot;font-size: 20px; background-color: rgb(102, 255, 255);&quot;&gt;Уникальный номер книжного издания&lt;/span&gt;&lt;div&gt;&lt;span style=&quot;font-size: 20px;&quot;&gt;Писатель(-и)&lt;/span&gt;&lt;/div&gt;&lt;div&gt;&lt;span style=&quot;font-size: 20px;&quot;&gt;&lt;br&gt;&lt;/span&gt;&lt;/div&gt;&lt;div&gt;&lt;span style=&quot;font-size: 20px;&quot;&gt;&lt;br&gt;&lt;/span&gt;&lt;div&gt;&lt;br&gt;&lt;/div&gt;&lt;/div&gt;" style="align=left;strokeColor=none;fillColor=none;spacingLeft=4;fontSize=12;verticalAlign=top;resizable=0;rotatable=0;part=1;html=1;" parent="cfdrwB-0t9WhW7MWjaBJ-58" vertex="1">
          <mxGeometry y="50" width="360" height="59.69" as="geometry" />
        </mxCell>
        <mxCell id="cfdrwB-0t9WhW7MWjaBJ-60" value="" style="edgeStyle=entityRelationEdgeStyle;fontSize=12;html=1;endArrow=ERone;endFill=1;rounded=0;exitX=1.011;exitY=0.122;exitDx=0;exitDy=0;exitPerimeter=0;entryX=0;entryY=0.25;entryDx=0;entryDy=0;" parent="1" source="cfdrwB-0t9WhW7MWjaBJ-33" target="cfdrwB-0t9WhW7MWjaBJ-59" edge="1">
          <mxGeometry width="100" height="100" relative="1" as="geometry">
            <mxPoint x="1280" y="200" as="sourcePoint" />
            <mxPoint x="1380" y="100" as="targetPoint" />
          </mxGeometry>
        </mxCell>
        <mxCell id="cfdrwB-0t9WhW7MWjaBJ-61" value="&lt;span style=&quot;font-size: 20px;&quot;&gt;Редакторы&lt;/span&gt;" style="swimlane;childLayout=stackLayout;horizontal=1;startSize=50;horizontalStack=0;rounded=1;fontSize=14;fontStyle=0;strokeWidth=2;resizeParent=0;resizeLast=1;shadow=0;dashed=0;align=center;arcSize=4;whiteSpace=wrap;html=1;fillColor=#EFE6EB;strokeColor=#9673a6;" parent="1" vertex="1">
          <mxGeometry x="467" y="-29.689999999999998" width="360" height="109.69" as="geometry" />
        </mxCell>
        <mxCell id="cfdrwB-0t9WhW7MWjaBJ-62" value="&lt;span style=&quot;font-size: 20px; background-color: rgb(102, 255, 255);&quot;&gt;Уникальный номер книжного издания&lt;/span&gt;&lt;div&gt;&lt;span style=&quot;font-size: 20px;&quot;&gt;Редактор(-ы)&lt;/span&gt;&lt;/div&gt;&lt;div&gt;&lt;span style=&quot;font-size: 20px;&quot;&gt;&lt;br&gt;&lt;/span&gt;&lt;/div&gt;&lt;div&gt;&lt;span style=&quot;font-size: 20px;&quot;&gt;&lt;br&gt;&lt;/span&gt;&lt;div&gt;&lt;br&gt;&lt;/div&gt;&lt;/div&gt;" style="align=left;strokeColor=none;fillColor=none;spacingLeft=4;fontSize=12;verticalAlign=top;resizable=0;rotatable=0;part=1;html=1;" parent="cfdrwB-0t9WhW7MWjaBJ-61" vertex="1">
          <mxGeometry y="50" width="360" height="59.69" as="geometry" />
        </mxCell>
        <mxCell id="cfdrwB-0t9WhW7MWjaBJ-63" value="&lt;span style=&quot;font-size: 20px;&quot;&gt;Переводчики&lt;/span&gt;" style="swimlane;childLayout=stackLayout;horizontal=1;startSize=50;horizontalStack=0;rounded=1;fontSize=14;fontStyle=0;strokeWidth=2;resizeParent=0;resizeLast=1;shadow=0;dashed=0;align=center;arcSize=4;whiteSpace=wrap;html=1;fillColor=#EFE6EB;strokeColor=#9673a6;" parent="1" vertex="1">
          <mxGeometry x="450" y="454.01" width="360" height="130" as="geometry" />
        </mxCell>
        <mxCell id="cfdrwB-0t9WhW7MWjaBJ-64" value="&lt;span style=&quot;font-size: 20px; background-color: rgb(102, 255, 255);&quot;&gt;Уникальный номер книжного издания&lt;/span&gt;&lt;div&gt;&lt;span style=&quot;font-size: 20px;&quot;&gt;Переводчик(-и)&lt;/span&gt;&lt;/div&gt;&lt;div&gt;&lt;span style=&quot;font-size: 20px;&quot;&gt;Альтернативное название книги&lt;/span&gt;&lt;span style=&quot;font-size: 20px;&quot;&gt;&lt;br&gt;&lt;/span&gt;&lt;/div&gt;&lt;div&gt;&lt;span style=&quot;font-size: 20px;&quot;&gt;&lt;br&gt;&lt;/span&gt;&lt;/div&gt;&lt;div&gt;&lt;span style=&quot;font-size: 20px;&quot;&gt;&lt;br&gt;&lt;/span&gt;&lt;div&gt;&lt;br&gt;&lt;/div&gt;&lt;/div&gt;" style="align=left;strokeColor=none;fillColor=none;spacingLeft=4;fontSize=12;verticalAlign=top;resizable=0;rotatable=0;part=1;html=1;" parent="cfdrwB-0t9WhW7MWjaBJ-63" vertex="1">
          <mxGeometry y="50" width="360" height="80" as="geometry" />
        </mxCell>
        <mxCell id="cfdrwB-0t9WhW7MWjaBJ-65" value="" style="edgeStyle=entityRelationEdgeStyle;fontSize=12;html=1;endArrow=ERone;endFill=1;rounded=0;exitX=0;exitY=0.096;exitDx=0;exitDy=0;exitPerimeter=0;entryX=1;entryY=0.25;entryDx=0;entryDy=0;" parent="1" source="cfdrwB-0t9WhW7MWjaBJ-33" target="cfdrwB-0t9WhW7MWjaBJ-64" edge="1">
          <mxGeometry width="100" height="100" relative="1" as="geometry">
            <mxPoint x="780" y="400" as="sourcePoint" />
            <mxPoint x="830" y="520" as="targetPoint" />
          </mxGeometry>
        </mxCell>
        <mxCell id="cfdrwB-0t9WhW7MWjaBJ-68" value="" style="edgeStyle=entityRelationEdgeStyle;fontSize=12;html=1;endArrow=ERone;endFill=1;rounded=0;exitX=-0.002;exitY=0.119;exitDx=0;exitDy=0;exitPerimeter=0;entryX=1;entryY=0.25;entryDx=0;entryDy=0;" parent="1" source="cfdrwB-0t9WhW7MWjaBJ-33" target="cfdrwB-0t9WhW7MWjaBJ-62" edge="1">
          <mxGeometry width="100" height="100" relative="1" as="geometry">
            <mxPoint x="971.4399999999996" y="266.20000000000033" as="sourcePoint" />
            <mxPoint x="500" y="10.002500000000339" as="targetPoint" />
          </mxGeometry>
        </mxCell>
        <mxCell id="cfdrwB-0t9WhW7MWjaBJ-72" value="&lt;span style=&quot;font-size: 20px;&quot;&gt;Печатное издательство&lt;/span&gt;" style="swimlane;childLayout=stackLayout;horizontal=1;startSize=50;horizontalStack=0;rounded=1;fontSize=14;fontStyle=0;strokeWidth=2;resizeParent=0;resizeLast=1;shadow=0;dashed=0;align=center;arcSize=4;whiteSpace=wrap;html=1;fillColor=#CDA2BE;strokeColor=#9673a6;" parent="1" vertex="1">
          <mxGeometry x="900" y="420" width="360" height="109.69" as="geometry" />
        </mxCell>
        <mxCell id="cfdrwB-0t9WhW7MWjaBJ-73" value="&lt;span style=&quot;font-size: 20px; background-color: rgb(255, 143, 240);&quot;&gt;Код издательства&lt;/span&gt;&lt;div&gt;&lt;span style=&quot;font-size: 20px;&quot;&gt;Название издательства&lt;/span&gt;&lt;/div&gt;" style="align=left;strokeColor=none;fillColor=none;spacingLeft=4;fontSize=12;verticalAlign=top;resizable=0;rotatable=0;part=1;html=1;" parent="cfdrwB-0t9WhW7MWjaBJ-72" vertex="1">
          <mxGeometry y="50" width="360" height="59.69" as="geometry" />
        </mxCell>
        <mxCell id="znCDfpoOOdXMXpQ7IVTM-1" value="&lt;font style=&quot;font-size: 20px;&quot;&gt;Склад&lt;/font&gt;" style="swimlane;childLayout=stackLayout;horizontal=1;startSize=50;horizontalStack=0;rounded=1;fontSize=14;fontStyle=0;strokeWidth=2;resizeParent=0;resizeLast=1;shadow=0;dashed=0;align=center;arcSize=4;whiteSpace=wrap;html=1;fillColor=#CDA2BE;strokeColor=#9673a6;" vertex="1" parent="1">
          <mxGeometry x="1300" y="710" width="290" height="150" as="geometry" />
        </mxCell>
        <mxCell id="znCDfpoOOdXMXpQ7IVTM-2" value="&lt;div&gt;&lt;span style=&quot;font-size: 20px; background-color: rgb(255, 138, 20);&quot;&gt;Номер склада&lt;/span&gt;&lt;/div&gt;&lt;div&gt;&lt;span style=&quot;font-size: 20px;&quot;&gt;Расположение склада&lt;/span&gt;&lt;/div&gt;&lt;div&gt;&lt;br&gt;&lt;/div&gt;" style="align=left;strokeColor=none;fillColor=none;spacingLeft=4;fontSize=12;verticalAlign=top;resizable=0;rotatable=0;part=1;html=1;" vertex="1" parent="znCDfpoOOdXMXpQ7IVTM-1">
          <mxGeometry y="50" width="290" height="100" as="geometry" />
        </mxCell>
        <mxCell id="znCDfpoOOdXMXpQ7IVTM-3" value="&lt;font style=&quot;font-size: 25px;&quot;&gt;Справочник&lt;/font&gt;" style="text;html=1;align=center;verticalAlign=middle;whiteSpace=wrap;rounded=0;" vertex="1" parent="1">
          <mxGeometry x="617" y="-70" width="60" height="30" as="geometry" />
        </mxCell>
        <mxCell id="znCDfpoOOdXMXpQ7IVTM-4" value="&lt;font style=&quot;font-size: 25px;&quot;&gt;Справочник&lt;/font&gt;" style="text;html=1;align=center;verticalAlign=middle;whiteSpace=wrap;rounded=0;" vertex="1" parent="1">
          <mxGeometry x="1530" y="160.31" width="60" height="30" as="geometry" />
        </mxCell>
        <mxCell id="znCDfpoOOdXMXpQ7IVTM-7" value="&lt;font style=&quot;font-size: 25px;&quot;&gt;Справочник&lt;/font&gt;" style="text;html=1;align=center;verticalAlign=middle;whiteSpace=wrap;rounded=0;" vertex="1" parent="1">
          <mxGeometry x="-490.96" y="230" width="60" height="30" as="geometry" />
        </mxCell>
        <mxCell id="znCDfpoOOdXMXpQ7IVTM-8" value="&lt;font style=&quot;font-size: 25px;&quot;&gt;Справочник&lt;/font&gt;" style="text;html=1;align=center;verticalAlign=middle;whiteSpace=wrap;rounded=0;" vertex="1" parent="1">
          <mxGeometry x="600" y="420" width="60" height="30" as="geometry" />
        </mxCell>
        <mxCell id="znCDfpoOOdXMXpQ7IVTM-13" value="&lt;font style=&quot;font-size: 25px;&quot;&gt;Справочник&lt;/font&gt;" style="text;html=1;align=center;verticalAlign=middle;whiteSpace=wrap;rounded=0;" vertex="1" parent="1">
          <mxGeometry x="-270" y="320" width="60" height="30" as="geometry" />
        </mxCell>
        <mxCell id="znCDfpoOOdXMXpQ7IVTM-14" value="&lt;font style=&quot;font-size: 25px;&quot;&gt;Справочник&lt;/font&gt;" style="text;html=1;align=center;verticalAlign=middle;whiteSpace=wrap;rounded=0;" vertex="1" parent="1">
          <mxGeometry x="-280" width="60" height="30" as="geometry" />
        </mxCell>
        <mxCell id="znCDfpoOOdXMXpQ7IVTM-16" value="&lt;font style=&quot;font-size: 25px;&quot;&gt;Стержневая сущность&lt;/font&gt;" style="text;html=1;align=center;verticalAlign=middle;whiteSpace=wrap;rounded=0;" vertex="1" parent="1">
          <mxGeometry x="868.74" y="80" width="410" height="30" as="geometry" />
        </mxCell>
        <mxCell id="znCDfpoOOdXMXpQ7IVTM-17" value="&lt;font style=&quot;font-size: 25px;&quot;&gt;Стержневая сущность&lt;/font&gt;" style="text;html=1;align=center;verticalAlign=middle;whiteSpace=wrap;rounded=0;" vertex="1" parent="1">
          <mxGeometry x="1240" y="680" width="410" height="30" as="geometry" />
        </mxCell>
        <mxCell id="znCDfpoOOdXMXpQ7IVTM-18" value="&lt;font style=&quot;font-size: 25px;&quot;&gt;Стержневая сущность&lt;/font&gt;" style="text;html=1;align=center;verticalAlign=middle;whiteSpace=wrap;rounded=0;" vertex="1" parent="1">
          <mxGeometry x="-80.96000000000001" y="90" width="410" height="30" as="geometry" />
        </mxCell>
        <mxCell id="znCDfpoOOdXMXpQ7IVTM-19" value="&lt;span style=&quot;font-size: 25px;&quot;&gt;Ассоциативная сущность&lt;/span&gt;" style="text;html=1;align=center;verticalAlign=middle;whiteSpace=wrap;rounded=0;" vertex="1" parent="1">
          <mxGeometry x="390" y="130.31" width="350" height="30" as="geometry" />
        </mxCell>
        <mxCell id="znCDfpoOOdXMXpQ7IVTM-20" value="" style="shape=image;verticalLabelPosition=bottom;labelBackgroundColor=default;verticalAlign=top;aspect=fixed;imageAspect=0;image=data:image/png,iVBORw0KGgoAAAANSUhEUgAAAOQAAADdCAYAAACrIt7oAAAAAXNSR0IArs4c6QAAIABJREFUeF7tnXd8VVW6939r79OSk4QECE16Vbp06SnAHceZudeLioqCCuiMdRy9lrkzwx1fARVlVEAFpAjogGMDpEPoNUgzFAsgCFIM6Zy693o/e+fEiZEk++x+Div/QfZ61rN+a33zrL4I2A9TgClgGwWIbTxhjjAFmAJgQLJGwBSwkQIMSBtVBnOFKcCAZG2AKWAjBRiQNqoM5gpTgAHJ2gBTwEYKMCBtVBnMFaYAA5K1AaaAjRRgQNqoMpgrTAEGJGsDlihAKQi2DqoPj9ggTPmGhCYkEz6xKbgkL4jLJZIEBxAqJQhegnilhKdlF0HDl0D8+ei5KZ8QUEscNzhTBqTBAjPz5QrQnKEOeD03inzdG6mz6e/gSMwkvkMe4j8IEvy2/CPxKmpxkfSuNoCrDcTkIaBc0pegdA0RS/fxZce3k14LT8eLzgzIeKlJG5aDLr2NR4vL/UW+3q+pp+kzXNFnIP4IfBHQZLc5d+3ei4F/f1MBrsMNoe5DEN3ttvFCyUKu5OAq0uefZ2o3Zt8vGJD2rZuY9Ywe7OpFsMUoJLSYhEvTG8iRrwJAJfBFU3IJ1Ih9If1JiK5mH5DgtzMcnervJGTi1WJuNNZN/5YBabrk8ZuhBKLoqzsOzrRpXOEnRIZQbwBrki8CJ00ZDqHuyD0oy3va0SVtWyyByYCMXz5MK5nUNRWanRlJnI0Wc0Wf8qaDWLWklcGsf+dG0ff14+6Ok740TRANGTEgNYjHkgJ0R5frBU/XjXzB4saWg1gNmEKDx0HdrV9w/HhqMuk/zWfnemNA2rl2bO4b3XHDvQidWAApIpnZNY1Wl4h/oeZvfUtL997q7vLWoWhNmPU9A9IspeMoH7qmoRf1uq5H0bp+cCiYIbVL2cMBCA2fBOGSHuE7/n2GXdyq7AcD0o61YmOf6K62TSlp8jUp3eKJKRgrNA0HQJMGIJw+ZqGz1YQxdttgwIC0ceO3m2t0S6OOlPfmyQv5du6i1iac1IV1uhFqNmebU9wwjLSa768tiVm/Z0CapXSM50O3pnaD6Dtg+/GiUp0jGw1Crd/f5xTXDrQLlAxIpRV4DX9Ht3i7Qig7KEsQy5GxmlnYUJsFuc5zKwaT/h9aPgPLgLyGQVNSdLotsQkE4WzcRMarFVoMINR6ca7zbO5gq5dFGJBKWuU1/I24szsl/gPxFRmvFikBhFq9l+v8cdsQ0mvWFauqnAFplfIxkK+wb6SfK/6XO666qdXp/tOYctFe59l9Q6yKlAzIGADDCheFbde/yAWOPW/o0kbFCQ5pC7iAUggoAIVQPlaFBwQ8HEiP/LtcBqPHsGIA4ZZzdjuwbagVEz0MSCtau83zpDmpLSEWnjQExgoIwzKAn4BiFkqwk9weAbEabejnaA+KMeBxJzxoZSicMpRzdznC+4eSdm9WOvdlfMUxII3XOOZyEHf2DhD/Xpeu0UgCUZBP+R+BgFFkBFRv9qYrkQKKV+HCvXBAXz+l2or80Qi3nLXDgR1ZZkZKBmTM4WKsw8LW9pO54FfP6hody2E8igAyya9xXs8S0GV4HYl4CE63S0+7P0HZYuY2B9lj2uYBBqSutRjbxigFh00QdIuM5SAGIWI4GY7NRqlDc5CEYixDCjJ0871ypGzx7nYH2ZptRqRkQBrVSmLQrriz71ri3z1Ml0ZdDuMF+NCa/AamLCPQT/AqUvGkLv5Xrr9wAOHWc3Y6sC3TaCgZkDEIjhEu06XgkY6wLo1ZPiDM7SNZYi8jfK3JJv0EdyIV7+tSjsoZSZsHWr2320k3Gjr7yoA0u8XYND9he7d5XPDgWM0NWYKRJu4jmVdMh7FCWvopslEH6zSXpQqQ0j/DLd7e7SC7DIOSAWlTQMx2i252a7/nVAyAkuSL3NCShmb7XzU/uhxZSMJ6Q6BsOXe3A1sMgZIBaXXLsUH+dKN7BGhgteaZ1XDAj3wk1bamaFaRDYmUcpgMINRmYa6Tbhik95iSAWlW67BxPsKOQee4wNbGmqJJOACE0UXL+qIREtEVyIZX5+5rZAY23PLdHY4fVmfreUqEAWlEK4ghm7pM5sjjxtTPSWbhLXYsOl2O4UjCGk1/cK5WMGlHT4s52x3n84bptfeVAWnHFmSiT3Q9eoNgj6buavnOlmSSgVITXY8qK0O6rxU7elq8vd0h5GXpsc2OARlVtcbfx3RP/y0o2zFIdfSQo2PybJJZMsHu6hgJZbD1vLXuFveN0KoBA1KrgjGeXtzWSiChk5xqIKWxI4c0koHCWJCCLkMmkrAOvLvy6yLaXI/c0eNvPP39hDbj79ZijAGpRb04SEtzQFXDKC1zONt/xw38qmUsSUGXYyi82KA3lDRpOMTEXvc4Ok1apFYPBqRa5eIgHV2ORCSiTPX4UYqOcP+WZAWWx5ocdDlughfbwbv1Y0C697XJ38M8vdCWdJzxnRpN9HNGTe4sjaUK0PXoCII8TUBSNCLZuGBpQVRmTpejD5KwW3UP4Wr5SmuUrebsd7Ue10ONWwxINarFSRq6Fg/Cibc1NciygIfcDFMP8eopP12GfkjGTk0aVHZI6sa72oDWufURvvMrUd+OzoDUs3ZjzBZd75kN3j9OVWMUAxAThpzj+22+LsaK/Qt36TL0QDL2qdKhmigpNP4/H3/lbGPSa1ZRNPowIKNRK86+FTe3+oKIJ29U1RClSODJXMHdtPE38SAL/Rx9kYCduo0ppa5rs6nzXO2fuj8afRiQ0agVZ9+KW1qcIsJ3LdQCCeeNU8jA/c/Fiyx0BfojEVt1mX0VAxDqPw6eoy1IpzdOK9WIAalUqTj8Ttzc5BwRz6nbwyqtvfFNHyWDv58eT9LoCqUUJZv8dbHrhr+PVqoRA1KpUnH4Hd1U/xToj+oipLTk4Wz2JBl8Zlq8SSOvUyYhR1XPocoED677G0Au1yHt3ixWohMDUolKcfoN3ZR+FPTS9aoanjSpw3eezA/+8vl4lId+hjFIwXxV2lSBUqz/8ON8lxlvKNGJAalEpTj9hq4lK+Gkv1LV6CQgnb3f5wfu1bRVzM7S0k/xFurgIVX6VBRMntx59YyzXUlLQiZKV0LX+MOArE2hOP49XYEn4MU0VQ1OAtJ7y1d8nxUd4lgi0M+RhyR3R9VllGajk4aDOBt3Jt0X5NVmhwFZm0Jx/Hu6Ap3hxWG1QFJPd5B+B3hCUOtf/liVka5CS3hwUpVGlaJkOP3hl5xdZzxbmw4MyNoUiuPf0zXwwoVS1Y1NmthJaFqP9P/+chzLBLocK5Di/rXqMkp7XJtO/dbR4am2tdlgQNamUJz/nm4A1bSXlW84gQy9MDueZaLrUAc88sG7eVXlrFiTDBU3ID3mXarJBgNSlcLxk0gTkNL4yN33BNd/d5v4UeTqJaHLsQcp7t5ayhlOHpbt7LFiAwNSi4pxnpZuwHdwuJurLqa0QSChbTPS75vvVduIgYT0YwxEGrZq6d6LdW55nu+1YjIDMgYq3CoX6Qr8Fl58prqhSVEyYeinXL9N/2VVGczKl65DKVxur6r8pOcI0h9b6ez6Ro1jUdZlVaVu/CSiO5AAH66oHkdWSMG3vJ4MPH48fpT5ZUnoahxBgvsGVWWUbqhLf+qYs/PUGtMzIFWpG1+J6Dr44HJ7VJdK6rYm/+oAeq7qGddLIJ9iMurgWVW9CUmjJn8Oo/2LLkLkdzKv+sOAVN0K4ychXYF34cX9qhpahQzhAMSUW57he694OX6U+XlJ6MfohjQcUKWTtJEi9W5wLk890undapeJGJDx2nqiKJfmu3WkvCIn5QW+9Qhnv3Vro8g+Zj6lK5EOD86Bdzuidrpixw7vuY70WHaORcioFby2EtC1uAi3O11TqaUokPyfIkd8HUjPNd9osmXDxPJGCgd+hENF914+0N0dhKS3J/3Wfc2AtGEF28kl3a7bl3alpN59kQ/80IP033jWTmXUwxe6DmVwuROjthXpQRA07EIG7PiSARm1gtdeAtWNrapUEpR1x1zkAxd7kn6r4mp9UrVGFUDy9buRfrsPMSCvPb6iLjFdjoeRhOmqJi2uBmXaPRd4saAP6bVC8RUWUTttYgL6GZKRiEtwud1RZ1vRZRW815OB26tdHmKTOlErG98J6DpcgcudoEsppUiZNuYCj0t9SY+Vqi4O1sUPnYzQNWgFF06o+oMlAZk4AIRHC9Jre7V/oBiQOlVWrJrJmQhHcuOepGfaPlF6aDW0HFkOPV8eLu++XuKFs71Ir/UxHSnpSvwKCVipFkixzihwKGpAeqyqdoM5AzJWSdLo9/63GrUEUv9GnOm3gnCcy52Sm8AVvBROPZ/TxvHNCeJ2N9GYxb+Ty5Hy3ou8eLl3LHdf6TLMRjJU32Mr1H80zHd+k20M0K1hxYmhvVP5kaGg8CHhAS5yoEgUACoAdZv1eKdZnWPvJiZe2QWnji9EyZHy/nxeuNgjVqGka3AWHpV/qKQlobrjD/PdZnetqRmxCBknkCktxu4p6CaIOMBXM0wUAj6ktrptZ7vm+T5HcGOmqu5Zdc7IUI4t4AMXusba7CvNhRMFKFa9xVAu+x3zHDcuqfHiZAak0pYcJ9/lTuP8giC6Qaqft5GgrNf58UvtGh9NJ6VroT+UD1zmfRe6kv4rYmadkq7ESCTgQ9VayFsLb36S772yxmszGZBxApqSYixdCr7pNwhXFx0r2xCDPqR3GYvWaVtBwjovJcrR4r7LvHDpxljpvtKVOA6vu70Snav9xt05k/Tbl8O6rJpUjJ/Eue/AGbqMIOdStqohhn1o2HYgWjXcCwg66yBBWW9cIR883ZX0WXtGZ+u6mqNrcD1cOKo6OlZsLC87lUIGbi9hQOpaPbFrLJoIWVFKGcoW7dCq6WmDoJxQxPvPdLbzmJKuwgEkuruprnnpTp20B9c5ur8zvDYbrMtam0Ix/vutk5HmFOFyuCGESxEkSSh/Hq2GMWTVIosCRcOGQKs21CAoxxfz4qkbSI911Z6CsKoa6CoMhEfD1R2S49L4MfWOR/meS2p9B4UBaVVNG5zvnimuTiSp5c5Q8VfJMn8E8Db5bRHvSalTemZRVEBK6Q2HUtr7euWHLmTA2osGS6PYPF0JN3ich8edqjjRL/6aRU551LJlriIZA1K10vZNuH0SRhLgQ95VJRJSX7nTUUTHyqU0HMq0ey7yvgu2gZKuxna40V/12DESHYW6o7c5blw0SEmLYUAqUSmGvtk1ESmCE4UOT4IhdWs4lPXGl/Fl37W2OlLS1ZgCN57RBKPctQhA8GaNdvTZsFhJMzKk0pRkzL4xRoGdLzdcT3Ahi/DKZlLVeGE8lOPK+OC5tqTPyvNq/NOahq7Eo3DjDc0Xf0kw1rm7kD9/uRG5eVVAiV8MSCUqxdA3O6eglHPAq7ZbqrSoRkMppo70c+HijqTv2pNKfdLjO7oSL8KN5zXDGOmuigk9HuX7f1HrZA4bQ+pReza0seNFFPBupBoNpNwbM3L2VTqu5B1GiejrTfpt22e01JSCYD1ZBQcdobmbGumqypdacYeTSLdDZUr9ZxFSqVIx8t2Wv2GDOxmZZgBpBpRyHt7/XMC5TzwcTcOOprroBrQBh/I7gLjozx5fNS9p40Ny9v2OPuvnReMLAzIatWLg2+1/RgvixSkl2+P0Ko6hkTLS9aPeQT4iBm7HTXtW6nX3K92KNAQTPgF8Q3TpolYIKo8d7/qRP1/QVOnYkXVZ9WqNNrSz+Xn8y52K/zZyYqdqsQ2HUrpoWATEpKxCLlzwJErPLkXRBb90qDqaKpBPbeSjKfU0/oCEf+gLTseoWNkRR6v+ZMCxndH4Jn3LImS0isXI91v+ih2uJNwUV1BGxmby87AON8SErBNc8NybEM5+Dq/zLIIcRaFHRIM65Q/IluTzwCnpDlUHwp7uNKHlX4hwMlPaOWMYiNKunKQBb/J9tz+mpqkwINWoFiNpNv8Ve91J6BV3UFbqGv70drMU6ZxuUP4GgPMCYhmIcBQIlUfW8vGhQdGwclc1ZdQl3nOoKel0JKimmTAg1agWQ2m2voCDTje6xi2Uv+g7V1ru02uCRkl9y29ldhUJhxak3yHV59UYkErEjvFvtr2Aww43Ol8zUFpRX9IY193pP0j/vDVasmdAalEvhtJuewEHHddSpDSzbqQxqeO6sWTI2QVas2VAalUwRtLTieD2N+kphIr3qd5crqaohs++qnFKzzQSjM7rfk8Gn31bD7MMSD1UjAEbZ5am1G3aMJC//yCHUMhch2Uomzcz5pCzuUX5eW4SjHyLP5Gh372mlxsMSL2UtLGdi0uRlJ6OkopdKAxKjZUljRflWdt6Y8mQfM3d1MreMCA11o3dk8tvP6a4y6RjQJW3hVkCZdiH+m3/A22anAfxH9Bvm5qZlfCTjklZZEj+Rr2zZkDqraiN7MkwJrtKQYPkans0rYIy7YbH0K5ZPrjLi+UF/pj5CUsb3m8qJaGz3cig0yeM8JsBaYSqNrBJc5AEiiIQcDVtmLYCSune1/pdniy4Lu2b9xN9y8bDAZdum7qN0L5i256zzXRO+PaPJANhI7KRbDIgjVLWQrvyS79OGUZeSUO3Csq6bUcfaJ6U8xtX+Oxk3ovRtoyWUlRM7OEnoZN9yeCCat911Ku6GZB6KWkTO3I31YtipTBWuG0VlHWaZy/s+M36sf4eaOpJc55EMMTZAkxpBlV6BpI2fg4DT71ECKgZVcyANENlk/KgO5CAoKMENKwoMlZ1ywoopRvSvXWat+n6h/IxmX8VOrhdyAWQZPje06oCRLqmEogimrzCnTv5XLSnSbRWNQNSq4I2SV8Oo7MUNFTjmLFGd8UA9h9OMHWdUgKSd3nv6fOnskWVfZOuYKQuVw4hwZtkMKUfI/amVixhiABNGhIkZfv/CxnFq8yKiFXrgwFpE6C0uCHDGMAVvRqtmZFSAhKOei/d9HT+s9VpQNfhBvAp70Ms7gYiT1OpB7QSgJIR6r2J0tDpF/lBZ/+ipQ70SsuA1EtJi+zIY8YklN/ZomMEMQtKCUjiuu6Ffn86+1clEsqXFwOZ1J32BHEWDUVQlF64lNqxhOrV2zMFBQcKpxPU1T9M/KdnQTg3nWQGjivJ08xvGJBmqq1zXvJsqgulesNY4aYZUEpLIOBT+vZ/pniPXvJIupARkT9Sehk1yQ4D0iSh9c5GXmcEyl9S0jEyVvXTSCil6OipP/h7QSxr3evBfSbvsNW7RvSxx4DUR0dTrRgdGfWGUnpBS346veIJA+qDEAScda4v40Xavsejx233yI6pFVopMwakVcqrzNeoMWNt7siRUpqAifZdEOqDI7nz3GDB2U5iuKC7FM+dSQ2Dguh81+n9/qleD4JFRgZkbc3Pnr+3CkZpY3phofuJb880eiLs/65lNDcPSNExpc2YMxdLvmufcd8mvz2VtY9XLELapy5q9ITmwAOg/PkqA8eMv3AiHECYS5/izLj0nHTIeVeC5yAhfuXXgVAfnCk9EUxsUKff6FXFMSK3ZW4yIC2TXnnG8jqjH2Xla3Amno6oBGOFt9IrzM1Peg6C+DspipTSE3gkAaGwN2XgMz/W+Jy3ckXi90sGpM3rNgJjSbR7UzUXS7pfFKkT+azC/6tqS34a/aTnAKckUlIf3HWH+AtOk+SMiZsMOyWhubw2McCAtElFXM2NyKmNQhA4zI6MIN7nSWbZ5OrkyZkIh9uTeJDjrnSsKVJK64yeet1e7fHgwadsLLVtXGNA2qYqfu5I5NSGdITKfBi5pP8lGaUv1iaNBGVCQtKXFKUdOMcv36OUJnQ8dfsHUXqu4Y1/PFVYmz32e3Ye0pZtIBIZC0DgND0ywvscySqbolQYqfva7GTqZioUDiA8QAhAKUAFwJPW/QIfEnt1e0z9xcFK/YiX71iEtFlNRiKj1E01H0aS8D8k0/eKGkm2v4IGtAy3gne0J5zjChX9C891wDe3R/kYjpq84ykNA9JGtWkpjEh4mmT5ptpIjmvSFQakTard2gkc95MkMzDNJlJc024wIG1Q/dHegaOby9I1FdT5BMkOva6bTWZIkwIMSE3yaU8cWWcsre12OO05VbEgwQjnoyQrNF1328ygagUYkKql054wsh1OOulv+g4cUO4Rki3O0F4KZkFPBWwJ5M5XkoYiXJoTLMG6wS9ihFX3m+gpdFVb8sl3aUOc9GPydjhQ7iGSLb5jZPmYbXUK2A7I3dMSboLg2yEVh4qAvwDrh0zC8HiCki6FC+kofyDCdBidj5DsEIuM6ngxPJWtgNw7LXmAECrZRqRLjCLn7qjgQ6AAawa7cTOZ+NPj1IYLY1QGlsIocn8gw8S3jCobs6tdAdsAuWtq8kAaKtnKOSudLI+UT4LSX4CcIW5kxzKUkW6qdITK/DEjm8DRTosJFmwB5N5p9bLDwfx1P7vmoUrhZSgLkTPEFZtQ0vWoBw4XLZlNpdyDJFucZUJ7YlloVMByIHe9UXc4/JfXVO6mVlemSKRcP8SNEbEUKS2GkU3gaITEzOSWArn39fSbhcClz5XAWCFKrI0p6RakI4wfrDjPyGZTzURJn7wsA3L3PxqMEAMXV9fUTa0pUvouY/XQybjZzrOvDEZ9Gum1ZMUSIGUYfRdXX20CR6n4kUi5YfAkDLMjlHQNGsCJs5acZwT3B5LFZlOVtiU7fWc6kBKMNHhxdTTd1NoiZcYU/MpOokbGjOctgvH3JEt82056MF+UK2AqkLteTehHg76dWiJj1aJFJnrWDZ2M4cqLbdyXFkdGBqNxVWuKZVOB3PFawnUuV/r34SunoejGMoUSRJZE1g2dZC2UDEaFFcY+q1YBU4GUvNj7VocBRPBtMwLKYAE2DZ6MDCvqOzKBc86SbipbZ7Siyg3J03Qgy6Hs2IcIpbuNgNJfgI1DJyPLELWqMUpzUB8U0phR1cvFqn2VzzOyjeKq9bNhQkuAlHTYM6Ndd44G9hsBZaAQG4ZMQrYZetOVSIfHsnVGtgPHjEo2MQ/LgCyPlO37EMFvSKQMFGHDkBeNhTLSTZUio/pnxNVUNouMalSLiTSWAikplPtOx74Ile4S/Kejf1mpBonldcpibB7y/zDUiJqgW5GGEH60CEYWGY2oVBvYtBzIylAa0n01AMrIOuMlK97aADCeZGGODdoOc8EABWwBpFSufTM7DhKFks3h0jOyT9Jlu9KPdPEuOPz8wc8ohNA7UspLGy5ckF0w/XAxRpFsLImi+OzTGFNANyBzp7cfd+XCV5OEIB7LeAn/VKND7rQWjf3F391MKXLcwBW/E8QBT0dP/a5PUQSHBfIP8Lzrl+cla8vrp1MiGm8eoDloBOAHi2AcTbKxuLayst/HtgK6ALlvZtvRwaJvFko7cKSnqn2XcWvWVHyitzR7p7cf5XDXX+C7tMPFu3/5lkRN+UX2vm4c7MYwNUe36Fo0kfemWhIZ2bUberclu9rTDGTuzOvHhIqOza+8HU7w+6ivAL/Lmorlehf84CtdvUJqnRn+S1vHqIKyEFsudEdmNFfcWwzjwyQ7NFNvHZk9eyqgCci9Mzo8EC4+Pudqe1PDfp8YKMJtmS/jYyOKvn/2wL/5Lm2bqAbKYBE2ne+GbCVQ0jVoBhdOWxIZifMBkhmaa4R+zKY9FVANZO7MTmNCJXnzazrPGPb5woES3J35EpYaUfz9czMX+85vvEsVlAVYP3gyhtXYzd2AFuBwyhIY4ZxAskKzjdCN2bSvAqqA3Duj7QPh0m/mKDlcLEEZLME9aid6apJu/7TuqUhJyQ8WbOEqbqlTKrU0pgzWAKWlkRHO8SQrxJY2lFZmHH0XNZD7ZnYcHSw6Ik/gKIVAgjJUjAlDX8Y8vbXbO6PTyFBR3ofRRknJDxnKYmweXGXzAF2JpkjAGUsiI3WOI9mhd/XWidmLDQWiAjJ35g3jQkVHZ0cDY4UMYZ8vFCjBaL27r1tnNk9LEPl8wX+SKP0D8bOqoT4E8rF78GT0k/6/5FN0TKqDPFPXGKWM5bc2+PtIljA/NpoO89IIBRQDmTuz/bhQyVezlXRTq3PUd8l3jAf6D5qCAj0Ls3/eiM3+i2sGX+1ZbUX5UB8EHw7VbeT4Y4e24Q3WREZ+LMkWFijyl30UtwooAnLfjOvHB4uPzVITGSsr5y/0nR3yAprqrWbumx1vC5UeWcq5olubrPBDFCiSUxPQqV2BubtvKiKjyI8hw4T39NaF2Ys9BWoFMvfN1neFSk8s1gqjJI0UIYdOwQ16y7RjSkJ/iL7tasaRP8HY8Qog6O1ZLfakbiqD0WTR7Z1drUDue6f/i4H8Hc+raexVi156wbc/62X00FuSHS95syCUrY/WR8thJPwYkskio97tIZbt1QqkVLi8JXcuLPr2g9HRNviqwvh+9H07dDLa6i3Yzlfq3I5w0ZJouqyWw8gio97NIC7sKQJSKunhj8bMLTm+4D4tUIZKfYUoQ/OBL6NET/V2v95htug/Pk7ppI7lMFL+HpItLNJTA2YrPhRQDKQcKT+6/72i43PvUQtl5Ha4zKGTkKOXfHkzOib5eVdBuPSAQ8myh/Uwgp3a0Kvy49BOVEBGIuWikuML7lYFJfWh7BxWZ76m38XGe/7RqHf4yvk9SvxhMMZhC46zIkUNpBwpP3lgcdHRd+9SczYxfMXnD5SiV+ZLyNOq5cFXGnqD7pQDgv/rtrXd82o9jKybqrW+r4X0qoCUhDny6YQPCo/MGqUGytKzvn11SnFTr1kIaRF516v1RouB/IW1RUfLYQR/L8kSFmopK0t7bSigGsifQRnlYWFQH0q/x7Ksf+B3amXe+XLCAAi+bbXNrFoOI5tNVVvF12Q6TUCWQzn+g8Ijs0fVFqV+oS71wXceHw6ZijsIELlBR1kd7HzJezfEskW1bVawHEbKtsMpq1H2VYUCmoEsh/L3HxQeeUsdlD/iBOXw3xmTcKC2atnzsrdRmLrnQLj869r+ADAYa1PLtP3GAAAF6klEQVST/d6OCugCpNYxpRiWT1x8QYHJSMSmSx1RUHGaP3cq6gcD/HDiTLtHDP6YxbvgtP8EDm4j2fiXHSuc+WRvBXQDUirml58+8EHxkXejj5QRjaR1Sir8+wrIn8I4AWrrnlZ8a3lkFDGSDMNH9q525p1dFdAVSDlSfvbQksK8t2+vrUtphCCWw8j2phpRrdeUTd2BlKH8ZPySwqOzTYXSchjZ0sY1BY5RhTUESMnZvE/GLS46OkfV5oFoC2s5jIS/g2QKhlzkFa0W7PvYVsAwIGUoP75/UdGxuXer2TygVFbLYWRjRqVVxb5ToIChQFIKkvfRvYuKv3ov6qsaFfgOBqMSldg3saSAoUBKQkhQHlvxyJKCw9Nv03Oix3IY2QROLLXzmPHVcCBlKCeCO9pt/KLCo7Pv1KP7ajmMlK0zxkwLjzFHTQHy31BOWFB4dNZoLVBaDiPBSJLJ1hljrJ3HjLumAVkBZV6n0XOLv140Rg2U1sPIZlNjpmXHqKOmAlkxpjzy8f0Li47PjeqQs+UwiriDDDPmjZIYbTvMbQMUMB3ICiiPfjp+sTymVHB0y3IY2ZjRgKbHTF5NAUuArHAk76Oxi4qOz69xndJyGIHbSRY+ZM2HKWCGApYCKRUw76Ox84q/mj/2apvHLYeR8qNItrDEjIpgeTAFJAUsB1Jy4shHY98rPD7/Z7fZ2QDGO0m28E/WTJgCZipgCyClAh/9eOz8gmPz5WfKGYxmNgGWl50UsA2QcqRccvtbhd8ufSilfho6WfXWBsffSTJYZLRTI72WfLEVkJLw59bdt7WxY95Ai95nvItkCR9cSw2AldVeCtgKyLINjXskOi7vM10i6RUqyrMxo+nCswyrKmAbIOkaV2c4gofhcJtbSwxGc/VmudWogC2ApOvQBRwOWQIj4e8mmcL7rJ0wBeyggOVA0vXoCh4HLRkzsleo7NAGmQ+VFLAUSEthhPNekhVi1/szHGylgGVA0hx0h4j91nRTnWNIZug9W9UEc4YpYNVOHbre2RsktMcSGFlkZA3fxgqYHiFpjrMXxNBea2B03UWygmyd0cYN8lp3zVQg6QZnH3Ch3dZM4LjuJNlBtjf1Wm/xNi+/aUDSDY7+QHg7i4w2bxHMPUsVMAVIutEzBNS/yRIYOed9JCM031KVWeZMAYUKGA4k3ZT2GwgFyyyBEWzMqLAdsM9sooDhQIZ298nkudQNpHQtTBs7StvhONedJIONGW3SzpgbChUwHEjJD+HLZ/9IfF+8ZgqU8t5U1yiSHWQn/RU2AvaZfRQwBUipuMEjf/6Do2zvDEOhlGBkD9/Yp3UxT6JWwDQg5UiZ9/yj5EruG4ZAybqpUVc+S2A/BUwFUobyyP8+Tsr2/ENXKBmM9mtZzCNVCpgOZDmUf32clO3SB8pyGEeTjOBiVQqwREwBGylgCZDl3de/PEau7H5dU6SUx4yeMSTTzzaK26hRMVfUK2AZkPJET96fH3Fc2fumKijlyOi5j2T42aK/+vpnKW2mgKVASlqEjzw7jiv7YnZUULLIaLNmxNzRSwHLgZS7r4f/5yHiP/CWIijlyOi9j2SUscioVytgdmyjgC2AlCPl4ace4PyH5tQIpQQjnzyBDC2ZbRsFmSNMAR0VsA2QcqT88ukJxHfwnatCyWDUsdqZKbsqYCsg5Uj55VPjOd+hWT+DUu6m1nuEZOTPsKuQzC+mgB4K2A7I8u7r46M5/9GFMpQiAC79EZJxicGoR40zG7ZWwJZARiZ6HiNlW18jwQtPk8EnptlaReYcU0AnBWwLpFQ+mntLc9JrxWmdysrMMAVsr4CtgbS9esxBpoDOCjAgdRaUmWMKaFGAAalFPZaWKaCzAgxInQVl5pgCWhRgQGpRj6VlCuisAANSZ0GZOaaAFgUYkFrUY2mZAjorwIDUWVBmjimgRQEGpBb1WFqmgM4KMCB1FpSZYwpoUYABqUU9lpYpoLMCDEidBWXmmAJaFGBAalGPpWUK6KwAA1JnQZk5poAWBf4/m9O5sDjn0ogAAAAASUVORK5CYII=;rotation=-180;" vertex="1" parent="1">
          <mxGeometry x="1850" y="440" width="30.96" height="30.01" as="geometry" />
        </mxCell>
        <mxCell id="znCDfpoOOdXMXpQ7IVTM-21" value="&lt;font style=&quot;font-size: 20px;&quot;&gt;Отдел&lt;/font&gt;" style="swimlane;childLayout=stackLayout;horizontal=1;startSize=50;horizontalStack=0;rounded=1;fontSize=14;fontStyle=0;strokeWidth=2;resizeParent=0;resizeLast=1;shadow=0;dashed=0;align=center;arcSize=4;whiteSpace=wrap;html=1;fillColor=#C5B4BE;strokeColor=#9673a6;" vertex="1" parent="1">
          <mxGeometry x="1890" y="360" width="290" height="150" as="geometry" />
        </mxCell>
        <mxCell id="znCDfpoOOdXMXpQ7IVTM-22" value="&lt;div&gt;&lt;span style=&quot;font-size: 20px; background-color: rgb(255, 138, 20);&quot;&gt;Номер склада&lt;/span&gt;&lt;/div&gt;&lt;div&gt;&lt;span style=&quot;font-size: 20px; background-color: rgb(196, 138, 86);&quot;&gt;Код отдела&lt;/span&gt;&lt;/div&gt;&lt;div&gt;&lt;span style=&quot;font-size: 20px;&quot;&gt;Категория книг&lt;/span&gt;&lt;/div&gt;&lt;div&gt;&lt;br&gt;&lt;/div&gt;" style="align=left;strokeColor=none;fillColor=none;spacingLeft=4;fontSize=12;verticalAlign=top;resizable=0;rotatable=0;part=1;html=1;" vertex="1" parent="znCDfpoOOdXMXpQ7IVTM-21">
          <mxGeometry y="50" width="290" height="100" as="geometry" />
        </mxCell>
        <mxCell id="znCDfpoOOdXMXpQ7IVTM-25" value="" style="edgeStyle=entityRelationEdgeStyle;fontSize=12;html=1;endArrow=ERone;endFill=1;rounded=0;exitX=1.007;exitY=0.912;exitDx=0;exitDy=0;exitPerimeter=0;entryX=0;entryY=0.5;entryDx=0;entryDy=0;" edge="1" parent="1" source="cfdrwB-0t9WhW7MWjaBJ-33" target="znCDfpoOOdXMXpQ7IVTM-22">
          <mxGeometry width="100" height="100" relative="1" as="geometry">
            <mxPoint x="1260" y="440" as="sourcePoint" />
            <mxPoint x="1360" y="340" as="targetPoint" />
          </mxGeometry>
        </mxCell>
        <mxCell id="znCDfpoOOdXMXpQ7IVTM-26" value="&lt;span style=&quot;font-size: 25px;&quot;&gt;Ассоциативная сущность&lt;/span&gt;" style="text;html=1;align=center;verticalAlign=middle;whiteSpace=wrap;rounded=0;" vertex="1" parent="1">
          <mxGeometry x="1339.04" y="410" width="350" height="30" as="geometry" />
        </mxCell>
        <mxCell id="znCDfpoOOdXMXpQ7IVTM-28" value="&lt;font style=&quot;font-size: 20px;&quot;&gt;Обращение&lt;/font&gt;" style="swimlane;childLayout=stackLayout;horizontal=1;startSize=50;horizontalStack=0;rounded=1;fontSize=14;fontStyle=0;strokeWidth=2;resizeParent=0;resizeLast=1;shadow=0;dashed=0;align=center;arcSize=4;whiteSpace=wrap;html=1;fillColor=#C5B4BE;strokeColor=#9673a6;" vertex="1" parent="1">
          <mxGeometry x="-413" y="640" width="290" height="230" as="geometry" />
        </mxCell>
        <mxCell id="znCDfpoOOdXMXpQ7IVTM-29" value="&lt;div&gt;&lt;span style=&quot;font-size: 20px; background-color: rgb(192, 191, 191);&quot;&gt;Номер обращения&lt;/span&gt;&lt;/div&gt;&lt;div&gt;&lt;span style=&quot;font-size: 20px; background-color: rgb(247, 126, 126);&quot;&gt;Код сотрудника&lt;/span&gt;&lt;/div&gt;&lt;div&gt;&lt;span style=&quot;font-size: 20px; background-color: rgb(153, 255, 51);&quot;&gt;Код покупателя&lt;/span&gt;&lt;/div&gt;&lt;div&gt;&lt;span style=&quot;font-size: 20px;&quot;&gt;Статус (решено, нет)&lt;/span&gt;&lt;/div&gt;&lt;div&gt;&lt;span style=&quot;font-size: 20px;&quot;&gt;Вид проблемы&lt;/span&gt;&lt;/div&gt;" style="align=left;strokeColor=none;fillColor=none;spacingLeft=4;fontSize=12;verticalAlign=top;resizable=0;rotatable=0;part=1;html=1;" vertex="1" parent="znCDfpoOOdXMXpQ7IVTM-28">
          <mxGeometry y="50" width="290" height="180" as="geometry" />
        </mxCell>
        <mxCell id="znCDfpoOOdXMXpQ7IVTM-30" value="" style="edgeStyle=entityRelationEdgeStyle;fontSize=12;html=1;endArrow=ERoneToMany;rounded=0;exitX=0.996;exitY=0.159;exitDx=0;exitDy=0;exitPerimeter=0;entryX=0;entryY=0.25;entryDx=0;entryDy=0;" edge="1" parent="1" source="znCDfpoOOdXMXpQ7IVTM-2" target="znCDfpoOOdXMXpQ7IVTM-22">
          <mxGeometry width="100" height="100" relative="1" as="geometry">
            <mxPoint x="1400" y="650" as="sourcePoint" />
            <mxPoint x="1500" y="550" as="targetPoint" />
          </mxGeometry>
        </mxCell>
        <mxCell id="znCDfpoOOdXMXpQ7IVTM-34" value="&lt;font style=&quot;font-size: 25px;&quot;&gt;Стержневая сущность&lt;/font&gt;" style="text;html=1;align=center;verticalAlign=middle;whiteSpace=wrap;rounded=0;" vertex="1" parent="1">
          <mxGeometry x="875" y="390" width="410" height="30" as="geometry" />
        </mxCell>
        <mxCell id="znCDfpoOOdXMXpQ7IVTM-36" value="" style="shape=image;verticalLabelPosition=bottom;labelBackgroundColor=default;verticalAlign=top;aspect=fixed;imageAspect=0;image=data:image/png,iVBORw0KGgoAAAANSUhEUgAAAOQAAADdCAYAAACrIt7oAAAAAXNSR0IArs4c6QAAIABJREFUeF7tnXd8VVW6939r79OSk4QECE16Vbp06SnAHceZudeLioqCCuiMdRy9lrkzwx1fARVlVEAFpAjogGMDpEPoNUgzFAsgCFIM6Zy693o/e+fEiZEk++x+Div/QfZ61rN+a33zrL4I2A9TgClgGwWIbTxhjjAFmAJgQLJGwBSwkQIMSBtVBnOFKcCAZG2AKWAjBRiQNqoM5gpTgAHJ2gBTwEYKMCBtVBnMFaYAA5K1AaaAjRRgQNqoMpgrTAEGJGsDlihAKQi2DqoPj9ggTPmGhCYkEz6xKbgkL4jLJZIEBxAqJQhegnilhKdlF0HDl0D8+ei5KZ8QUEscNzhTBqTBAjPz5QrQnKEOeD03inzdG6mz6e/gSMwkvkMe4j8IEvy2/CPxKmpxkfSuNoCrDcTkIaBc0pegdA0RS/fxZce3k14LT8eLzgzIeKlJG5aDLr2NR4vL/UW+3q+pp+kzXNFnIP4IfBHQZLc5d+3ei4F/f1MBrsMNoe5DEN3ttvFCyUKu5OAq0uefZ2o3Zt8vGJD2rZuY9Ywe7OpFsMUoJLSYhEvTG8iRrwJAJfBFU3IJ1Ih9If1JiK5mH5DgtzMcnervJGTi1WJuNNZN/5YBabrk8ZuhBKLoqzsOzrRpXOEnRIZQbwBrki8CJ00ZDqHuyD0oy3va0SVtWyyByYCMXz5MK5nUNRWanRlJnI0Wc0Wf8qaDWLWklcGsf+dG0ff14+6Ok740TRANGTEgNYjHkgJ0R5frBU/XjXzB4saWg1gNmEKDx0HdrV9w/HhqMuk/zWfnemNA2rl2bO4b3XHDvQidWAApIpnZNY1Wl4h/oeZvfUtL997q7vLWoWhNmPU9A9IspeMoH7qmoRf1uq5H0bp+cCiYIbVL2cMBCA2fBOGSHuE7/n2GXdyq7AcD0o61YmOf6K62TSlp8jUp3eKJKRgrNA0HQJMGIJw+ZqGz1YQxdttgwIC0ceO3m2t0S6OOlPfmyQv5du6i1iac1IV1uhFqNmebU9wwjLSa768tiVm/Z0CapXSM50O3pnaD6Dtg+/GiUp0jGw1Crd/f5xTXDrQLlAxIpRV4DX9Ht3i7Qig7KEsQy5GxmlnYUJsFuc5zKwaT/h9aPgPLgLyGQVNSdLotsQkE4WzcRMarFVoMINR6ca7zbO5gq5dFGJBKWuU1/I24szsl/gPxFRmvFikBhFq9l+v8cdsQ0mvWFauqnAFplfIxkK+wb6SfK/6XO666qdXp/tOYctFe59l9Q6yKlAzIGADDCheFbde/yAWOPW/o0kbFCQ5pC7iAUggoAIVQPlaFBwQ8HEiP/LtcBqPHsGIA4ZZzdjuwbagVEz0MSCtau83zpDmpLSEWnjQExgoIwzKAn4BiFkqwk9weAbEabejnaA+KMeBxJzxoZSicMpRzdznC+4eSdm9WOvdlfMUxII3XOOZyEHf2DhD/Xpeu0UgCUZBP+R+BgFFkBFRv9qYrkQKKV+HCvXBAXz+l2or80Qi3nLXDgR1ZZkZKBmTM4WKsw8LW9pO54FfP6hody2E8igAyya9xXs8S0GV4HYl4CE63S0+7P0HZYuY2B9lj2uYBBqSutRjbxigFh00QdIuM5SAGIWI4GY7NRqlDc5CEYixDCjJ0871ypGzx7nYH2ZptRqRkQBrVSmLQrriz71ri3z1Ml0ZdDuMF+NCa/AamLCPQT/AqUvGkLv5Xrr9wAOHWc3Y6sC3TaCgZkDEIjhEu06XgkY6wLo1ZPiDM7SNZYi8jfK3JJv0EdyIV7+tSjsoZSZsHWr2320k3Gjr7yoA0u8XYND9he7d5XPDgWM0NWYKRJu4jmVdMh7FCWvopslEH6zSXpQqQ0j/DLd7e7SC7DIOSAWlTQMx2i252a7/nVAyAkuSL3NCShmb7XzU/uhxZSMJ6Q6BsOXe3A1sMgZIBaXXLsUH+dKN7BGhgteaZ1XDAj3wk1bamaFaRDYmUcpgMINRmYa6Tbhik95iSAWlW67BxPsKOQee4wNbGmqJJOACE0UXL+qIREtEVyIZX5+5rZAY23PLdHY4fVmfreUqEAWlEK4ghm7pM5sjjxtTPSWbhLXYsOl2O4UjCGk1/cK5WMGlHT4s52x3n84bptfeVAWnHFmSiT3Q9eoNgj6buavnOlmSSgVITXY8qK0O6rxU7elq8vd0h5GXpsc2OARlVtcbfx3RP/y0o2zFIdfSQo2PybJJZMsHu6hgJZbD1vLXuFveN0KoBA1KrgjGeXtzWSiChk5xqIKWxI4c0koHCWJCCLkMmkrAOvLvy6yLaXI/c0eNvPP39hDbj79ZijAGpRb04SEtzQFXDKC1zONt/xw38qmUsSUGXYyi82KA3lDRpOMTEXvc4Ok1apFYPBqRa5eIgHV2ORCSiTPX4UYqOcP+WZAWWx5ocdDlughfbwbv1Y0C697XJ38M8vdCWdJzxnRpN9HNGTe4sjaUK0PXoCII8TUBSNCLZuGBpQVRmTpejD5KwW3UP4Wr5SmuUrebsd7Ue10ONWwxINarFSRq6Fg/Cibc1NciygIfcDFMP8eopP12GfkjGTk0aVHZI6sa72oDWufURvvMrUd+OzoDUs3ZjzBZd75kN3j9OVWMUAxAThpzj+22+LsaK/Qt36TL0QDL2qdKhmigpNP4/H3/lbGPSa1ZRNPowIKNRK86+FTe3+oKIJ29U1RClSODJXMHdtPE38SAL/Rx9kYCduo0ppa5rs6nzXO2fuj8afRiQ0agVZ9+KW1qcIsJ3LdQCCeeNU8jA/c/Fiyx0BfojEVt1mX0VAxDqPw6eoy1IpzdOK9WIAalUqTj8Ttzc5BwRz6nbwyqtvfFNHyWDv58eT9LoCqUUJZv8dbHrhr+PVqoRA1KpUnH4Hd1U/xToj+oipLTk4Wz2JBl8Zlq8SSOvUyYhR1XPocoED677G0Au1yHt3ixWohMDUolKcfoN3ZR+FPTS9aoanjSpw3eezA/+8vl4lId+hjFIwXxV2lSBUqz/8ON8lxlvKNGJAalEpTj9hq4lK+Gkv1LV6CQgnb3f5wfu1bRVzM7S0k/xFurgIVX6VBRMntx59YyzXUlLQiZKV0LX+MOArE2hOP49XYEn4MU0VQ1OAtJ7y1d8nxUd4lgi0M+RhyR3R9VllGajk4aDOBt3Jt0X5NVmhwFZm0Jx/Hu6Ap3hxWG1QFJPd5B+B3hCUOtf/liVka5CS3hwUpVGlaJkOP3hl5xdZzxbmw4MyNoUiuPf0zXwwoVS1Y1NmthJaFqP9P/+chzLBLocK5Di/rXqMkp7XJtO/dbR4am2tdlgQNamUJz/nm4A1bSXlW84gQy9MDueZaLrUAc88sG7eVXlrFiTDBU3ID3mXarJBgNSlcLxk0gTkNL4yN33BNd/d5v4UeTqJaHLsQcp7t5ayhlOHpbt7LFiAwNSi4pxnpZuwHdwuJurLqa0QSChbTPS75vvVduIgYT0YwxEGrZq6d6LdW55nu+1YjIDMgYq3CoX6Qr8Fl58prqhSVEyYeinXL9N/2VVGczKl65DKVxur6r8pOcI0h9b6ez6Ro1jUdZlVaVu/CSiO5AAH66oHkdWSMG3vJ4MPH48fpT5ZUnoahxBgvsGVWWUbqhLf+qYs/PUGtMzIFWpG1+J6Dr44HJ7VJdK6rYm/+oAeq7qGddLIJ9iMurgWVW9CUmjJn8Oo/2LLkLkdzKv+sOAVN0K4ychXYF34cX9qhpahQzhAMSUW57he694OX6U+XlJ6MfohjQcUKWTtJEi9W5wLk890undapeJGJDx2nqiKJfmu3WkvCIn5QW+9Qhnv3Vro8g+Zj6lK5EOD86Bdzuidrpixw7vuY70WHaORcioFby2EtC1uAi3O11TqaUokPyfIkd8HUjPNd9osmXDxPJGCgd+hENF914+0N0dhKS3J/3Wfc2AtGEF28kl3a7bl3alpN59kQ/80IP033jWTmXUwxe6DmVwuROjthXpQRA07EIG7PiSARm1gtdeAtWNrapUEpR1x1zkAxd7kn6r4mp9UrVGFUDy9buRfrsPMSCvPb6iLjFdjoeRhOmqJi2uBmXaPRd4saAP6bVC8RUWUTttYgL6GZKRiEtwud1RZ1vRZRW815OB26tdHmKTOlErG98J6DpcgcudoEsppUiZNuYCj0t9SY+Vqi4O1sUPnYzQNWgFF06o+oMlAZk4AIRHC9Jre7V/oBiQOlVWrJrJmQhHcuOepGfaPlF6aDW0HFkOPV8eLu++XuKFs71Ir/UxHSnpSvwKCVipFkixzihwKGpAeqyqdoM5AzJWSdLo9/63GrUEUv9GnOm3gnCcy52Sm8AVvBROPZ/TxvHNCeJ2N9GYxb+Ty5Hy3ou8eLl3LHdf6TLMRjJU32Mr1H80zHd+k20M0K1hxYmhvVP5kaGg8CHhAS5yoEgUACoAdZv1eKdZnWPvJiZe2QWnji9EyZHy/nxeuNgjVqGka3AWHpV/qKQlobrjD/PdZnetqRmxCBknkCktxu4p6CaIOMBXM0wUAj6ktrptZ7vm+T5HcGOmqu5Zdc7IUI4t4AMXusba7CvNhRMFKFa9xVAu+x3zHDcuqfHiZAak0pYcJ9/lTuP8giC6Qaqft5GgrNf58UvtGh9NJ6VroT+UD1zmfRe6kv4rYmadkq7ESCTgQ9VayFsLb36S772yxmszGZBxApqSYixdCr7pNwhXFx0r2xCDPqR3GYvWaVtBwjovJcrR4r7LvHDpxljpvtKVOA6vu70Snav9xt05k/Tbl8O6rJpUjJ/Eue/AGbqMIOdStqohhn1o2HYgWjXcCwg66yBBWW9cIR883ZX0WXtGZ+u6mqNrcD1cOKo6OlZsLC87lUIGbi9hQOpaPbFrLJoIWVFKGcoW7dCq6WmDoJxQxPvPdLbzmJKuwgEkuruprnnpTp20B9c5ur8zvDYbrMtam0Ix/vutk5HmFOFyuCGESxEkSSh/Hq2GMWTVIosCRcOGQKs21CAoxxfz4qkbSI911Z6CsKoa6CoMhEfD1R2S49L4MfWOR/meS2p9B4UBaVVNG5zvnimuTiSp5c5Q8VfJMn8E8Db5bRHvSalTemZRVEBK6Q2HUtr7euWHLmTA2osGS6PYPF0JN3ich8edqjjRL/6aRU551LJlriIZA1K10vZNuH0SRhLgQ95VJRJSX7nTUUTHyqU0HMq0ey7yvgu2gZKuxna40V/12DESHYW6o7c5blw0SEmLYUAqUSmGvtk1ESmCE4UOT4IhdWs4lPXGl/Fl37W2OlLS1ZgCN57RBKPctQhA8GaNdvTZsFhJMzKk0pRkzL4xRoGdLzdcT3Ahi/DKZlLVeGE8lOPK+OC5tqTPyvNq/NOahq7Eo3DjDc0Xf0kw1rm7kD9/uRG5eVVAiV8MSCUqxdA3O6eglHPAq7ZbqrSoRkMppo70c+HijqTv2pNKfdLjO7oSL8KN5zXDGOmuigk9HuX7f1HrZA4bQ+pReza0seNFFPBupBoNpNwbM3L2VTqu5B1GiejrTfpt22e01JSCYD1ZBQcdobmbGumqypdacYeTSLdDZUr9ZxFSqVIx8t2Wv2GDOxmZZgBpBpRyHt7/XMC5TzwcTcOOprroBrQBh/I7gLjozx5fNS9p40Ny9v2OPuvnReMLAzIatWLg2+1/RgvixSkl2+P0Ko6hkTLS9aPeQT4iBm7HTXtW6nX3K92KNAQTPgF8Q3TpolYIKo8d7/qRP1/QVOnYkXVZ9WqNNrSz+Xn8y52K/zZyYqdqsQ2HUrpoWATEpKxCLlzwJErPLkXRBb90qDqaKpBPbeSjKfU0/oCEf+gLTseoWNkRR6v+ZMCxndH4Jn3LImS0isXI91v+ih2uJNwUV1BGxmby87AON8SErBNc8NybEM5+Dq/zLIIcRaFHRIM65Q/IluTzwCnpDlUHwp7uNKHlX4hwMlPaOWMYiNKunKQBb/J9tz+mpqkwINWoFiNpNv8Ve91J6BV3UFbqGv70drMU6ZxuUP4GgPMCYhmIcBQIlUfW8vGhQdGwclc1ZdQl3nOoKel0JKimmTAg1agWQ2m2voCDTje6xi2Uv+g7V1ru02uCRkl9y29ldhUJhxak3yHV59UYkErEjvFvtr2Aww43Ol8zUFpRX9IY193pP0j/vDVasmdAalEvhtJuewEHHddSpDSzbqQxqeO6sWTI2QVas2VAalUwRtLTieD2N+kphIr3qd5crqaohs++qnFKzzQSjM7rfk8Gn31bD7MMSD1UjAEbZ5am1G3aMJC//yCHUMhch2Uomzcz5pCzuUX5eW4SjHyLP5Gh372mlxsMSL2UtLGdi0uRlJ6OkopdKAxKjZUljRflWdt6Y8mQfM3d1MreMCA11o3dk8tvP6a4y6RjQJW3hVkCZdiH+m3/A22anAfxH9Bvm5qZlfCTjklZZEj+Rr2zZkDqraiN7MkwJrtKQYPkans0rYIy7YbH0K5ZPrjLi+UF/pj5CUsb3m8qJaGz3cig0yeM8JsBaYSqNrBJc5AEiiIQcDVtmLYCSune1/pdniy4Lu2b9xN9y8bDAZdum7qN0L5i256zzXRO+PaPJANhI7KRbDIgjVLWQrvyS79OGUZeSUO3Csq6bUcfaJ6U8xtX+Oxk3ovRtoyWUlRM7OEnoZN9yeCCat911Ku6GZB6KWkTO3I31YtipTBWuG0VlHWaZy/s+M36sf4eaOpJc55EMMTZAkxpBlV6BpI2fg4DT71ECKgZVcyANENlk/KgO5CAoKMENKwoMlZ1ywoopRvSvXWat+n6h/IxmX8VOrhdyAWQZPje06oCRLqmEogimrzCnTv5XLSnSbRWNQNSq4I2SV8Oo7MUNFTjmLFGd8UA9h9OMHWdUgKSd3nv6fOnskWVfZOuYKQuVw4hwZtkMKUfI/amVixhiABNGhIkZfv/CxnFq8yKiFXrgwFpE6C0uCHDGMAVvRqtmZFSAhKOei/d9HT+s9VpQNfhBvAp70Ms7gYiT1OpB7QSgJIR6r2J0tDpF/lBZ/+ipQ70SsuA1EtJi+zIY8YklN/ZomMEMQtKCUjiuu6Ffn86+1clEsqXFwOZ1J32BHEWDUVQlF64lNqxhOrV2zMFBQcKpxPU1T9M/KdnQTg3nWQGjivJ08xvGJBmqq1zXvJsqgulesNY4aYZUEpLIOBT+vZ/pniPXvJIupARkT9Sehk1yQ4D0iSh9c5GXmcEyl9S0jEyVvXTSCil6OipP/h7QSxr3evBfSbvsNW7RvSxx4DUR0dTrRgdGfWGUnpBS346veIJA+qDEAScda4v40Xavsejx233yI6pFVopMwakVcqrzNeoMWNt7siRUpqAifZdEOqDI7nz3GDB2U5iuKC7FM+dSQ2Dguh81+n9/qleD4JFRgZkbc3Pnr+3CkZpY3phofuJb880eiLs/65lNDcPSNExpc2YMxdLvmufcd8mvz2VtY9XLELapy5q9ITmwAOg/PkqA8eMv3AiHECYS5/izLj0nHTIeVeC5yAhfuXXgVAfnCk9EUxsUKff6FXFMSK3ZW4yIC2TXnnG8jqjH2Xla3Amno6oBGOFt9IrzM1Peg6C+DspipTSE3gkAaGwN2XgMz/W+Jy3ckXi90sGpM3rNgJjSbR7UzUXS7pfFKkT+azC/6tqS34a/aTnAKckUlIf3HWH+AtOk+SMiZsMOyWhubw2McCAtElFXM2NyKmNQhA4zI6MIN7nSWbZ5OrkyZkIh9uTeJDjrnSsKVJK64yeet1e7fHgwadsLLVtXGNA2qYqfu5I5NSGdITKfBi5pP8lGaUv1iaNBGVCQtKXFKUdOMcv36OUJnQ8dfsHUXqu4Y1/PFVYmz32e3Ye0pZtIBIZC0DgND0ywvscySqbolQYqfva7GTqZioUDiA8QAhAKUAFwJPW/QIfEnt1e0z9xcFK/YiX71iEtFlNRiKj1E01H0aS8D8k0/eKGkm2v4IGtAy3gne0J5zjChX9C891wDe3R/kYjpq84ykNA9JGtWkpjEh4mmT5ptpIjmvSFQakTard2gkc95MkMzDNJlJc024wIG1Q/dHegaOby9I1FdT5BMkOva6bTWZIkwIMSE3yaU8cWWcsre12OO05VbEgwQjnoyQrNF1328ygagUYkKql054wsh1OOulv+g4cUO4Rki3O0F4KZkFPBWwJ5M5XkoYiXJoTLMG6wS9ihFX3m+gpdFVb8sl3aUOc9GPydjhQ7iGSLb5jZPmYbXUK2A7I3dMSboLg2yEVh4qAvwDrh0zC8HiCki6FC+kofyDCdBidj5DsEIuM6ngxPJWtgNw7LXmAECrZRqRLjCLn7qjgQ6AAawa7cTOZ+NPj1IYLY1QGlsIocn8gw8S3jCobs6tdAdsAuWtq8kAaKtnKOSudLI+UT4LSX4CcIW5kxzKUkW6qdITK/DEjm8DRTosJFmwB5N5p9bLDwfx1P7vmoUrhZSgLkTPEFZtQ0vWoBw4XLZlNpdyDJFucZUJ7YlloVMByIHe9UXc4/JfXVO6mVlemSKRcP8SNEbEUKS2GkU3gaITEzOSWArn39fSbhcClz5XAWCFKrI0p6RakI4wfrDjPyGZTzURJn7wsA3L3PxqMEAMXV9fUTa0pUvouY/XQybjZzrOvDEZ9Gum1ZMUSIGUYfRdXX20CR6n4kUi5YfAkDLMjlHQNGsCJs5acZwT3B5LFZlOVtiU7fWc6kBKMNHhxdTTd1NoiZcYU/MpOokbGjOctgvH3JEt82056MF+UK2AqkLteTehHg76dWiJj1aJFJnrWDZ2M4cqLbdyXFkdGBqNxVWuKZVOB3PFawnUuV/r34SunoejGMoUSRJZE1g2dZC2UDEaFFcY+q1YBU4GUvNj7VocBRPBtMwLKYAE2DZ6MDCvqOzKBc86SbipbZ7Siyg3J03Qgy6Hs2IcIpbuNgNJfgI1DJyPLELWqMUpzUB8U0phR1cvFqn2VzzOyjeKq9bNhQkuAlHTYM6Ndd44G9hsBZaAQG4ZMQrYZetOVSIfHsnVGtgPHjEo2MQ/LgCyPlO37EMFvSKQMFGHDkBeNhTLSTZUio/pnxNVUNouMalSLiTSWAikplPtOx74Ile4S/Kejf1mpBonldcpibB7y/zDUiJqgW5GGEH60CEYWGY2oVBvYtBzIylAa0n01AMrIOuMlK97aADCeZGGODdoOc8EABWwBpFSufTM7DhKFks3h0jOyT9Jlu9KPdPEuOPz8wc8ohNA7UspLGy5ckF0w/XAxRpFsLImi+OzTGFNANyBzp7cfd+XCV5OEIB7LeAn/VKND7rQWjf3F391MKXLcwBW/E8QBT0dP/a5PUQSHBfIP8Lzrl+cla8vrp1MiGm8eoDloBOAHi2AcTbKxuLayst/HtgK6ALlvZtvRwaJvFko7cKSnqn2XcWvWVHyitzR7p7cf5XDXX+C7tMPFu3/5lkRN+UX2vm4c7MYwNUe36Fo0kfemWhIZ2bUberclu9rTDGTuzOvHhIqOza+8HU7w+6ivAL/Lmorlehf84CtdvUJqnRn+S1vHqIKyEFsudEdmNFfcWwzjwyQ7NFNvHZk9eyqgCci9Mzo8EC4+Pudqe1PDfp8YKMJtmS/jYyOKvn/2wL/5Lm2bqAbKYBE2ne+GbCVQ0jVoBhdOWxIZifMBkhmaa4R+zKY9FVANZO7MTmNCJXnzazrPGPb5woES3J35EpYaUfz9czMX+85vvEsVlAVYP3gyhtXYzd2AFuBwyhIY4ZxAskKzjdCN2bSvAqqA3Duj7QPh0m/mKDlcLEEZLME9aid6apJu/7TuqUhJyQ8WbOEqbqlTKrU0pgzWAKWlkRHO8SQrxJY2lFZmHH0XNZD7ZnYcHSw6Ik/gKIVAgjJUjAlDX8Y8vbXbO6PTyFBR3ofRRknJDxnKYmweXGXzAF2JpkjAGUsiI3WOI9mhd/XWidmLDQWiAjJ35g3jQkVHZ0cDY4UMYZ8vFCjBaL27r1tnNk9LEPl8wX+SKP0D8bOqoT4E8rF78GT0k/6/5FN0TKqDPFPXGKWM5bc2+PtIljA/NpoO89IIBRQDmTuz/bhQyVezlXRTq3PUd8l3jAf6D5qCAj0Ls3/eiM3+i2sGX+1ZbUX5UB8EHw7VbeT4Y4e24Q3WREZ+LMkWFijyl30UtwooAnLfjOvHB4uPzVITGSsr5y/0nR3yAprqrWbumx1vC5UeWcq5olubrPBDFCiSUxPQqV2BubtvKiKjyI8hw4T39NaF2Ys9BWoFMvfN1neFSk8s1gqjJI0UIYdOwQ16y7RjSkJ/iL7tasaRP8HY8Qog6O1ZLfakbiqD0WTR7Z1drUDue6f/i4H8Hc+raexVi156wbc/62X00FuSHS95syCUrY/WR8thJPwYkskio97tIZbt1QqkVLi8JXcuLPr2g9HRNviqwvh+9H07dDLa6i3Yzlfq3I5w0ZJouqyWw8gio97NIC7sKQJSKunhj8bMLTm+4D4tUIZKfYUoQ/OBL6NET/V2v95htug/Pk7ppI7lMFL+HpItLNJTA2YrPhRQDKQcKT+6/72i43PvUQtl5Ha4zKGTkKOXfHkzOib5eVdBuPSAQ8myh/Uwgp3a0Kvy49BOVEBGIuWikuML7lYFJfWh7BxWZ76m38XGe/7RqHf4yvk9SvxhMMZhC46zIkUNpBwpP3lgcdHRd+9SczYxfMXnD5SiV+ZLyNOq5cFXGnqD7pQDgv/rtrXd82o9jKybqrW+r4X0qoCUhDny6YQPCo/MGqUGytKzvn11SnFTr1kIaRF516v1RouB/IW1RUfLYQR/L8kSFmopK0t7bSigGsifQRnlYWFQH0q/x7Ksf+B3amXe+XLCAAi+bbXNrFoOI5tNVVvF12Q6TUCWQzn+g8Ijs0fVFqV+oS71wXceHw6ZijsIELlBR1kd7HzJezfEskW1bVawHEbKtsMpq1H2VYUCmoEsh/L3HxQeeUsdlD/iBOXw3xmTcKC2atnzsrdRmLrnQLj869r+ADAYa1PLtP3GAAAF6klEQVST/d6OCugCpNYxpRiWT1x8QYHJSMSmSx1RUHGaP3cq6gcD/HDiTLtHDP6YxbvgtP8EDm4j2fiXHSuc+WRvBXQDUirml58+8EHxkXejj5QRjaR1Sir8+wrIn8I4AWrrnlZ8a3lkFDGSDMNH9q525p1dFdAVSDlSfvbQksK8t2+vrUtphCCWw8j2phpRrdeUTd2BlKH8ZPySwqOzTYXSchjZ0sY1BY5RhTUESMnZvE/GLS46OkfV5oFoC2s5jIS/g2QKhlzkFa0W7PvYVsAwIGUoP75/UdGxuXer2TygVFbLYWRjRqVVxb5ToIChQFIKkvfRvYuKv3ov6qsaFfgOBqMSldg3saSAoUBKQkhQHlvxyJKCw9Nv03Oix3IY2QROLLXzmPHVcCBlKCeCO9pt/KLCo7Pv1KP7ajmMlK0zxkwLjzFHTQHy31BOWFB4dNZoLVBaDiPBSJLJ1hljrJ3HjLumAVkBZV6n0XOLv140Rg2U1sPIZlNjpmXHqKOmAlkxpjzy8f0Li47PjeqQs+UwiriDDDPmjZIYbTvMbQMUMB3ICiiPfjp+sTymVHB0y3IY2ZjRgKbHTF5NAUuArHAk76Oxi4qOz69xndJyGIHbSRY+ZM2HKWCGApYCKRUw76Ox84q/mj/2apvHLYeR8qNItrDEjIpgeTAFJAUsB1Jy4shHY98rPD7/Z7fZ2QDGO0m28E/WTJgCZipgCyClAh/9eOz8gmPz5WfKGYxmNgGWl50UsA2QcqRccvtbhd8ufSilfho6WfXWBsffSTJYZLRTI72WfLEVkJLw59bdt7WxY95Ai95nvItkCR9cSw2AldVeCtgKyLINjXskOi7vM10i6RUqyrMxo+nCswyrKmAbIOkaV2c4gofhcJtbSwxGc/VmudWogC2ApOvQBRwOWQIj4e8mmcL7rJ0wBeyggOVA0vXoCh4HLRkzsleo7NAGmQ+VFLAUSEthhPNekhVi1/szHGylgGVA0hx0h4j91nRTnWNIZug9W9UEc4YpYNVOHbre2RsktMcSGFlkZA3fxgqYHiFpjrMXxNBea2B03UWygmyd0cYN8lp3zVQg6QZnH3Ch3dZM4LjuJNlBtjf1Wm/xNi+/aUDSDY7+QHg7i4w2bxHMPUsVMAVIutEzBNS/yRIYOed9JCM031KVWeZMAYUKGA4k3ZT2GwgFyyyBEWzMqLAdsM9sooDhQIZ298nkudQNpHQtTBs7StvhONedJIONGW3SzpgbChUwHEjJD+HLZ/9IfF+8ZgqU8t5U1yiSHWQn/RU2AvaZfRQwBUipuMEjf/6Do2zvDEOhlGBkD9/Yp3UxT6JWwDQg5UiZ9/yj5EruG4ZAybqpUVc+S2A/BUwFUobyyP8+Tsr2/ENXKBmM9mtZzCNVCpgOZDmUf32clO3SB8pyGEeTjOBiVQqwREwBGylgCZDl3de/PEau7H5dU6SUx4yeMSTTzzaK26hRMVfUK2AZkPJET96fH3Fc2fumKijlyOi5j2T42aK/+vpnKW2mgKVASlqEjzw7jiv7YnZUULLIaLNmxNzRSwHLgZS7r4f/5yHiP/CWIijlyOi9j2SUscioVytgdmyjgC2AlCPl4ace4PyH5tQIpQQjnzyBDC2ZbRsFmSNMAR0VsA2QcqT88ukJxHfwnatCyWDUsdqZKbsqYCsg5Uj55VPjOd+hWT+DUu6m1nuEZOTPsKuQzC+mgB4K2A7I8u7r46M5/9GFMpQiAC79EZJxicGoR40zG7ZWwJZARiZ6HiNlW18jwQtPk8EnptlaReYcU0AnBWwLpFQ+mntLc9JrxWmdysrMMAVsr4CtgbS9esxBpoDOCjAgdRaUmWMKaFGAAalFPZaWKaCzAgxInQVl5pgCWhRgQGpRj6VlCuisAANSZ0GZOaaAFgUYkFrUY2mZAjorwIDUWVBmjimgRQEGpBb1WFqmgM4KMCB1FpSZYwpoUYABqUU9lpYpoLMCDEidBWXmmAJaFGBAalGPpWUK6KwAA1JnQZk5poAWBf4/m9O5sDjn0ogAAAAASUVORK5CYII=;rotation=-180;" vertex="1" parent="1">
          <mxGeometry x="1269.04" y="760" width="30.96" height="30.01" as="geometry" />
        </mxCell>
        <mxCell id="znCDfpoOOdXMXpQ7IVTM-37" value="&lt;font style=&quot;font-size: 20px;&quot;&gt;Поставка&lt;/font&gt;" style="swimlane;childLayout=stackLayout;horizontal=1;startSize=50;horizontalStack=0;rounded=1;fontSize=14;fontStyle=0;strokeWidth=2;resizeParent=0;resizeLast=1;shadow=0;dashed=0;align=center;arcSize=4;whiteSpace=wrap;html=1;fillColor=#C5B4BE;strokeColor=#6c8ebf;" vertex="1" parent="1">
          <mxGeometry x="660" y="690" width="180" height="210" as="geometry" />
        </mxCell>
        <mxCell id="znCDfpoOOdXMXpQ7IVTM-38" value="&lt;span style=&quot;font-size: 20px; background-color: rgb(194, 224, 255);&quot;&gt;Код поставки&lt;/span&gt;&lt;div style=&quot;font-size: 20px;&quot;&gt;&lt;span style=&quot;background-color: rgb(255, 138, 20);&quot;&gt;Номер склада&lt;/span&gt;&lt;/div&gt;&lt;div style=&quot;font-size: 20px;&quot;&gt;&lt;span style=&quot;background-color: rgb(255, 143, 240);&quot;&gt;Код издательства&lt;/span&gt;&lt;/div&gt;&lt;div style=&quot;font-size: 20px;&quot;&gt;Дата поставки&lt;/div&gt;" style="align=left;strokeColor=none;fillColor=none;spacingLeft=4;fontSize=12;verticalAlign=top;resizable=0;rotatable=0;part=1;html=1;" vertex="1" parent="znCDfpoOOdXMXpQ7IVTM-37">
          <mxGeometry y="50" width="180" height="160" as="geometry" />
        </mxCell>
        <mxCell id="znCDfpoOOdXMXpQ7IVTM-39" value="" style="shape=image;verticalLabelPosition=bottom;labelBackgroundColor=default;verticalAlign=top;aspect=fixed;imageAspect=0;image=data:image/png,iVBORw0KGgoAAAANSUhEUgAAAOQAAADdCAYAAACrIt7oAAAAAXNSR0IArs4c6QAAIABJREFUeF7tnXd8VVW6939r79OSk4QECE16Vbp06SnAHceZudeLioqCCuiMdRy9lrkzwx1fARVlVEAFpAjogGMDpEPoNUgzFAsgCFIM6Zy693o/e+fEiZEk++x+Div/QfZ61rN+a33zrL4I2A9TgClgGwWIbTxhjjAFmAJgQLJGwBSwkQIMSBtVBnOFKcCAZG2AKWAjBRiQNqoM5gpTgAHJ2gBTwEYKMCBtVBnMFaYAA5K1AaaAjRRgQNqoMpgrTAEGJGsDlihAKQi2DqoPj9ggTPmGhCYkEz6xKbgkL4jLJZIEBxAqJQhegnilhKdlF0HDl0D8+ei5KZ8QUEscNzhTBqTBAjPz5QrQnKEOeD03inzdG6mz6e/gSMwkvkMe4j8IEvy2/CPxKmpxkfSuNoCrDcTkIaBc0pegdA0RS/fxZce3k14LT8eLzgzIeKlJG5aDLr2NR4vL/UW+3q+pp+kzXNFnIP4IfBHQZLc5d+3ei4F/f1MBrsMNoe5DEN3ttvFCyUKu5OAq0uefZ2o3Zt8vGJD2rZuY9Ywe7OpFsMUoJLSYhEvTG8iRrwJAJfBFU3IJ1Ih9If1JiK5mH5DgtzMcnervJGTi1WJuNNZN/5YBabrk8ZuhBKLoqzsOzrRpXOEnRIZQbwBrki8CJ00ZDqHuyD0oy3va0SVtWyyByYCMXz5MK5nUNRWanRlJnI0Wc0Wf8qaDWLWklcGsf+dG0ff14+6Ok740TRANGTEgNYjHkgJ0R5frBU/XjXzB4saWg1gNmEKDx0HdrV9w/HhqMuk/zWfnemNA2rl2bO4b3XHDvQidWAApIpnZNY1Wl4h/oeZvfUtL997q7vLWoWhNmPU9A9IspeMoH7qmoRf1uq5H0bp+cCiYIbVL2cMBCA2fBOGSHuE7/n2GXdyq7AcD0o61YmOf6K62TSlp8jUp3eKJKRgrNA0HQJMGIJw+ZqGz1YQxdttgwIC0ceO3m2t0S6OOlPfmyQv5du6i1iac1IV1uhFqNmebU9wwjLSa768tiVm/Z0CapXSM50O3pnaD6Dtg+/GiUp0jGw1Crd/f5xTXDrQLlAxIpRV4DX9Ht3i7Qig7KEsQy5GxmlnYUJsFuc5zKwaT/h9aPgPLgLyGQVNSdLotsQkE4WzcRMarFVoMINR6ca7zbO5gq5dFGJBKWuU1/I24szsl/gPxFRmvFikBhFq9l+v8cdsQ0mvWFauqnAFplfIxkK+wb6SfK/6XO666qdXp/tOYctFe59l9Q6yKlAzIGADDCheFbde/yAWOPW/o0kbFCQ5pC7iAUggoAIVQPlaFBwQ8HEiP/LtcBqPHsGIA4ZZzdjuwbagVEz0MSCtau83zpDmpLSEWnjQExgoIwzKAn4BiFkqwk9weAbEabejnaA+KMeBxJzxoZSicMpRzdznC+4eSdm9WOvdlfMUxII3XOOZyEHf2DhD/Xpeu0UgCUZBP+R+BgFFkBFRv9qYrkQKKV+HCvXBAXz+l2or80Qi3nLXDgR1ZZkZKBmTM4WKsw8LW9pO54FfP6hody2E8igAyya9xXs8S0GV4HYl4CE63S0+7P0HZYuY2B9lj2uYBBqSutRjbxigFh00QdIuM5SAGIWI4GY7NRqlDc5CEYixDCjJ0871ypGzx7nYH2ZptRqRkQBrVSmLQrriz71ri3z1Ml0ZdDuMF+NCa/AamLCPQT/AqUvGkLv5Xrr9wAOHWc3Y6sC3TaCgZkDEIjhEu06XgkY6wLo1ZPiDM7SNZYi8jfK3JJv0EdyIV7+tSjsoZSZsHWr2320k3Gjr7yoA0u8XYND9he7d5XPDgWM0NWYKRJu4jmVdMh7FCWvopslEH6zSXpQqQ0j/DLd7e7SC7DIOSAWlTQMx2i252a7/nVAyAkuSL3NCShmb7XzU/uhxZSMJ6Q6BsOXe3A1sMgZIBaXXLsUH+dKN7BGhgteaZ1XDAj3wk1bamaFaRDYmUcpgMINRmYa6Tbhik95iSAWlW67BxPsKOQee4wNbGmqJJOACE0UXL+qIREtEVyIZX5+5rZAY23PLdHY4fVmfreUqEAWlEK4ghm7pM5sjjxtTPSWbhLXYsOl2O4UjCGk1/cK5WMGlHT4s52x3n84bptfeVAWnHFmSiT3Q9eoNgj6buavnOlmSSgVITXY8qK0O6rxU7elq8vd0h5GXpsc2OARlVtcbfx3RP/y0o2zFIdfSQo2PybJJZMsHu6hgJZbD1vLXuFveN0KoBA1KrgjGeXtzWSiChk5xqIKWxI4c0koHCWJCCLkMmkrAOvLvy6yLaXI/c0eNvPP39hDbj79ZijAGpRb04SEtzQFXDKC1zONt/xw38qmUsSUGXYyi82KA3lDRpOMTEXvc4Ok1apFYPBqRa5eIgHV2ORCSiTPX4UYqOcP+WZAWWx5ocdDlughfbwbv1Y0C697XJ38M8vdCWdJzxnRpN9HNGTe4sjaUK0PXoCII8TUBSNCLZuGBpQVRmTpejD5KwW3UP4Wr5SmuUrebsd7Ue10ONWwxINarFSRq6Fg/Cibc1NciygIfcDFMP8eopP12GfkjGTk0aVHZI6sa72oDWufURvvMrUd+OzoDUs3ZjzBZd75kN3j9OVWMUAxAThpzj+22+LsaK/Qt36TL0QDL2qdKhmigpNP4/H3/lbGPSa1ZRNPowIKNRK86+FTe3+oKIJ29U1RClSODJXMHdtPE38SAL/Rx9kYCduo0ppa5rs6nzXO2fuj8afRiQ0agVZ9+KW1qcIsJ3LdQCCeeNU8jA/c/Fiyx0BfojEVt1mX0VAxDqPw6eoy1IpzdOK9WIAalUqTj8Ttzc5BwRz6nbwyqtvfFNHyWDv58eT9LoCqUUJZv8dbHrhr+PVqoRA1KpUnH4Hd1U/xToj+oipLTk4Wz2JBl8Zlq8SSOvUyYhR1XPocoED677G0Au1yHt3ixWohMDUolKcfoN3ZR+FPTS9aoanjSpw3eezA/+8vl4lId+hjFIwXxV2lSBUqz/8ON8lxlvKNGJAalEpTj9hq4lK+Gkv1LV6CQgnb3f5wfu1bRVzM7S0k/xFurgIVX6VBRMntx59YyzXUlLQiZKV0LX+MOArE2hOP49XYEn4MU0VQ1OAtJ7y1d8nxUd4lgi0M+RhyR3R9VllGajk4aDOBt3Jt0X5NVmhwFZm0Jx/Hu6Ap3hxWG1QFJPd5B+B3hCUOtf/liVka5CS3hwUpVGlaJkOP3hl5xdZzxbmw4MyNoUiuPf0zXwwoVS1Y1NmthJaFqP9P/+chzLBLocK5Di/rXqMkp7XJtO/dbR4am2tdlgQNamUJz/nm4A1bSXlW84gQy9MDueZaLrUAc88sG7eVXlrFiTDBU3ID3mXarJBgNSlcLxk0gTkNL4yN33BNd/d5v4UeTqJaHLsQcp7t5ayhlOHpbt7LFiAwNSi4pxnpZuwHdwuJurLqa0QSChbTPS75vvVduIgYT0YwxEGrZq6d6LdW55nu+1YjIDMgYq3CoX6Qr8Fl58prqhSVEyYeinXL9N/2VVGczKl65DKVxur6r8pOcI0h9b6ez6Ro1jUdZlVaVu/CSiO5AAH66oHkdWSMG3vJ4MPH48fpT5ZUnoahxBgvsGVWWUbqhLf+qYs/PUGtMzIFWpG1+J6Dr44HJ7VJdK6rYm/+oAeq7qGddLIJ9iMurgWVW9CUmjJn8Oo/2LLkLkdzKv+sOAVN0K4ychXYF34cX9qhpahQzhAMSUW57he694OX6U+XlJ6MfohjQcUKWTtJEi9W5wLk890undapeJGJDx2nqiKJfmu3WkvCIn5QW+9Qhnv3Vro8g+Zj6lK5EOD86Bdzuidrpixw7vuY70WHaORcioFby2EtC1uAi3O11TqaUokPyfIkd8HUjPNd9osmXDxPJGCgd+hENF914+0N0dhKS3J/3Wfc2AtGEF28kl3a7bl3alpN59kQ/80IP033jWTmXUwxe6DmVwuROjthXpQRA07EIG7PiSARm1gtdeAtWNrapUEpR1x1zkAxd7kn6r4mp9UrVGFUDy9buRfrsPMSCvPb6iLjFdjoeRhOmqJi2uBmXaPRd4saAP6bVC8RUWUTttYgL6GZKRiEtwud1RZ1vRZRW815OB26tdHmKTOlErG98J6DpcgcudoEsppUiZNuYCj0t9SY+Vqi4O1sUPnYzQNWgFF06o+oMlAZk4AIRHC9Jre7V/oBiQOlVWrJrJmQhHcuOepGfaPlF6aDW0HFkOPV8eLu++XuKFs71Ir/UxHSnpSvwKCVipFkixzihwKGpAeqyqdoM5AzJWSdLo9/63GrUEUv9GnOm3gnCcy52Sm8AVvBROPZ/TxvHNCeJ2N9GYxb+Ty5Hy3ou8eLl3LHdf6TLMRjJU32Mr1H80zHd+k20M0K1hxYmhvVP5kaGg8CHhAS5yoEgUACoAdZv1eKdZnWPvJiZe2QWnji9EyZHy/nxeuNgjVqGka3AWHpV/qKQlobrjD/PdZnetqRmxCBknkCktxu4p6CaIOMBXM0wUAj6ktrptZ7vm+T5HcGOmqu5Zdc7IUI4t4AMXusba7CvNhRMFKFa9xVAu+x3zHDcuqfHiZAak0pYcJ9/lTuP8giC6Qaqft5GgrNf58UvtGh9NJ6VroT+UD1zmfRe6kv4rYmadkq7ESCTgQ9VayFsLb36S772yxmszGZBxApqSYixdCr7pNwhXFx0r2xCDPqR3GYvWaVtBwjovJcrR4r7LvHDpxljpvtKVOA6vu70Snav9xt05k/Tbl8O6rJpUjJ/Eue/AGbqMIOdStqohhn1o2HYgWjXcCwg66yBBWW9cIR883ZX0WXtGZ+u6mqNrcD1cOKo6OlZsLC87lUIGbi9hQOpaPbFrLJoIWVFKGcoW7dCq6WmDoJxQxPvPdLbzmJKuwgEkuruprnnpTp20B9c5ur8zvDYbrMtam0Ix/vutk5HmFOFyuCGESxEkSSh/Hq2GMWTVIosCRcOGQKs21CAoxxfz4qkbSI911Z6CsKoa6CoMhEfD1R2S49L4MfWOR/meS2p9B4UBaVVNG5zvnimuTiSp5c5Q8VfJMn8E8Db5bRHvSalTemZRVEBK6Q2HUtr7euWHLmTA2osGS6PYPF0JN3ich8edqjjRL/6aRU551LJlriIZA1K10vZNuH0SRhLgQ95VJRJSX7nTUUTHyqU0HMq0ey7yvgu2gZKuxna40V/12DESHYW6o7c5blw0SEmLYUAqUSmGvtk1ESmCE4UOT4IhdWs4lPXGl/Fl37W2OlLS1ZgCN57RBKPctQhA8GaNdvTZsFhJMzKk0pRkzL4xRoGdLzdcT3Ahi/DKZlLVeGE8lOPK+OC5tqTPyvNq/NOahq7Eo3DjDc0Xf0kw1rm7kD9/uRG5eVVAiV8MSCUqxdA3O6eglHPAq7ZbqrSoRkMppo70c+HijqTv2pNKfdLjO7oSL8KN5zXDGOmuigk9HuX7f1HrZA4bQ+pReza0seNFFPBupBoNpNwbM3L2VTqu5B1GiejrTfpt22e01JSCYD1ZBQcdobmbGumqypdacYeTSLdDZUr9ZxFSqVIx8t2Wv2GDOxmZZgBpBpRyHt7/XMC5TzwcTcOOprroBrQBh/I7gLjozx5fNS9p40Ny9v2OPuvnReMLAzIatWLg2+1/RgvixSkl2+P0Ko6hkTLS9aPeQT4iBm7HTXtW6nX3K92KNAQTPgF8Q3TpolYIKo8d7/qRP1/QVOnYkXVZ9WqNNrSz+Xn8y52K/zZyYqdqsQ2HUrpoWATEpKxCLlzwJErPLkXRBb90qDqaKpBPbeSjKfU0/oCEf+gLTseoWNkRR6v+ZMCxndH4Jn3LImS0isXI91v+ih2uJNwUV1BGxmby87AON8SErBNc8NybEM5+Dq/zLIIcRaFHRIM65Q/IluTzwCnpDlUHwp7uNKHlX4hwMlPaOWMYiNKunKQBb/J9tz+mpqkwINWoFiNpNv8Ve91J6BV3UFbqGv70drMU6ZxuUP4GgPMCYhmIcBQIlUfW8vGhQdGwclc1ZdQl3nOoKel0JKimmTAg1agWQ2m2voCDTje6xi2Uv+g7V1ru02uCRkl9y29ldhUJhxak3yHV59UYkErEjvFvtr2Aww43Ol8zUFpRX9IY193pP0j/vDVasmdAalEvhtJuewEHHddSpDSzbqQxqeO6sWTI2QVas2VAalUwRtLTieD2N+kphIr3qd5crqaohs++qnFKzzQSjM7rfk8Gn31bD7MMSD1UjAEbZ5am1G3aMJC//yCHUMhch2Uomzcz5pCzuUX5eW4SjHyLP5Gh372mlxsMSL2UtLGdi0uRlJ6OkopdKAxKjZUljRflWdt6Y8mQfM3d1MreMCA11o3dk8tvP6a4y6RjQJW3hVkCZdiH+m3/A22anAfxH9Bvm5qZlfCTjklZZEj+Rr2zZkDqraiN7MkwJrtKQYPkans0rYIy7YbH0K5ZPrjLi+UF/pj5CUsb3m8qJaGz3cig0yeM8JsBaYSqNrBJc5AEiiIQcDVtmLYCSune1/pdniy4Lu2b9xN9y8bDAZdum7qN0L5i256zzXRO+PaPJANhI7KRbDIgjVLWQrvyS79OGUZeSUO3Csq6bUcfaJ6U8xtX+Oxk3ovRtoyWUlRM7OEnoZN9yeCCat911Ku6GZB6KWkTO3I31YtipTBWuG0VlHWaZy/s+M36sf4eaOpJc55EMMTZAkxpBlV6BpI2fg4DT71ECKgZVcyANENlk/KgO5CAoKMENKwoMlZ1ywoopRvSvXWat+n6h/IxmX8VOrhdyAWQZPje06oCRLqmEogimrzCnTv5XLSnSbRWNQNSq4I2SV8Oo7MUNFTjmLFGd8UA9h9OMHWdUgKSd3nv6fOnskWVfZOuYKQuVw4hwZtkMKUfI/amVixhiABNGhIkZfv/CxnFq8yKiFXrgwFpE6C0uCHDGMAVvRqtmZFSAhKOei/d9HT+s9VpQNfhBvAp70Ms7gYiT1OpB7QSgJIR6r2J0tDpF/lBZ/+ipQ70SsuA1EtJi+zIY8YklN/ZomMEMQtKCUjiuu6Ffn86+1clEsqXFwOZ1J32BHEWDUVQlF64lNqxhOrV2zMFBQcKpxPU1T9M/KdnQTg3nWQGjivJ08xvGJBmqq1zXvJsqgulesNY4aYZUEpLIOBT+vZ/pniPXvJIupARkT9Sehk1yQ4D0iSh9c5GXmcEyl9S0jEyVvXTSCil6OipP/h7QSxr3evBfSbvsNW7RvSxx4DUR0dTrRgdGfWGUnpBS346veIJA+qDEAScda4v40Xavsejx233yI6pFVopMwakVcqrzNeoMWNt7siRUpqAifZdEOqDI7nz3GDB2U5iuKC7FM+dSQ2Dguh81+n9/qleD4JFRgZkbc3Pnr+3CkZpY3phofuJb880eiLs/65lNDcPSNExpc2YMxdLvmufcd8mvz2VtY9XLELapy5q9ITmwAOg/PkqA8eMv3AiHECYS5/izLj0nHTIeVeC5yAhfuXXgVAfnCk9EUxsUKff6FXFMSK3ZW4yIC2TXnnG8jqjH2Xla3Amno6oBGOFt9IrzM1Peg6C+DspipTSE3gkAaGwN2XgMz/W+Jy3ckXi90sGpM3rNgJjSbR7UzUXS7pfFKkT+azC/6tqS34a/aTnAKckUlIf3HWH+AtOk+SMiZsMOyWhubw2McCAtElFXM2NyKmNQhA4zI6MIN7nSWbZ5OrkyZkIh9uTeJDjrnSsKVJK64yeet1e7fHgwadsLLVtXGNA2qYqfu5I5NSGdITKfBi5pP8lGaUv1iaNBGVCQtKXFKUdOMcv36OUJnQ8dfsHUXqu4Y1/PFVYmz32e3Ye0pZtIBIZC0DgND0ywvscySqbolQYqfva7GTqZioUDiA8QAhAKUAFwJPW/QIfEnt1e0z9xcFK/YiX71iEtFlNRiKj1E01H0aS8D8k0/eKGkm2v4IGtAy3gne0J5zjChX9C891wDe3R/kYjpq84ykNA9JGtWkpjEh4mmT5ptpIjmvSFQakTard2gkc95MkMzDNJlJc024wIG1Q/dHegaOby9I1FdT5BMkOva6bTWZIkwIMSE3yaU8cWWcsre12OO05VbEgwQjnoyQrNF1328ygagUYkKql054wsh1OOulv+g4cUO4Rki3O0F4KZkFPBWwJ5M5XkoYiXJoTLMG6wS9ihFX3m+gpdFVb8sl3aUOc9GPydjhQ7iGSLb5jZPmYbXUK2A7I3dMSboLg2yEVh4qAvwDrh0zC8HiCki6FC+kofyDCdBidj5DsEIuM6ngxPJWtgNw7LXmAECrZRqRLjCLn7qjgQ6AAawa7cTOZ+NPj1IYLY1QGlsIocn8gw8S3jCobs6tdAdsAuWtq8kAaKtnKOSudLI+UT4LSX4CcIW5kxzKUkW6qdITK/DEjm8DRTosJFmwB5N5p9bLDwfx1P7vmoUrhZSgLkTPEFZtQ0vWoBw4XLZlNpdyDJFucZUJ7YlloVMByIHe9UXc4/JfXVO6mVlemSKRcP8SNEbEUKS2GkU3gaITEzOSWArn39fSbhcClz5XAWCFKrI0p6RakI4wfrDjPyGZTzURJn7wsA3L3PxqMEAMXV9fUTa0pUvouY/XQybjZzrOvDEZ9Gum1ZMUSIGUYfRdXX20CR6n4kUi5YfAkDLMjlHQNGsCJs5acZwT3B5LFZlOVtiU7fWc6kBKMNHhxdTTd1NoiZcYU/MpOokbGjOctgvH3JEt82056MF+UK2AqkLteTehHg76dWiJj1aJFJnrWDZ2M4cqLbdyXFkdGBqNxVWuKZVOB3PFawnUuV/r34SunoejGMoUSRJZE1g2dZC2UDEaFFcY+q1YBU4GUvNj7VocBRPBtMwLKYAE2DZ6MDCvqOzKBc86SbipbZ7Siyg3J03Qgy6Hs2IcIpbuNgNJfgI1DJyPLELWqMUpzUB8U0phR1cvFqn2VzzOyjeKq9bNhQkuAlHTYM6Ndd44G9hsBZaAQG4ZMQrYZetOVSIfHsnVGtgPHjEo2MQ/LgCyPlO37EMFvSKQMFGHDkBeNhTLSTZUio/pnxNVUNouMalSLiTSWAikplPtOx74Ile4S/Kejf1mpBonldcpibB7y/zDUiJqgW5GGEH60CEYWGY2oVBvYtBzIylAa0n01AMrIOuMlK97aADCeZGGODdoOc8EABWwBpFSufTM7DhKFks3h0jOyT9Jlu9KPdPEuOPz8wc8ohNA7UspLGy5ckF0w/XAxRpFsLImi+OzTGFNANyBzp7cfd+XCV5OEIB7LeAn/VKND7rQWjf3F391MKXLcwBW/E8QBT0dP/a5PUQSHBfIP8Lzrl+cla8vrp1MiGm8eoDloBOAHi2AcTbKxuLayst/HtgK6ALlvZtvRwaJvFko7cKSnqn2XcWvWVHyitzR7p7cf5XDXX+C7tMPFu3/5lkRN+UX2vm4c7MYwNUe36Fo0kfemWhIZ2bUberclu9rTDGTuzOvHhIqOza+8HU7w+6ivAL/Lmorlehf84CtdvUJqnRn+S1vHqIKyEFsudEdmNFfcWwzjwyQ7NFNvHZk9eyqgCci9Mzo8EC4+Pudqe1PDfp8YKMJtmS/jYyOKvn/2wL/5Lm2bqAbKYBE2ne+GbCVQ0jVoBhdOWxIZifMBkhmaa4R+zKY9FVANZO7MTmNCJXnzazrPGPb5woES3J35EpYaUfz9czMX+85vvEsVlAVYP3gyhtXYzd2AFuBwyhIY4ZxAskKzjdCN2bSvAqqA3Duj7QPh0m/mKDlcLEEZLME9aid6apJu/7TuqUhJyQ8WbOEqbqlTKrU0pgzWAKWlkRHO8SQrxJY2lFZmHH0XNZD7ZnYcHSw6Ik/gKIVAgjJUjAlDX8Y8vbXbO6PTyFBR3ofRRknJDxnKYmweXGXzAF2JpkjAGUsiI3WOI9mhd/XWidmLDQWiAjJ35g3jQkVHZ0cDY4UMYZ8vFCjBaL27r1tnNk9LEPl8wX+SKP0D8bOqoT4E8rF78GT0k/6/5FN0TKqDPFPXGKWM5bc2+PtIljA/NpoO89IIBRQDmTuz/bhQyVezlXRTq3PUd8l3jAf6D5qCAj0Ls3/eiM3+i2sGX+1ZbUX5UB8EHw7VbeT4Y4e24Q3WREZ+LMkWFijyl30UtwooAnLfjOvHB4uPzVITGSsr5y/0nR3yAprqrWbumx1vC5UeWcq5olubrPBDFCiSUxPQqV2BubtvKiKjyI8hw4T39NaF2Ys9BWoFMvfN1neFSk8s1gqjJI0UIYdOwQ16y7RjSkJ/iL7tasaRP8HY8Qog6O1ZLfakbiqD0WTR7Z1drUDue6f/i4H8Hc+raexVi156wbc/62X00FuSHS95syCUrY/WR8thJPwYkskio97tIZbt1QqkVLi8JXcuLPr2g9HRNviqwvh+9H07dDLa6i3Yzlfq3I5w0ZJouqyWw8gio97NIC7sKQJSKunhj8bMLTm+4D4tUIZKfYUoQ/OBL6NET/V2v95htug/Pk7ppI7lMFL+HpItLNJTA2YrPhRQDKQcKT+6/72i43PvUQtl5Ha4zKGTkKOXfHkzOib5eVdBuPSAQ8myh/Uwgp3a0Kvy49BOVEBGIuWikuML7lYFJfWh7BxWZ76m38XGe/7RqHf4yvk9SvxhMMZhC46zIkUNpBwpP3lgcdHRd+9SczYxfMXnD5SiV+ZLyNOq5cFXGnqD7pQDgv/rtrXd82o9jKybqrW+r4X0qoCUhDny6YQPCo/MGqUGytKzvn11SnFTr1kIaRF516v1RouB/IW1RUfLYQR/L8kSFmopK0t7bSigGsifQRnlYWFQH0q/x7Ksf+B3amXe+XLCAAi+bbXNrFoOI5tNVVvF12Q6TUCWQzn+g8Ijs0fVFqV+oS71wXceHw6ZijsIELlBR1kd7HzJezfEskW1bVawHEbKtsMpq1H2VYUCmoEsh/L3HxQeeUsdlD/iBOXw3xmTcKC2atnzsrdRmLrnQLj869r+ADAYa1PLtP3GAAAF6klEQVST/d6OCugCpNYxpRiWT1x8QYHJSMSmSx1RUHGaP3cq6gcD/HDiTLtHDP6YxbvgtP8EDm4j2fiXHSuc+WRvBXQDUirml58+8EHxkXejj5QRjaR1Sir8+wrIn8I4AWrrnlZ8a3lkFDGSDMNH9q525p1dFdAVSDlSfvbQksK8t2+vrUtphCCWw8j2phpRrdeUTd2BlKH8ZPySwqOzTYXSchjZ0sY1BY5RhTUESMnZvE/GLS46OkfV5oFoC2s5jIS/g2QKhlzkFa0W7PvYVsAwIGUoP75/UdGxuXer2TygVFbLYWRjRqVVxb5ToIChQFIKkvfRvYuKv3ov6qsaFfgOBqMSldg3saSAoUBKQkhQHlvxyJKCw9Nv03Oix3IY2QROLLXzmPHVcCBlKCeCO9pt/KLCo7Pv1KP7ajmMlK0zxkwLjzFHTQHy31BOWFB4dNZoLVBaDiPBSJLJ1hljrJ3HjLumAVkBZV6n0XOLv140Rg2U1sPIZlNjpmXHqKOmAlkxpjzy8f0Li47PjeqQs+UwiriDDDPmjZIYbTvMbQMUMB3ICiiPfjp+sTymVHB0y3IY2ZjRgKbHTF5NAUuArHAk76Oxi4qOz69xndJyGIHbSRY+ZM2HKWCGApYCKRUw76Ox84q/mj/2apvHLYeR8qNItrDEjIpgeTAFJAUsB1Jy4shHY98rPD7/Z7fZ2QDGO0m28E/WTJgCZipgCyClAh/9eOz8gmPz5WfKGYxmNgGWl50UsA2QcqRccvtbhd8ufSilfho6WfXWBsffSTJYZLRTI72WfLEVkJLw59bdt7WxY95Ai95nvItkCR9cSw2AldVeCtgKyLINjXskOi7vM10i6RUqyrMxo+nCswyrKmAbIOkaV2c4gofhcJtbSwxGc/VmudWogC2ApOvQBRwOWQIj4e8mmcL7rJ0wBeyggOVA0vXoCh4HLRkzsleo7NAGmQ+VFLAUSEthhPNekhVi1/szHGylgGVA0hx0h4j91nRTnWNIZug9W9UEc4YpYNVOHbre2RsktMcSGFlkZA3fxgqYHiFpjrMXxNBea2B03UWygmyd0cYN8lp3zVQg6QZnH3Ch3dZM4LjuJNlBtjf1Wm/xNi+/aUDSDY7+QHg7i4w2bxHMPUsVMAVIutEzBNS/yRIYOed9JCM031KVWeZMAYUKGA4k3ZT2GwgFyyyBEWzMqLAdsM9sooDhQIZ298nkudQNpHQtTBs7StvhONedJIONGW3SzpgbChUwHEjJD+HLZ/9IfF+8ZgqU8t5U1yiSHWQn/RU2AvaZfRQwBUipuMEjf/6Do2zvDEOhlGBkD9/Yp3UxT6JWwDQg5UiZ9/yj5EruG4ZAybqpUVc+S2A/BUwFUobyyP8+Tsr2/ENXKBmM9mtZzCNVCpgOZDmUf32clO3SB8pyGEeTjOBiVQqwREwBGylgCZDl3de/PEau7H5dU6SUx4yeMSTTzzaK26hRMVfUK2AZkPJET96fH3Fc2fumKijlyOi5j2T42aK/+vpnKW2mgKVASlqEjzw7jiv7YnZUULLIaLNmxNzRSwHLgZS7r4f/5yHiP/CWIijlyOi9j2SUscioVytgdmyjgC2AlCPl4ace4PyH5tQIpQQjnzyBDC2ZbRsFmSNMAR0VsA2QcqT88ukJxHfwnatCyWDUsdqZKbsqYCsg5Uj55VPjOd+hWT+DUu6m1nuEZOTPsKuQzC+mgB4K2A7I8u7r46M5/9GFMpQiAC79EZJxicGoR40zG7ZWwJZARiZ6HiNlW18jwQtPk8EnptlaReYcU0AnBWwLpFQ+mntLc9JrxWmdysrMMAVsr4CtgbS9esxBpoDOCjAgdRaUmWMKaFGAAalFPZaWKaCzAgxInQVl5pgCWhRgQGpRj6VlCuisAANSZ0GZOaaAFgUYkFrUY2mZAjorwIDUWVBmjimgRQEGpBb1WFqmgM4KMCB1FpSZYwpoUYABqUU9lpYpoLMCDEidBWXmmAJaFGBAalGPpWUK6KwAA1JnQZk5poAWBf4/m9O5sDjn0ogAAAAASUVORK5CYII=;rotation=-180;" vertex="1" parent="1">
          <mxGeometry x="629.04" y="740" width="30.96" height="30.01" as="geometry" />
        </mxCell>
        <mxCell id="znCDfpoOOdXMXpQ7IVTM-44" value="&lt;span style=&quot;font-size: 25px;&quot;&gt;Ассоциативная сущность&lt;/span&gt;" style="text;html=1;align=center;verticalAlign=middle;whiteSpace=wrap;rounded=0;" vertex="1" parent="1">
          <mxGeometry x="570" y="660" width="350" height="30" as="geometry" />
        </mxCell>
        <mxCell id="znCDfpoOOdXMXpQ7IVTM-45" value="" style="edgeStyle=entityRelationEdgeStyle;fontSize=12;html=1;endArrow=ERoneToMany;rounded=0;exitX=0;exitY=0.25;exitDx=0;exitDy=0;entryX=1;entryY=0.25;entryDx=0;entryDy=0;" edge="1" parent="1" source="znCDfpoOOdXMXpQ7IVTM-2" target="znCDfpoOOdXMXpQ7IVTM-38">
          <mxGeometry width="100" height="100" relative="1" as="geometry">
            <mxPoint x="800" y="860" as="sourcePoint" />
            <mxPoint x="950" y="800" as="targetPoint" />
          </mxGeometry>
        </mxCell>
        <mxCell id="znCDfpoOOdXMXpQ7IVTM-46" value="" style="edgeStyle=entityRelationEdgeStyle;fontSize=12;html=1;endArrow=ERoneToMany;rounded=0;exitX=0;exitY=0.25;exitDx=0;exitDy=0;entryX=1.002;entryY=0.415;entryDx=0;entryDy=0;entryPerimeter=0;" edge="1" parent="1" source="cfdrwB-0t9WhW7MWjaBJ-73" target="znCDfpoOOdXMXpQ7IVTM-38">
          <mxGeometry width="100" height="100" relative="1" as="geometry">
            <mxPoint x="1340" y="1020" as="sourcePoint" />
            <mxPoint x="1440" y="920" as="targetPoint" />
          </mxGeometry>
        </mxCell>
        <mxCell id="znCDfpoOOdXMXpQ7IVTM-48" value="" style="shape=image;verticalLabelPosition=bottom;labelBackgroundColor=default;verticalAlign=top;aspect=fixed;imageAspect=0;image=data:image/png,iVBORw0KGgoAAAANSUhEUgAAAOQAAADdCAYAAACrIt7oAAAAAXNSR0IArs4c6QAAIABJREFUeF7tnXd8VVW6939r79OSk4QECE16Vbp06SnAHceZudeLioqCCuiMdRy9lrkzwx1fARVlVEAFpAjogGMDpEPoNUgzFAsgCFIM6Zy693o/e+fEiZEk++x+Div/QfZ61rN+a33zrL4I2A9TgClgGwWIbTxhjjAFmAJgQLJGwBSwkQIMSBtVBnOFKcCAZG2AKWAjBRiQNqoM5gpTgAHJ2gBTwEYKMCBtVBnMFaYAA5K1AaaAjRRgQNqoMpgrTAEGJGsDlihAKQi2DqoPj9ggTPmGhCYkEz6xKbgkL4jLJZIEBxAqJQhegnilhKdlF0HDl0D8+ei5KZ8QUEscNzhTBqTBAjPz5QrQnKEOeD03inzdG6mz6e/gSMwkvkMe4j8IEvy2/CPxKmpxkfSuNoCrDcTkIaBc0pegdA0RS/fxZce3k14LT8eLzgzIeKlJG5aDLr2NR4vL/UW+3q+pp+kzXNFnIP4IfBHQZLc5d+3ei4F/f1MBrsMNoe5DEN3ttvFCyUKu5OAq0uefZ2o3Zt8vGJD2rZuY9Ywe7OpFsMUoJLSYhEvTG8iRrwJAJfBFU3IJ1Ih9If1JiK5mH5DgtzMcnervJGTi1WJuNNZN/5YBabrk8ZuhBKLoqzsOzrRpXOEnRIZQbwBrki8CJ00ZDqHuyD0oy3va0SVtWyyByYCMXz5MK5nUNRWanRlJnI0Wc0Wf8qaDWLWklcGsf+dG0ff14+6Ok740TRANGTEgNYjHkgJ0R5frBU/XjXzB4saWg1gNmEKDx0HdrV9w/HhqMuk/zWfnemNA2rl2bO4b3XHDvQidWAApIpnZNY1Wl4h/oeZvfUtL997q7vLWoWhNmPU9A9IspeMoH7qmoRf1uq5H0bp+cCiYIbVL2cMBCA2fBOGSHuE7/n2GXdyq7AcD0o61YmOf6K62TSlp8jUp3eKJKRgrNA0HQJMGIJw+ZqGz1YQxdttgwIC0ceO3m2t0S6OOlPfmyQv5du6i1iac1IV1uhFqNmebU9wwjLSa768tiVm/Z0CapXSM50O3pnaD6Dtg+/GiUp0jGw1Crd/f5xTXDrQLlAxIpRV4DX9Ht3i7Qig7KEsQy5GxmlnYUJsFuc5zKwaT/h9aPgPLgLyGQVNSdLotsQkE4WzcRMarFVoMINR6ca7zbO5gq5dFGJBKWuU1/I24szsl/gPxFRmvFikBhFq9l+v8cdsQ0mvWFauqnAFplfIxkK+wb6SfK/6XO666qdXp/tOYctFe59l9Q6yKlAzIGADDCheFbde/yAWOPW/o0kbFCQ5pC7iAUggoAIVQPlaFBwQ8HEiP/LtcBqPHsGIA4ZZzdjuwbagVEz0MSCtau83zpDmpLSEWnjQExgoIwzKAn4BiFkqwk9weAbEabejnaA+KMeBxJzxoZSicMpRzdznC+4eSdm9WOvdlfMUxII3XOOZyEHf2DhD/Xpeu0UgCUZBP+R+BgFFkBFRv9qYrkQKKV+HCvXBAXz+l2or80Qi3nLXDgR1ZZkZKBmTM4WKsw8LW9pO54FfP6hody2E8igAyya9xXs8S0GV4HYl4CE63S0+7P0HZYuY2B9lj2uYBBqSutRjbxigFh00QdIuM5SAGIWI4GY7NRqlDc5CEYixDCjJ0871ypGzx7nYH2ZptRqRkQBrVSmLQrriz71ri3z1Ml0ZdDuMF+NCa/AamLCPQT/AqUvGkLv5Xrr9wAOHWc3Y6sC3TaCgZkDEIjhEu06XgkY6wLo1ZPiDM7SNZYi8jfK3JJv0EdyIV7+tSjsoZSZsHWr2320k3Gjr7yoA0u8XYND9he7d5XPDgWM0NWYKRJu4jmVdMh7FCWvopslEH6zSXpQqQ0j/DLd7e7SC7DIOSAWlTQMx2i252a7/nVAyAkuSL3NCShmb7XzU/uhxZSMJ6Q6BsOXe3A1sMgZIBaXXLsUH+dKN7BGhgteaZ1XDAj3wk1bamaFaRDYmUcpgMINRmYa6Tbhik95iSAWlW67BxPsKOQee4wNbGmqJJOACE0UXL+qIREtEVyIZX5+5rZAY23PLdHY4fVmfreUqEAWlEK4ghm7pM5sjjxtTPSWbhLXYsOl2O4UjCGk1/cK5WMGlHT4s52x3n84bptfeVAWnHFmSiT3Q9eoNgj6buavnOlmSSgVITXY8qK0O6rxU7elq8vd0h5GXpsc2OARlVtcbfx3RP/y0o2zFIdfSQo2PybJJZMsHu6hgJZbD1vLXuFveN0KoBA1KrgjGeXtzWSiChk5xqIKWxI4c0koHCWJCCLkMmkrAOvLvy6yLaXI/c0eNvPP39hDbj79ZijAGpRb04SEtzQFXDKC1zONt/xw38qmUsSUGXYyi82KA3lDRpOMTEXvc4Ok1apFYPBqRa5eIgHV2ORCSiTPX4UYqOcP+WZAWWx5ocdDlughfbwbv1Y0C697XJ38M8vdCWdJzxnRpN9HNGTe4sjaUK0PXoCII8TUBSNCLZuGBpQVRmTpejD5KwW3UP4Wr5SmuUrebsd7Ue10ONWwxINarFSRq6Fg/Cibc1NciygIfcDFMP8eopP12GfkjGTk0aVHZI6sa72oDWufURvvMrUd+OzoDUs3ZjzBZd75kN3j9OVWMUAxAThpzj+22+LsaK/Qt36TL0QDL2qdKhmigpNP4/H3/lbGPSa1ZRNPowIKNRK86+FTe3+oKIJ29U1RClSODJXMHdtPE38SAL/Rx9kYCduo0ppa5rs6nzXO2fuj8afRiQ0agVZ9+KW1qcIsJ3LdQCCeeNU8jA/c/Fiyx0BfojEVt1mX0VAxDqPw6eoy1IpzdOK9WIAalUqTj8Ttzc5BwRz6nbwyqtvfFNHyWDv58eT9LoCqUUJZv8dbHrhr+PVqoRA1KpUnH4Hd1U/xToj+oipLTk4Wz2JBl8Zlq8SSOvUyYhR1XPocoED677G0Au1yHt3ixWohMDUolKcfoN3ZR+FPTS9aoanjSpw3eezA/+8vl4lId+hjFIwXxV2lSBUqz/8ON8lxlvKNGJAalEpTj9hq4lK+Gkv1LV6CQgnb3f5wfu1bRVzM7S0k/xFurgIVX6VBRMntx59YyzXUlLQiZKV0LX+MOArE2hOP49XYEn4MU0VQ1OAtJ7y1d8nxUd4lgi0M+RhyR3R9VllGajk4aDOBt3Jt0X5NVmhwFZm0Jx/Hu6Ap3hxWG1QFJPd5B+B3hCUOtf/liVka5CS3hwUpVGlaJkOP3hl5xdZzxbmw4MyNoUiuPf0zXwwoVS1Y1NmthJaFqP9P/+chzLBLocK5Di/rXqMkp7XJtO/dbR4am2tdlgQNamUJz/nm4A1bSXlW84gQy9MDueZaLrUAc88sG7eVXlrFiTDBU3ID3mXarJBgNSlcLxk0gTkNL4yN33BNd/d5v4UeTqJaHLsQcp7t5ayhlOHpbt7LFiAwNSi4pxnpZuwHdwuJurLqa0QSChbTPS75vvVduIgYT0YwxEGrZq6d6LdW55nu+1YjIDMgYq3CoX6Qr8Fl58prqhSVEyYeinXL9N/2VVGczKl65DKVxur6r8pOcI0h9b6ez6Ro1jUdZlVaVu/CSiO5AAH66oHkdWSMG3vJ4MPH48fpT5ZUnoahxBgvsGVWWUbqhLf+qYs/PUGtMzIFWpG1+J6Dr44HJ7VJdK6rYm/+oAeq7qGddLIJ9iMurgWVW9CUmjJn8Oo/2LLkLkdzKv+sOAVN0K4ychXYF34cX9qhpahQzhAMSUW57he694OX6U+XlJ6MfohjQcUKWTtJEi9W5wLk890undapeJGJDx2nqiKJfmu3WkvCIn5QW+9Qhnv3Vro8g+Zj6lK5EOD86Bdzuidrpixw7vuY70WHaORcioFby2EtC1uAi3O11TqaUokPyfIkd8HUjPNd9osmXDxPJGCgd+hENF914+0N0dhKS3J/3Wfc2AtGEF28kl3a7bl3alpN59kQ/80IP033jWTmXUwxe6DmVwuROjthXpQRA07EIG7PiSARm1gtdeAtWNrapUEpR1x1zkAxd7kn6r4mp9UrVGFUDy9buRfrsPMSCvPb6iLjFdjoeRhOmqJi2uBmXaPRd4saAP6bVC8RUWUTttYgL6GZKRiEtwud1RZ1vRZRW815OB26tdHmKTOlErG98J6DpcgcudoEsppUiZNuYCj0t9SY+Vqi4O1sUPnYzQNWgFF06o+oMlAZk4AIRHC9Jre7V/oBiQOlVWrJrJmQhHcuOepGfaPlF6aDW0HFkOPV8eLu++XuKFs71Ir/UxHSnpSvwKCVipFkixzihwKGpAeqyqdoM5AzJWSdLo9/63GrUEUv9GnOm3gnCcy52Sm8AVvBROPZ/TxvHNCeJ2N9GYxb+Ty5Hy3ou8eLl3LHdf6TLMRjJU32Mr1H80zHd+k20M0K1hxYmhvVP5kaGg8CHhAS5yoEgUACoAdZv1eKdZnWPvJiZe2QWnji9EyZHy/nxeuNgjVqGka3AWHpV/qKQlobrjD/PdZnetqRmxCBknkCktxu4p6CaIOMBXM0wUAj6ktrptZ7vm+T5HcGOmqu5Zdc7IUI4t4AMXusba7CvNhRMFKFa9xVAu+x3zHDcuqfHiZAak0pYcJ9/lTuP8giC6Qaqft5GgrNf58UvtGh9NJ6VroT+UD1zmfRe6kv4rYmadkq7ESCTgQ9VayFsLb36S772yxmszGZBxApqSYixdCr7pNwhXFx0r2xCDPqR3GYvWaVtBwjovJcrR4r7LvHDpxljpvtKVOA6vu70Snav9xt05k/Tbl8O6rJpUjJ/Eue/AGbqMIOdStqohhn1o2HYgWjXcCwg66yBBWW9cIR883ZX0WXtGZ+u6mqNrcD1cOKo6OlZsLC87lUIGbi9hQOpaPbFrLJoIWVFKGcoW7dCq6WmDoJxQxPvPdLbzmJKuwgEkuruprnnpTp20B9c5ur8zvDYbrMtam0Ix/vutk5HmFOFyuCGESxEkSSh/Hq2GMWTVIosCRcOGQKs21CAoxxfz4qkbSI911Z6CsKoa6CoMhEfD1R2S49L4MfWOR/meS2p9B4UBaVVNG5zvnimuTiSp5c5Q8VfJMn8E8Db5bRHvSalTemZRVEBK6Q2HUtr7euWHLmTA2osGS6PYPF0JN3ich8edqjjRL/6aRU551LJlriIZA1K10vZNuH0SRhLgQ95VJRJSX7nTUUTHyqU0HMq0ey7yvgu2gZKuxna40V/12DESHYW6o7c5blw0SEmLYUAqUSmGvtk1ESmCE4UOT4IhdWs4lPXGl/Fl37W2OlLS1ZgCN57RBKPctQhA8GaNdvTZsFhJMzKk0pRkzL4xRoGdLzdcT3Ahi/DKZlLVeGE8lOPK+OC5tqTPyvNq/NOahq7Eo3DjDc0Xf0kw1rm7kD9/uRG5eVVAiV8MSCUqxdA3O6eglHPAq7ZbqrSoRkMppo70c+HijqTv2pNKfdLjO7oSL8KN5zXDGOmuigk9HuX7f1HrZA4bQ+pReza0seNFFPBupBoNpNwbM3L2VTqu5B1GiejrTfpt22e01JSCYD1ZBQcdobmbGumqypdacYeTSLdDZUr9ZxFSqVIx8t2Wv2GDOxmZZgBpBpRyHt7/XMC5TzwcTcOOprroBrQBh/I7gLjozx5fNS9p40Ny9v2OPuvnReMLAzIatWLg2+1/RgvixSkl2+P0Ko6hkTLS9aPeQT4iBm7HTXtW6nX3K92KNAQTPgF8Q3TpolYIKo8d7/qRP1/QVOnYkXVZ9WqNNrSz+Xn8y52K/zZyYqdqsQ2HUrpoWATEpKxCLlzwJErPLkXRBb90qDqaKpBPbeSjKfU0/oCEf+gLTseoWNkRR6v+ZMCxndH4Jn3LImS0isXI91v+ih2uJNwUV1BGxmby87AON8SErBNc8NybEM5+Dq/zLIIcRaFHRIM65Q/IluTzwCnpDlUHwp7uNKHlX4hwMlPaOWMYiNKunKQBb/J9tz+mpqkwINWoFiNpNv8Ve91J6BV3UFbqGv70drMU6ZxuUP4GgPMCYhmIcBQIlUfW8vGhQdGwclc1ZdQl3nOoKel0JKimmTAg1agWQ2m2voCDTje6xi2Uv+g7V1ru02uCRkl9y29ldhUJhxak3yHV59UYkErEjvFvtr2Aww43Ol8zUFpRX9IY193pP0j/vDVasmdAalEvhtJuewEHHddSpDSzbqQxqeO6sWTI2QVas2VAalUwRtLTieD2N+kphIr3qd5crqaohs++qnFKzzQSjM7rfk8Gn31bD7MMSD1UjAEbZ5am1G3aMJC//yCHUMhch2Uomzcz5pCzuUX5eW4SjHyLP5Gh372mlxsMSL2UtLGdi0uRlJ6OkopdKAxKjZUljRflWdt6Y8mQfM3d1MreMCA11o3dk8tvP6a4y6RjQJW3hVkCZdiH+m3/A22anAfxH9Bvm5qZlfCTjklZZEj+Rr2zZkDqraiN7MkwJrtKQYPkans0rYIy7YbH0K5ZPrjLi+UF/pj5CUsb3m8qJaGz3cig0yeM8JsBaYSqNrBJc5AEiiIQcDVtmLYCSune1/pdniy4Lu2b9xN9y8bDAZdum7qN0L5i256zzXRO+PaPJANhI7KRbDIgjVLWQrvyS79OGUZeSUO3Csq6bUcfaJ6U8xtX+Oxk3ovRtoyWUlRM7OEnoZN9yeCCat911Ku6GZB6KWkTO3I31YtipTBWuG0VlHWaZy/s+M36sf4eaOpJc55EMMTZAkxpBlV6BpI2fg4DT71ECKgZVcyANENlk/KgO5CAoKMENKwoMlZ1ywoopRvSvXWat+n6h/IxmX8VOrhdyAWQZPje06oCRLqmEogimrzCnTv5XLSnSbRWNQNSq4I2SV8Oo7MUNFTjmLFGd8UA9h9OMHWdUgKSd3nv6fOnskWVfZOuYKQuVw4hwZtkMKUfI/amVixhiABNGhIkZfv/CxnFq8yKiFXrgwFpE6C0uCHDGMAVvRqtmZFSAhKOei/d9HT+s9VpQNfhBvAp70Ms7gYiT1OpB7QSgJIR6r2J0tDpF/lBZ/+ipQ70SsuA1EtJi+zIY8YklN/ZomMEMQtKCUjiuu6Ffn86+1clEsqXFwOZ1J32BHEWDUVQlF64lNqxhOrV2zMFBQcKpxPU1T9M/KdnQTg3nWQGjivJ08xvGJBmqq1zXvJsqgulesNY4aYZUEpLIOBT+vZ/pniPXvJIupARkT9Sehk1yQ4D0iSh9c5GXmcEyl9S0jEyVvXTSCil6OipP/h7QSxr3evBfSbvsNW7RvSxx4DUR0dTrRgdGfWGUnpBS346veIJA+qDEAScda4v40Xavsejx233yI6pFVopMwakVcqrzNeoMWNt7siRUpqAifZdEOqDI7nz3GDB2U5iuKC7FM+dSQ2Dguh81+n9/qleD4JFRgZkbc3Pnr+3CkZpY3phofuJb880eiLs/65lNDcPSNExpc2YMxdLvmufcd8mvz2VtY9XLELapy5q9ITmwAOg/PkqA8eMv3AiHECYS5/izLj0nHTIeVeC5yAhfuXXgVAfnCk9EUxsUKff6FXFMSK3ZW4yIC2TXnnG8jqjH2Xla3Amno6oBGOFt9IrzM1Peg6C+DspipTSE3gkAaGwN2XgMz/W+Jy3ckXi90sGpM3rNgJjSbR7UzUXS7pfFKkT+azC/6tqS34a/aTnAKckUlIf3HWH+AtOk+SMiZsMOyWhubw2McCAtElFXM2NyKmNQhA4zI6MIN7nSWbZ5OrkyZkIh9uTeJDjrnSsKVJK64yeet1e7fHgwadsLLVtXGNA2qYqfu5I5NSGdITKfBi5pP8lGaUv1iaNBGVCQtKXFKUdOMcv36OUJnQ8dfsHUXqu4Y1/PFVYmz32e3Ye0pZtIBIZC0DgND0ywvscySqbolQYqfva7GTqZioUDiA8QAhAKUAFwJPW/QIfEnt1e0z9xcFK/YiX71iEtFlNRiKj1E01H0aS8D8k0/eKGkm2v4IGtAy3gne0J5zjChX9C891wDe3R/kYjpq84ykNA9JGtWkpjEh4mmT5ptpIjmvSFQakTard2gkc95MkMzDNJlJc024wIG1Q/dHegaOby9I1FdT5BMkOva6bTWZIkwIMSE3yaU8cWWcsre12OO05VbEgwQjnoyQrNF1328ygagUYkKql054wsh1OOulv+g4cUO4Rki3O0F4KZkFPBWwJ5M5XkoYiXJoTLMG6wS9ihFX3m+gpdFVb8sl3aUOc9GPydjhQ7iGSLb5jZPmYbXUK2A7I3dMSboLg2yEVh4qAvwDrh0zC8HiCki6FC+kofyDCdBidj5DsEIuM6ngxPJWtgNw7LXmAECrZRqRLjCLn7qjgQ6AAawa7cTOZ+NPj1IYLY1QGlsIocn8gw8S3jCobs6tdAdsAuWtq8kAaKtnKOSudLI+UT4LSX4CcIW5kxzKUkW6qdITK/DEjm8DRTosJFmwB5N5p9bLDwfx1P7vmoUrhZSgLkTPEFZtQ0vWoBw4XLZlNpdyDJFucZUJ7YlloVMByIHe9UXc4/JfXVO6mVlemSKRcP8SNEbEUKS2GkU3gaITEzOSWArn39fSbhcClz5XAWCFKrI0p6RakI4wfrDjPyGZTzURJn7wsA3L3PxqMEAMXV9fUTa0pUvouY/XQybjZzrOvDEZ9Gum1ZMUSIGUYfRdXX20CR6n4kUi5YfAkDLMjlHQNGsCJs5acZwT3B5LFZlOVtiU7fWc6kBKMNHhxdTTd1NoiZcYU/MpOokbGjOctgvH3JEt82056MF+UK2AqkLteTehHg76dWiJj1aJFJnrWDZ2M4cqLbdyXFkdGBqNxVWuKZVOB3PFawnUuV/r34SunoejGMoUSRJZE1g2dZC2UDEaFFcY+q1YBU4GUvNj7VocBRPBtMwLKYAE2DZ6MDCvqOzKBc86SbipbZ7Siyg3J03Qgy6Hs2IcIpbuNgNJfgI1DJyPLELWqMUpzUB8U0phR1cvFqn2VzzOyjeKq9bNhQkuAlHTYM6Ndd44G9hsBZaAQG4ZMQrYZetOVSIfHsnVGtgPHjEo2MQ/LgCyPlO37EMFvSKQMFGHDkBeNhTLSTZUio/pnxNVUNouMalSLiTSWAikplPtOx74Ile4S/Kejf1mpBonldcpibB7y/zDUiJqgW5GGEH60CEYWGY2oVBvYtBzIylAa0n01AMrIOuMlK97aADCeZGGODdoOc8EABWwBpFSufTM7DhKFks3h0jOyT9Jlu9KPdPEuOPz8wc8ohNA7UspLGy5ckF0w/XAxRpFsLImi+OzTGFNANyBzp7cfd+XCV5OEIB7LeAn/VKND7rQWjf3F391MKXLcwBW/E8QBT0dP/a5PUQSHBfIP8Lzrl+cla8vrp1MiGm8eoDloBOAHi2AcTbKxuLayst/HtgK6ALlvZtvRwaJvFko7cKSnqn2XcWvWVHyitzR7p7cf5XDXX+C7tMPFu3/5lkRN+UX2vm4c7MYwNUe36Fo0kfemWhIZ2bUberclu9rTDGTuzOvHhIqOza+8HU7w+6ivAL/Lmorlehf84CtdvUJqnRn+S1vHqIKyEFsudEdmNFfcWwzjwyQ7NFNvHZk9eyqgCci9Mzo8EC4+Pudqe1PDfp8YKMJtmS/jYyOKvn/2wL/5Lm2bqAbKYBE2ne+GbCVQ0jVoBhdOWxIZifMBkhmaa4R+zKY9FVANZO7MTmNCJXnzazrPGPb5woES3J35EpYaUfz9czMX+85vvEsVlAVYP3gyhtXYzd2AFuBwyhIY4ZxAskKzjdCN2bSvAqqA3Duj7QPh0m/mKDlcLEEZLME9aid6apJu/7TuqUhJyQ8WbOEqbqlTKrU0pgzWAKWlkRHO8SQrxJY2lFZmHH0XNZD7ZnYcHSw6Ik/gKIVAgjJUjAlDX8Y8vbXbO6PTyFBR3ofRRknJDxnKYmweXGXzAF2JpkjAGUsiI3WOI9mhd/XWidmLDQWiAjJ35g3jQkVHZ0cDY4UMYZ8vFCjBaL27r1tnNk9LEPl8wX+SKP0D8bOqoT4E8rF78GT0k/6/5FN0TKqDPFPXGKWM5bc2+PtIljA/NpoO89IIBRQDmTuz/bhQyVezlXRTq3PUd8l3jAf6D5qCAj0Ls3/eiM3+i2sGX+1ZbUX5UB8EHw7VbeT4Y4e24Q3WREZ+LMkWFijyl30UtwooAnLfjOvHB4uPzVITGSsr5y/0nR3yAprqrWbumx1vC5UeWcq5olubrPBDFCiSUxPQqV2BubtvKiKjyI8hw4T39NaF2Ys9BWoFMvfN1neFSk8s1gqjJI0UIYdOwQ16y7RjSkJ/iL7tasaRP8HY8Qog6O1ZLfakbiqD0WTR7Z1drUDue6f/i4H8Hc+raexVi156wbc/62X00FuSHS95syCUrY/WR8thJPwYkskio97tIZbt1QqkVLi8JXcuLPr2g9HRNviqwvh+9H07dDLa6i3Yzlfq3I5w0ZJouqyWw8gio97NIC7sKQJSKunhj8bMLTm+4D4tUIZKfYUoQ/OBL6NET/V2v95htug/Pk7ppI7lMFL+HpItLNJTA2YrPhRQDKQcKT+6/72i43PvUQtl5Ha4zKGTkKOXfHkzOib5eVdBuPSAQ8myh/Uwgp3a0Kvy49BOVEBGIuWikuML7lYFJfWh7BxWZ76m38XGe/7RqHf4yvk9SvxhMMZhC46zIkUNpBwpP3lgcdHRd+9SczYxfMXnD5SiV+ZLyNOq5cFXGnqD7pQDgv/rtrXd82o9jKybqrW+r4X0qoCUhDny6YQPCo/MGqUGytKzvn11SnFTr1kIaRF516v1RouB/IW1RUfLYQR/L8kSFmopK0t7bSigGsifQRnlYWFQH0q/x7Ksf+B3amXe+XLCAAi+bbXNrFoOI5tNVVvF12Q6TUCWQzn+g8Ijs0fVFqV+oS71wXceHw6ZijsIELlBR1kd7HzJezfEskW1bVawHEbKtsMpq1H2VYUCmoEsh/L3HxQeeUsdlD/iBOXw3xmTcKC2atnzsrdRmLrnQLj869r+ADAYa1PLtP3GAAAF6klEQVST/d6OCugCpNYxpRiWT1x8QYHJSMSmSx1RUHGaP3cq6gcD/HDiTLtHDP6YxbvgtP8EDm4j2fiXHSuc+WRvBXQDUirml58+8EHxkXejj5QRjaR1Sir8+wrIn8I4AWrrnlZ8a3lkFDGSDMNH9q525p1dFdAVSDlSfvbQksK8t2+vrUtphCCWw8j2phpRrdeUTd2BlKH8ZPySwqOzTYXSchjZ0sY1BY5RhTUESMnZvE/GLS46OkfV5oFoC2s5jIS/g2QKhlzkFa0W7PvYVsAwIGUoP75/UdGxuXer2TygVFbLYWRjRqVVxb5ToIChQFIKkvfRvYuKv3ov6qsaFfgOBqMSldg3saSAoUBKQkhQHlvxyJKCw9Nv03Oix3IY2QROLLXzmPHVcCBlKCeCO9pt/KLCo7Pv1KP7ajmMlK0zxkwLjzFHTQHy31BOWFB4dNZoLVBaDiPBSJLJ1hljrJ3HjLumAVkBZV6n0XOLv140Rg2U1sPIZlNjpmXHqKOmAlkxpjzy8f0Li47PjeqQs+UwiriDDDPmjZIYbTvMbQMUMB3ICiiPfjp+sTymVHB0y3IY2ZjRgKbHTF5NAUuArHAk76Oxi4qOz69xndJyGIHbSRY+ZM2HKWCGApYCKRUw76Ox84q/mj/2apvHLYeR8qNItrDEjIpgeTAFJAUsB1Jy4shHY98rPD7/Z7fZ2QDGO0m28E/WTJgCZipgCyClAh/9eOz8gmPz5WfKGYxmNgGWl50UsA2QcqRccvtbhd8ufSilfho6WfXWBsffSTJYZLRTI72WfLEVkJLw59bdt7WxY95Ai95nvItkCR9cSw2AldVeCtgKyLINjXskOi7vM10i6RUqyrMxo+nCswyrKmAbIOkaV2c4gofhcJtbSwxGc/VmudWogC2ApOvQBRwOWQIj4e8mmcL7rJ0wBeyggOVA0vXoCh4HLRkzsleo7NAGmQ+VFLAUSEthhPNekhVi1/szHGylgGVA0hx0h4j91nRTnWNIZug9W9UEc4YpYNVOHbre2RsktMcSGFlkZA3fxgqYHiFpjrMXxNBea2B03UWygmyd0cYN8lp3zVQg6QZnH3Ch3dZM4LjuJNlBtjf1Wm/xNi+/aUDSDY7+QHg7i4w2bxHMPUsVMAVIutEzBNS/yRIYOed9JCM031KVWeZMAYUKGA4k3ZT2GwgFyyyBEWzMqLAdsM9sooDhQIZ298nkudQNpHQtTBs7StvhONedJIONGW3SzpgbChUwHEjJD+HLZ/9IfF+8ZgqU8t5U1yiSHWQn/RU2AvaZfRQwBUipuMEjf/6Do2zvDEOhlGBkD9/Yp3UxT6JWwDQg5UiZ9/yj5EruG4ZAybqpUVc+S2A/BUwFUobyyP8+Tsr2/ENXKBmM9mtZzCNVCpgOZDmUf32clO3SB8pyGEeTjOBiVQqwREwBGylgCZDl3de/PEau7H5dU6SUx4yeMSTTzzaK26hRMVfUK2AZkPJET96fH3Fc2fumKijlyOi5j2T42aK/+vpnKW2mgKVASlqEjzw7jiv7YnZUULLIaLNmxNzRSwHLgZS7r4f/5yHiP/CWIijlyOi9j2SUscioVytgdmyjgC2AlCPl4ace4PyH5tQIpQQjnzyBDC2ZbRsFmSNMAR0VsA2QcqT88ukJxHfwnatCyWDUsdqZKbsqYCsg5Uj55VPjOd+hWT+DUu6m1nuEZOTPsKuQzC+mgB4K2A7I8u7r46M5/9GFMpQiAC79EZJxicGoR40zG7ZWwJZARiZ6HiNlW18jwQtPk8EnptlaReYcU0AnBWwLpFQ+mntLc9JrxWmdysrMMAVsr4CtgbS9esxBpoDOCjAgdRaUmWMKaFGAAalFPZaWKaCzAgxInQVl5pgCWhRgQGpRj6VlCuisAANSZ0GZOaaAFgUYkFrUY2mZAjorwIDUWVBmjimgRQEGpBb1WFqmgM4KMCB1FpSZYwpoUYABqUU9lpYpoLMCDEidBWXmmAJaFGBAalGPpWUK6KwAA1JnQZk5poAWBf4/m9O5sDjn0ogAAAAASUVORK5CYII=;rotation=-180;" vertex="1" parent="1">
          <mxGeometry x="875" y="479.99" width="30.96" height="30.01" as="geometry" />
        </mxCell>
        <mxCell id="znCDfpoOOdXMXpQ7IVTM-49" value="&lt;font style=&quot;font-size: 20px;&quot;&gt;Поставленная книга&lt;/font&gt;" style="swimlane;childLayout=stackLayout;horizontal=1;startSize=50;horizontalStack=0;rounded=1;fontSize=14;fontStyle=0;strokeWidth=2;resizeParent=0;resizeLast=1;shadow=0;dashed=0;align=center;arcSize=4;whiteSpace=wrap;html=1;fillColor=#C5B4BE;strokeColor=#6c8ebf;" vertex="1" parent="1">
          <mxGeometry x="1339.04" y="440" width="360" height="210" as="geometry" />
        </mxCell>
        <mxCell id="znCDfpoOOdXMXpQ7IVTM-50" value="&lt;span style=&quot;font-size: 20px; background-color: rgb(102, 255, 255);&quot;&gt;Уникальный номер книжного издания&lt;/span&gt;&lt;div&gt;&lt;span style=&quot;font-size: 20px; background-color: rgb(194, 224, 255);&quot;&gt;Код поставки&lt;/span&gt;&lt;span style=&quot;font-size: 20px;&quot;&gt;&lt;br&gt;&lt;/span&gt;&lt;/div&gt;&lt;div&gt;&lt;span style=&quot;font-size: 20px;&quot;&gt;Количество экземпляров&lt;/span&gt;&lt;/div&gt;" style="align=left;strokeColor=none;fillColor=none;spacingLeft=4;fontSize=12;verticalAlign=top;resizable=0;rotatable=0;part=1;html=1;" vertex="1" parent="znCDfpoOOdXMXpQ7IVTM-49">
          <mxGeometry y="50" width="360" height="160" as="geometry" />
        </mxCell>
        <mxCell id="znCDfpoOOdXMXpQ7IVTM-52" value="" style="edgeStyle=entityRelationEdgeStyle;fontSize=12;html=1;endArrow=ERoneToMany;rounded=0;exitX=1.016;exitY=0.13;exitDx=0;exitDy=0;exitPerimeter=0;entryX=0;entryY=0.25;entryDx=0;entryDy=0;" edge="1" parent="1" source="znCDfpoOOdXMXpQ7IVTM-38" target="znCDfpoOOdXMXpQ7IVTM-50">
          <mxGeometry width="100" height="100" relative="1" as="geometry">
            <mxPoint x="790" y="1010" as="sourcePoint" />
            <mxPoint x="890" y="910" as="targetPoint" />
          </mxGeometry>
        </mxCell>
        <mxCell id="znCDfpoOOdXMXpQ7IVTM-55" value="" style="edgeStyle=entityRelationEdgeStyle;fontSize=12;html=1;endArrow=ERone;endFill=1;rounded=0;exitX=1;exitY=0.136;exitDx=0;exitDy=0;exitPerimeter=0;entryX=0.011;entryY=0.129;entryDx=0;entryDy=0;entryPerimeter=0;" edge="1" parent="1" source="cfdrwB-0t9WhW7MWjaBJ-33" target="znCDfpoOOdXMXpQ7IVTM-50">
          <mxGeometry width="100" height="100" relative="1" as="geometry">
            <mxPoint x="1220" y="470" as="sourcePoint" />
            <mxPoint x="1190" y="380" as="targetPoint" />
          </mxGeometry>
        </mxCell>
        <mxCell id="znCDfpoOOdXMXpQ7IVTM-57" value="&lt;span style=&quot;font-size: 25px;&quot;&gt;Ассоциативная сущность&lt;/span&gt;" style="text;html=1;align=center;verticalAlign=middle;whiteSpace=wrap;rounded=0;" vertex="1" parent="1">
          <mxGeometry x="1860" y="330" width="350" height="30" as="geometry" />
        </mxCell>
        <mxCell id="znCDfpoOOdXMXpQ7IVTM-58" value="&lt;font style=&quot;font-size: 20px;&quot;&gt;Поддержка&lt;/font&gt;" style="swimlane;childLayout=stackLayout;horizontal=1;startSize=50;horizontalStack=0;rounded=1;fontSize=14;fontStyle=0;strokeWidth=2;resizeParent=0;resizeLast=1;shadow=0;dashed=0;align=center;arcSize=4;whiteSpace=wrap;html=1;fillColor=#CDA2BE;strokeColor=#9673a6;" vertex="1" parent="1">
          <mxGeometry x="10" y="430" width="370" height="120" as="geometry" />
        </mxCell>
        <mxCell id="znCDfpoOOdXMXpQ7IVTM-59" value="&lt;div style=&quot;font-size: 20px;&quot;&gt;&lt;font style=&quot;font-size: 20px; background-color: rgb(247, 126, 126);&quot;&gt;Код сотрудника&lt;/font&gt;&lt;/div&gt;&lt;div style=&quot;font-size: 20px;&quot;&gt;&lt;span style=&quot;background-color: rgb(248, 206, 204);&quot;&gt;Отдел поддержки&lt;/span&gt;&lt;/div&gt;" style="align=left;strokeColor=none;fillColor=none;spacingLeft=4;fontSize=12;verticalAlign=top;resizable=0;rotatable=0;part=1;html=1;" vertex="1" parent="znCDfpoOOdXMXpQ7IVTM-58">
          <mxGeometry y="50" width="370" height="70" as="geometry" />
        </mxCell>
        <mxCell id="znCDfpoOOdXMXpQ7IVTM-60" value="&lt;span style=&quot;font-size: 20px;&quot;&gt;Контакты&lt;/span&gt;" style="swimlane;childLayout=stackLayout;horizontal=1;startSize=50;horizontalStack=0;rounded=1;fontSize=14;fontStyle=0;strokeWidth=2;resizeParent=0;resizeLast=1;shadow=0;dashed=0;align=center;arcSize=4;whiteSpace=wrap;html=1;fillColor=#EFE6EB;strokeColor=#9673a6;gradientColor=none;" vertex="1" parent="1">
          <mxGeometry x="-420" y="925" width="360" height="160" as="geometry" />
        </mxCell>
        <mxCell id="znCDfpoOOdXMXpQ7IVTM-62" value="&lt;div&gt;&lt;span style=&quot;font-size: 20px; background-color: rgb(248, 206, 204);&quot;&gt;Отдел поддержки&lt;/span&gt;&lt;/div&gt;&lt;div&gt;&lt;span style=&quot;font-size: 20px;&quot;&gt;Номер телефона&lt;/span&gt;&lt;/div&gt;&lt;div&gt;&lt;span style=&quot;font-size: 20px;&quot;&gt;Электронная почта&lt;/span&gt;&lt;/div&gt;" style="align=left;strokeColor=none;fillColor=none;spacingLeft=4;fontSize=12;verticalAlign=top;resizable=0;rotatable=0;part=1;html=1;" vertex="1" parent="znCDfpoOOdXMXpQ7IVTM-60">
          <mxGeometry y="50" width="360" height="110" as="geometry" />
        </mxCell>
        <mxCell id="znCDfpoOOdXMXpQ7IVTM-66" value="" style="edgeStyle=entityRelationEdgeStyle;fontSize=12;html=1;endArrow=ERoneToMany;rounded=0;exitX=0.011;exitY=0.113;exitDx=0;exitDy=0;exitPerimeter=0;entryX=1.018;entryY=0.332;entryDx=0;entryDy=0;entryPerimeter=0;" edge="1" parent="1" source="cfdrwB-0t9WhW7MWjaBJ-25" target="znCDfpoOOdXMXpQ7IVTM-29">
          <mxGeometry width="100" height="100" relative="1" as="geometry">
            <mxPoint x="210" y="445" as="sourcePoint" />
            <mxPoint x="-90" y="550" as="targetPoint" />
          </mxGeometry>
        </mxCell>
        <mxCell id="znCDfpoOOdXMXpQ7IVTM-67" value="" style="shape=image;verticalLabelPosition=bottom;labelBackgroundColor=default;verticalAlign=top;aspect=fixed;imageAspect=0;image=data:image/png,iVBORw0KGgoAAAANSUhEUgAAAOQAAADdCAYAAACrIt7oAAAAAXNSR0IArs4c6QAAIABJREFUeF7tnXd8VVW6939r79OSk4QECE16Vbp06SnAHceZudeLioqCCuiMdRy9lrkzwx1fARVlVEAFpAjogGMDpEPoNUgzFAsgCFIM6Zy693o/e+fEiZEk++x+Div/QfZ61rN+a33zrL4I2A9TgClgGwWIbTxhjjAFmAJgQLJGwBSwkQIMSBtVBnOFKcCAZG2AKWAjBRiQNqoM5gpTgAHJ2gBTwEYKMCBtVBnMFaYAA5K1AaaAjRRgQNqoMpgrTAEGJGsDlihAKQi2DqoPj9ggTPmGhCYkEz6xKbgkL4jLJZIEBxAqJQhegnilhKdlF0HDl0D8+ei5KZ8QUEscNzhTBqTBAjPz5QrQnKEOeD03inzdG6mz6e/gSMwkvkMe4j8IEvy2/CPxKmpxkfSuNoCrDcTkIaBc0pegdA0RS/fxZce3k14LT8eLzgzIeKlJG5aDLr2NR4vL/UW+3q+pp+kzXNFnIP4IfBHQZLc5d+3ei4F/f1MBrsMNoe5DEN3ttvFCyUKu5OAq0uefZ2o3Zt8vGJD2rZuY9Ywe7OpFsMUoJLSYhEvTG8iRrwJAJfBFU3IJ1Ih9If1JiK5mH5DgtzMcnervJGTi1WJuNNZN/5YBabrk8ZuhBKLoqzsOzrRpXOEnRIZQbwBrki8CJ00ZDqHuyD0oy3va0SVtWyyByYCMXz5MK5nUNRWanRlJnI0Wc0Wf8qaDWLWklcGsf+dG0ff14+6Ok740TRANGTEgNYjHkgJ0R5frBU/XjXzB4saWg1gNmEKDx0HdrV9w/HhqMuk/zWfnemNA2rl2bO4b3XHDvQidWAApIpnZNY1Wl4h/oeZvfUtL997q7vLWoWhNmPU9A9IspeMoH7qmoRf1uq5H0bp+cCiYIbVL2cMBCA2fBOGSHuE7/n2GXdyq7AcD0o61YmOf6K62TSlp8jUp3eKJKRgrNA0HQJMGIJw+ZqGz1YQxdttgwIC0ceO3m2t0S6OOlPfmyQv5du6i1iac1IV1uhFqNmebU9wwjLSa768tiVm/Z0CapXSM50O3pnaD6Dtg+/GiUp0jGw1Crd/f5xTXDrQLlAxIpRV4DX9Ht3i7Qig7KEsQy5GxmlnYUJsFuc5zKwaT/h9aPgPLgLyGQVNSdLotsQkE4WzcRMarFVoMINR6ca7zbO5gq5dFGJBKWuU1/I24szsl/gPxFRmvFikBhFq9l+v8cdsQ0mvWFauqnAFplfIxkK+wb6SfK/6XO666qdXp/tOYctFe59l9Q6yKlAzIGADDCheFbde/yAWOPW/o0kbFCQ5pC7iAUggoAIVQPlaFBwQ8HEiP/LtcBqPHsGIA4ZZzdjuwbagVEz0MSCtau83zpDmpLSEWnjQExgoIwzKAn4BiFkqwk9weAbEabejnaA+KMeBxJzxoZSicMpRzdznC+4eSdm9WOvdlfMUxII3XOOZyEHf2DhD/Xpeu0UgCUZBP+R+BgFFkBFRv9qYrkQKKV+HCvXBAXz+l2or80Qi3nLXDgR1ZZkZKBmTM4WKsw8LW9pO54FfP6hody2E8igAyya9xXs8S0GV4HYl4CE63S0+7P0HZYuY2B9lj2uYBBqSutRjbxigFh00QdIuM5SAGIWI4GY7NRqlDc5CEYixDCjJ0871ypGzx7nYH2ZptRqRkQBrVSmLQrriz71ri3z1Ml0ZdDuMF+NCa/AamLCPQT/AqUvGkLv5Xrr9wAOHWc3Y6sC3TaCgZkDEIjhEu06XgkY6wLo1ZPiDM7SNZYi8jfK3JJv0EdyIV7+tSjsoZSZsHWr2320k3Gjr7yoA0u8XYND9he7d5XPDgWM0NWYKRJu4jmVdMh7FCWvopslEH6zSXpQqQ0j/DLd7e7SC7DIOSAWlTQMx2i252a7/nVAyAkuSL3NCShmb7XzU/uhxZSMJ6Q6BsOXe3A1sMgZIBaXXLsUH+dKN7BGhgteaZ1XDAj3wk1bamaFaRDYmUcpgMINRmYa6Tbhik95iSAWlW67BxPsKOQee4wNbGmqJJOACE0UXL+qIREtEVyIZX5+5rZAY23PLdHY4fVmfreUqEAWlEK4ghm7pM5sjjxtTPSWbhLXYsOl2O4UjCGk1/cK5WMGlHT4s52x3n84bptfeVAWnHFmSiT3Q9eoNgj6buavnOlmSSgVITXY8qK0O6rxU7elq8vd0h5GXpsc2OARlVtcbfx3RP/y0o2zFIdfSQo2PybJJZMsHu6hgJZbD1vLXuFveN0KoBA1KrgjGeXtzWSiChk5xqIKWxI4c0koHCWJCCLkMmkrAOvLvy6yLaXI/c0eNvPP39hDbj79ZijAGpRb04SEtzQFXDKC1zONt/xw38qmUsSUGXYyi82KA3lDRpOMTEXvc4Ok1apFYPBqRa5eIgHV2ORCSiTPX4UYqOcP+WZAWWx5ocdDlughfbwbv1Y0C697XJ38M8vdCWdJzxnRpN9HNGTe4sjaUK0PXoCII8TUBSNCLZuGBpQVRmTpejD5KwW3UP4Wr5SmuUrebsd7Ue10ONWwxINarFSRq6Fg/Cibc1NciygIfcDFMP8eopP12GfkjGTk0aVHZI6sa72oDWufURvvMrUd+OzoDUs3ZjzBZd75kN3j9OVWMUAxAThpzj+22+LsaK/Qt36TL0QDL2qdKhmigpNP4/H3/lbGPSa1ZRNPowIKNRK86+FTe3+oKIJ29U1RClSODJXMHdtPE38SAL/Rx9kYCduo0ppa5rs6nzXO2fuj8afRiQ0agVZ9+KW1qcIsJ3LdQCCeeNU8jA/c/Fiyx0BfojEVt1mX0VAxDqPw6eoy1IpzdOK9WIAalUqTj8Ttzc5BwRz6nbwyqtvfFNHyWDv58eT9LoCqUUJZv8dbHrhr+PVqoRA1KpUnH4Hd1U/xToj+oipLTk4Wz2JBl8Zlq8SSOvUyYhR1XPocoED677G0Au1yHt3ixWohMDUolKcfoN3ZR+FPTS9aoanjSpw3eezA/+8vl4lId+hjFIwXxV2lSBUqz/8ON8lxlvKNGJAalEpTj9hq4lK+Gkv1LV6CQgnb3f5wfu1bRVzM7S0k/xFurgIVX6VBRMntx59YyzXUlLQiZKV0LX+MOArE2hOP49XYEn4MU0VQ1OAtJ7y1d8nxUd4lgi0M+RhyR3R9VllGajk4aDOBt3Jt0X5NVmhwFZm0Jx/Hu6Ap3hxWG1QFJPd5B+B3hCUOtf/liVka5CS3hwUpVGlaJkOP3hl5xdZzxbmw4MyNoUiuPf0zXwwoVS1Y1NmthJaFqP9P/+chzLBLocK5Di/rXqMkp7XJtO/dbR4am2tdlgQNamUJz/nm4A1bSXlW84gQy9MDueZaLrUAc88sG7eVXlrFiTDBU3ID3mXarJBgNSlcLxk0gTkNL4yN33BNd/d5v4UeTqJaHLsQcp7t5ayhlOHpbt7LFiAwNSi4pxnpZuwHdwuJurLqa0QSChbTPS75vvVduIgYT0YwxEGrZq6d6LdW55nu+1YjIDMgYq3CoX6Qr8Fl58prqhSVEyYeinXL9N/2VVGczKl65DKVxur6r8pOcI0h9b6ez6Ro1jUdZlVaVu/CSiO5AAH66oHkdWSMG3vJ4MPH48fpT5ZUnoahxBgvsGVWWUbqhLf+qYs/PUGtMzIFWpG1+J6Dr44HJ7VJdK6rYm/+oAeq7qGddLIJ9iMurgWVW9CUmjJn8Oo/2LLkLkdzKv+sOAVN0K4ychXYF34cX9qhpahQzhAMSUW57he694OX6U+XlJ6MfohjQcUKWTtJEi9W5wLk890undapeJGJDx2nqiKJfmu3WkvCIn5QW+9Qhnv3Vro8g+Zj6lK5EOD86Bdzuidrpixw7vuY70WHaORcioFby2EtC1uAi3O11TqaUokPyfIkd8HUjPNd9osmXDxPJGCgd+hENF914+0N0dhKS3J/3Wfc2AtGEF28kl3a7bl3alpN59kQ/80IP033jWTmXUwxe6DmVwuROjthXpQRA07EIG7PiSARm1gtdeAtWNrapUEpR1x1zkAxd7kn6r4mp9UrVGFUDy9buRfrsPMSCvPb6iLjFdjoeRhOmqJi2uBmXaPRd4saAP6bVC8RUWUTttYgL6GZKRiEtwud1RZ1vRZRW815OB26tdHmKTOlErG98J6DpcgcudoEsppUiZNuYCj0t9SY+Vqi4O1sUPnYzQNWgFF06o+oMlAZk4AIRHC9Jre7V/oBiQOlVWrJrJmQhHcuOepGfaPlF6aDW0HFkOPV8eLu++XuKFs71Ir/UxHSnpSvwKCVipFkixzihwKGpAeqyqdoM5AzJWSdLo9/63GrUEUv9GnOm3gnCcy52Sm8AVvBROPZ/TxvHNCeJ2N9GYxb+Ty5Hy3ou8eLl3LHdf6TLMRjJU32Mr1H80zHd+k20M0K1hxYmhvVP5kaGg8CHhAS5yoEgUACoAdZv1eKdZnWPvJiZe2QWnji9EyZHy/nxeuNgjVqGka3AWHpV/qKQlobrjD/PdZnetqRmxCBknkCktxu4p6CaIOMBXM0wUAj6ktrptZ7vm+T5HcGOmqu5Zdc7IUI4t4AMXusba7CvNhRMFKFa9xVAu+x3zHDcuqfHiZAak0pYcJ9/lTuP8giC6Qaqft5GgrNf58UvtGh9NJ6VroT+UD1zmfRe6kv4rYmadkq7ESCTgQ9VayFsLb36S772yxmszGZBxApqSYixdCr7pNwhXFx0r2xCDPqR3GYvWaVtBwjovJcrR4r7LvHDpxljpvtKVOA6vu70Snav9xt05k/Tbl8O6rJpUjJ/Eue/AGbqMIOdStqohhn1o2HYgWjXcCwg66yBBWW9cIR883ZX0WXtGZ+u6mqNrcD1cOKo6OlZsLC87lUIGbi9hQOpaPbFrLJoIWVFKGcoW7dCq6WmDoJxQxPvPdLbzmJKuwgEkuruprnnpTp20B9c5ur8zvDYbrMtam0Ix/vutk5HmFOFyuCGESxEkSSh/Hq2GMWTVIosCRcOGQKs21CAoxxfz4qkbSI911Z6CsKoa6CoMhEfD1R2S49L4MfWOR/meS2p9B4UBaVVNG5zvnimuTiSp5c5Q8VfJMn8E8Db5bRHvSalTemZRVEBK6Q2HUtr7euWHLmTA2osGS6PYPF0JN3ich8edqjjRL/6aRU551LJlriIZA1K10vZNuH0SRhLgQ95VJRJSX7nTUUTHyqU0HMq0ey7yvgu2gZKuxna40V/12DESHYW6o7c5blw0SEmLYUAqUSmGvtk1ESmCE4UOT4IhdWs4lPXGl/Fl37W2OlLS1ZgCN57RBKPctQhA8GaNdvTZsFhJMzKk0pRkzL4xRoGdLzdcT3Ahi/DKZlLVeGE8lOPK+OC5tqTPyvNq/NOahq7Eo3DjDc0Xf0kw1rm7kD9/uRG5eVVAiV8MSCUqxdA3O6eglHPAq7ZbqrSoRkMppo70c+HijqTv2pNKfdLjO7oSL8KN5zXDGOmuigk9HuX7f1HrZA4bQ+pReza0seNFFPBupBoNpNwbM3L2VTqu5B1GiejrTfpt22e01JSCYD1ZBQcdobmbGumqypdacYeTSLdDZUr9ZxFSqVIx8t2Wv2GDOxmZZgBpBpRyHt7/XMC5TzwcTcOOprroBrQBh/I7gLjozx5fNS9p40Ny9v2OPuvnReMLAzIatWLg2+1/RgvixSkl2+P0Ko6hkTLS9aPeQT4iBm7HTXtW6nX3K92KNAQTPgF8Q3TpolYIKo8d7/qRP1/QVOnYkXVZ9WqNNrSz+Xn8y52K/zZyYqdqsQ2HUrpoWATEpKxCLlzwJErPLkXRBb90qDqaKpBPbeSjKfU0/oCEf+gLTseoWNkRR6v+ZMCxndH4Jn3LImS0isXI91v+ih2uJNwUV1BGxmby87AON8SErBNc8NybEM5+Dq/zLIIcRaFHRIM65Q/IluTzwCnpDlUHwp7uNKHlX4hwMlPaOWMYiNKunKQBb/J9tz+mpqkwINWoFiNpNv8Ve91J6BV3UFbqGv70drMU6ZxuUP4GgPMCYhmIcBQIlUfW8vGhQdGwclc1ZdQl3nOoKel0JKimmTAg1agWQ2m2voCDTje6xi2Uv+g7V1ru02uCRkl9y29ldhUJhxak3yHV59UYkErEjvFvtr2Aww43Ol8zUFpRX9IY193pP0j/vDVasmdAalEvhtJuewEHHddSpDSzbqQxqeO6sWTI2QVas2VAalUwRtLTieD2N+kphIr3qd5crqaohs++qnFKzzQSjM7rfk8Gn31bD7MMSD1UjAEbZ5am1G3aMJC//yCHUMhch2Uomzcz5pCzuUX5eW4SjHyLP5Gh372mlxsMSL2UtLGdi0uRlJ6OkopdKAxKjZUljRflWdt6Y8mQfM3d1MreMCA11o3dk8tvP6a4y6RjQJW3hVkCZdiH+m3/A22anAfxH9Bvm5qZlfCTjklZZEj+Rr2zZkDqraiN7MkwJrtKQYPkans0rYIy7YbH0K5ZPrjLi+UF/pj5CUsb3m8qJaGz3cig0yeM8JsBaYSqNrBJc5AEiiIQcDVtmLYCSune1/pdniy4Lu2b9xN9y8bDAZdum7qN0L5i256zzXRO+PaPJANhI7KRbDIgjVLWQrvyS79OGUZeSUO3Csq6bUcfaJ6U8xtX+Oxk3ovRtoyWUlRM7OEnoZN9yeCCat911Ku6GZB6KWkTO3I31YtipTBWuG0VlHWaZy/s+M36sf4eaOpJc55EMMTZAkxpBlV6BpI2fg4DT71ECKgZVcyANENlk/KgO5CAoKMENKwoMlZ1ywoopRvSvXWat+n6h/IxmX8VOrhdyAWQZPje06oCRLqmEogimrzCnTv5XLSnSbRWNQNSq4I2SV8Oo7MUNFTjmLFGd8UA9h9OMHWdUgKSd3nv6fOnskWVfZOuYKQuVw4hwZtkMKUfI/amVixhiABNGhIkZfv/CxnFq8yKiFXrgwFpE6C0uCHDGMAVvRqtmZFSAhKOei/d9HT+s9VpQNfhBvAp70Ms7gYiT1OpB7QSgJIR6r2J0tDpF/lBZ/+ipQ70SsuA1EtJi+zIY8YklN/ZomMEMQtKCUjiuu6Ffn86+1clEsqXFwOZ1J32BHEWDUVQlF64lNqxhOrV2zMFBQcKpxPU1T9M/KdnQTg3nWQGjivJ08xvGJBmqq1zXvJsqgulesNY4aYZUEpLIOBT+vZ/pniPXvJIupARkT9Sehk1yQ4D0iSh9c5GXmcEyl9S0jEyVvXTSCil6OipP/h7QSxr3evBfSbvsNW7RvSxx4DUR0dTrRgdGfWGUnpBS346veIJA+qDEAScda4v40Xavsejx233yI6pFVopMwakVcqrzNeoMWNt7siRUpqAifZdEOqDI7nz3GDB2U5iuKC7FM+dSQ2Dguh81+n9/qleD4JFRgZkbc3Pnr+3CkZpY3phofuJb880eiLs/65lNDcPSNExpc2YMxdLvmufcd8mvz2VtY9XLELapy5q9ITmwAOg/PkqA8eMv3AiHECYS5/izLj0nHTIeVeC5yAhfuXXgVAfnCk9EUxsUKff6FXFMSK3ZW4yIC2TXnnG8jqjH2Xla3Amno6oBGOFt9IrzM1Peg6C+DspipTSE3gkAaGwN2XgMz/W+Jy3ckXi90sGpM3rNgJjSbR7UzUXS7pfFKkT+azC/6tqS34a/aTnAKckUlIf3HWH+AtOk+SMiZsMOyWhubw2McCAtElFXM2NyKmNQhA4zI6MIN7nSWbZ5OrkyZkIh9uTeJDjrnSsKVJK64yeet1e7fHgwadsLLVtXGNA2qYqfu5I5NSGdITKfBi5pP8lGaUv1iaNBGVCQtKXFKUdOMcv36OUJnQ8dfsHUXqu4Y1/PFVYmz32e3Ye0pZtIBIZC0DgND0ywvscySqbolQYqfva7GTqZioUDiA8QAhAKUAFwJPW/QIfEnt1e0z9xcFK/YiX71iEtFlNRiKj1E01H0aS8D8k0/eKGkm2v4IGtAy3gne0J5zjChX9C891wDe3R/kYjpq84ykNA9JGtWkpjEh4mmT5ptpIjmvSFQakTard2gkc95MkMzDNJlJc024wIG1Q/dHegaOby9I1FdT5BMkOva6bTWZIkwIMSE3yaU8cWWcsre12OO05VbEgwQjnoyQrNF1328ygagUYkKql054wsh1OOulv+g4cUO4Rki3O0F4KZkFPBWwJ5M5XkoYiXJoTLMG6wS9ihFX3m+gpdFVb8sl3aUOc9GPydjhQ7iGSLb5jZPmYbXUK2A7I3dMSboLg2yEVh4qAvwDrh0zC8HiCki6FC+kofyDCdBidj5DsEIuM6ngxPJWtgNw7LXmAECrZRqRLjCLn7qjgQ6AAawa7cTOZ+NPj1IYLY1QGlsIocn8gw8S3jCobs6tdAdsAuWtq8kAaKtnKOSudLI+UT4LSX4CcIW5kxzKUkW6qdITK/DEjm8DRTosJFmwB5N5p9bLDwfx1P7vmoUrhZSgLkTPEFZtQ0vWoBw4XLZlNpdyDJFucZUJ7YlloVMByIHe9UXc4/JfXVO6mVlemSKRcP8SNEbEUKS2GkU3gaITEzOSWArn39fSbhcClz5XAWCFKrI0p6RakI4wfrDjPyGZTzURJn7wsA3L3PxqMEAMXV9fUTa0pUvouY/XQybjZzrOvDEZ9Gum1ZMUSIGUYfRdXX20CR6n4kUi5YfAkDLMjlHQNGsCJs5acZwT3B5LFZlOVtiU7fWc6kBKMNHhxdTTd1NoiZcYU/MpOokbGjOctgvH3JEt82056MF+UK2AqkLteTehHg76dWiJj1aJFJnrWDZ2M4cqLbdyXFkdGBqNxVWuKZVOB3PFawnUuV/r34SunoejGMoUSRJZE1g2dZC2UDEaFFcY+q1YBU4GUvNj7VocBRPBtMwLKYAE2DZ6MDCvqOzKBc86SbipbZ7Siyg3J03Qgy6Hs2IcIpbuNgNJfgI1DJyPLELWqMUpzUB8U0phR1cvFqn2VzzOyjeKq9bNhQkuAlHTYM6Ndd44G9hsBZaAQG4ZMQrYZetOVSIfHsnVGtgPHjEo2MQ/LgCyPlO37EMFvSKQMFGHDkBeNhTLSTZUio/pnxNVUNouMalSLiTSWAikplPtOx74Ile4S/Kejf1mpBonldcpibB7y/zDUiJqgW5GGEH60CEYWGY2oVBvYtBzIylAa0n01AMrIOuMlK97aADCeZGGODdoOc8EABWwBpFSufTM7DhKFks3h0jOyT9Jlu9KPdPEuOPz8wc8ohNA7UspLGy5ckF0w/XAxRpFsLImi+OzTGFNANyBzp7cfd+XCV5OEIB7LeAn/VKND7rQWjf3F391MKXLcwBW/E8QBT0dP/a5PUQSHBfIP8Lzrl+cla8vrp1MiGm8eoDloBOAHi2AcTbKxuLayst/HtgK6ALlvZtvRwaJvFko7cKSnqn2XcWvWVHyitzR7p7cf5XDXX+C7tMPFu3/5lkRN+UX2vm4c7MYwNUe36Fo0kfemWhIZ2bUberclu9rTDGTuzOvHhIqOza+8HU7w+6ivAL/Lmorlehf84CtdvUJqnRn+S1vHqIKyEFsudEdmNFfcWwzjwyQ7NFNvHZk9eyqgCci9Mzo8EC4+Pudqe1PDfp8YKMJtmS/jYyOKvn/2wL/5Lm2bqAbKYBE2ne+GbCVQ0jVoBhdOWxIZifMBkhmaa4R+zKY9FVANZO7MTmNCJXnzazrPGPb5woES3J35EpYaUfz9czMX+85vvEsVlAVYP3gyhtXYzd2AFuBwyhIY4ZxAskKzjdCN2bSvAqqA3Duj7QPh0m/mKDlcLEEZLME9aid6apJu/7TuqUhJyQ8WbOEqbqlTKrU0pgzWAKWlkRHO8SQrxJY2lFZmHH0XNZD7ZnYcHSw6Ik/gKIVAgjJUjAlDX8Y8vbXbO6PTyFBR3ofRRknJDxnKYmweXGXzAF2JpkjAGUsiI3WOI9mhd/XWidmLDQWiAjJ35g3jQkVHZ0cDY4UMYZ8vFCjBaL27r1tnNk9LEPl8wX+SKP0D8bOqoT4E8rF78GT0k/6/5FN0TKqDPFPXGKWM5bc2+PtIljA/NpoO89IIBRQDmTuz/bhQyVezlXRTq3PUd8l3jAf6D5qCAj0Ls3/eiM3+i2sGX+1ZbUX5UB8EHw7VbeT4Y4e24Q3WREZ+LMkWFijyl30UtwooAnLfjOvHB4uPzVITGSsr5y/0nR3yAprqrWbumx1vC5UeWcq5olubrPBDFCiSUxPQqV2BubtvKiKjyI8hw4T39NaF2Ys9BWoFMvfN1neFSk8s1gqjJI0UIYdOwQ16y7RjSkJ/iL7tasaRP8HY8Qog6O1ZLfakbiqD0WTR7Z1drUDue6f/i4H8Hc+raexVi156wbc/62X00FuSHS95syCUrY/WR8thJPwYkskio97tIZbt1QqkVLi8JXcuLPr2g9HRNviqwvh+9H07dDLa6i3Yzlfq3I5w0ZJouqyWw8gio97NIC7sKQJSKunhj8bMLTm+4D4tUIZKfYUoQ/OBL6NET/V2v95htug/Pk7ppI7lMFL+HpItLNJTA2YrPhRQDKQcKT+6/72i43PvUQtl5Ha4zKGTkKOXfHkzOib5eVdBuPSAQ8myh/Uwgp3a0Kvy49BOVEBGIuWikuML7lYFJfWh7BxWZ76m38XGe/7RqHf4yvk9SvxhMMZhC46zIkUNpBwpP3lgcdHRd+9SczYxfMXnD5SiV+ZLyNOq5cFXGnqD7pQDgv/rtrXd82o9jKybqrW+r4X0qoCUhDny6YQPCo/MGqUGytKzvn11SnFTr1kIaRF516v1RouB/IW1RUfLYQR/L8kSFmopK0t7bSigGsifQRnlYWFQH0q/x7Ksf+B3amXe+XLCAAi+bbXNrFoOI5tNVVvF12Q6TUCWQzn+g8Ijs0fVFqV+oS71wXceHw6ZijsIELlBR1kd7HzJezfEskW1bVawHEbKtsMpq1H2VYUCmoEsh/L3HxQeeUsdlD/iBOXw3xmTcKC2atnzsrdRmLrnQLj869r+ADAYa1PLtP3GAAAF6klEQVST/d6OCugCpNYxpRiWT1x8QYHJSMSmSx1RUHGaP3cq6gcD/HDiTLtHDP6YxbvgtP8EDm4j2fiXHSuc+WRvBXQDUirml58+8EHxkXejj5QRjaR1Sir8+wrIn8I4AWrrnlZ8a3lkFDGSDMNH9q525p1dFdAVSDlSfvbQksK8t2+vrUtphCCWw8j2phpRrdeUTd2BlKH8ZPySwqOzTYXSchjZ0sY1BY5RhTUESMnZvE/GLS46OkfV5oFoC2s5jIS/g2QKhlzkFa0W7PvYVsAwIGUoP75/UdGxuXer2TygVFbLYWRjRqVVxb5ToIChQFIKkvfRvYuKv3ov6qsaFfgOBqMSldg3saSAoUBKQkhQHlvxyJKCw9Nv03Oix3IY2QROLLXzmPHVcCBlKCeCO9pt/KLCo7Pv1KP7ajmMlK0zxkwLjzFHTQHy31BOWFB4dNZoLVBaDiPBSJLJ1hljrJ3HjLumAVkBZV6n0XOLv140Rg2U1sPIZlNjpmXHqKOmAlkxpjzy8f0Li47PjeqQs+UwiriDDDPmjZIYbTvMbQMUMB3ICiiPfjp+sTymVHB0y3IY2ZjRgKbHTF5NAUuArHAk76Oxi4qOz69xndJyGIHbSRY+ZM2HKWCGApYCKRUw76Ox84q/mj/2apvHLYeR8qNItrDEjIpgeTAFJAUsB1Jy4shHY98rPD7/Z7fZ2QDGO0m28E/WTJgCZipgCyClAh/9eOz8gmPz5WfKGYxmNgGWl50UsA2QcqRccvtbhd8ufSilfho6WfXWBsffSTJYZLRTI72WfLEVkJLw59bdt7WxY95Ai95nvItkCR9cSw2AldVeCtgKyLINjXskOi7vM10i6RUqyrMxo+nCswyrKmAbIOkaV2c4gofhcJtbSwxGc/VmudWogC2ApOvQBRwOWQIj4e8mmcL7rJ0wBeyggOVA0vXoCh4HLRkzsleo7NAGmQ+VFLAUSEthhPNekhVi1/szHGylgGVA0hx0h4j91nRTnWNIZug9W9UEc4YpYNVOHbre2RsktMcSGFlkZA3fxgqYHiFpjrMXxNBea2B03UWygmyd0cYN8lp3zVQg6QZnH3Ch3dZM4LjuJNlBtjf1Wm/xNi+/aUDSDY7+QHg7i4w2bxHMPUsVMAVIutEzBNS/yRIYOed9JCM031KVWeZMAYUKGA4k3ZT2GwgFyyyBEWzMqLAdsM9sooDhQIZ298nkudQNpHQtTBs7StvhONedJIONGW3SzpgbChUwHEjJD+HLZ/9IfF+8ZgqU8t5U1yiSHWQn/RU2AvaZfRQwBUipuMEjf/6Do2zvDEOhlGBkD9/Yp3UxT6JWwDQg5UiZ9/yj5EruG4ZAybqpUVc+S2A/BUwFUobyyP8+Tsr2/ENXKBmM9mtZzCNVCpgOZDmUf32clO3SB8pyGEeTjOBiVQqwREwBGylgCZDl3de/PEau7H5dU6SUx4yeMSTTzzaK26hRMVfUK2AZkPJET96fH3Fc2fumKijlyOi5j2T42aK/+vpnKW2mgKVASlqEjzw7jiv7YnZUULLIaLNmxNzRSwHLgZS7r4f/5yHiP/CWIijlyOi9j2SUscioVytgdmyjgC2AlCPl4ace4PyH5tQIpQQjnzyBDC2ZbRsFmSNMAR0VsA2QcqT88ukJxHfwnatCyWDUsdqZKbsqYCsg5Uj55VPjOd+hWT+DUu6m1nuEZOTPsKuQzC+mgB4K2A7I8u7r46M5/9GFMpQiAC79EZJxicGoR40zG7ZWwJZARiZ6HiNlW18jwQtPk8EnptlaReYcU0AnBWwLpFQ+mntLc9JrxWmdysrMMAVsr4CtgbS9esxBpoDOCjAgdRaUmWMKaFGAAalFPZaWKaCzAgxInQVl5pgCWhRgQGpRj6VlCuisAANSZ0GZOaaAFgUYkFrUY2mZAjorwIDUWVBmjimgRQEGpBb1WFqmgM4KMCB1FpSZYwpoUYABqUU9lpYpoLMCDEidBWXmmAJaFGBAalGPpWUK6KwAA1JnQZk5poAWBf4/m9O5sDjn0ogAAAAASUVORK5CYII=;rotation=-180;" vertex="1" parent="1">
          <mxGeometry x="-444.00000000000006" y="690" width="30.96" height="30.01" as="geometry" />
        </mxCell>
        <mxCell id="znCDfpoOOdXMXpQ7IVTM-68" value="" style="shape=image;verticalLabelPosition=bottom;labelBackgroundColor=default;verticalAlign=top;aspect=fixed;imageAspect=0;image=data:image/png,iVBORw0KGgoAAAANSUhEUgAAAOQAAADdCAYAAACrIt7oAAAAAXNSR0IArs4c6QAAIABJREFUeF7tnXd8VVW6939r79OSk4QECE16Vbp06SnAHceZudeLioqCCuiMdRy9lrkzwx1fARVlVEAFpAjogGMDpEPoNUgzFAsgCFIM6Zy693o/e+fEiZEk++x+Div/QfZ61rN+a33zrL4I2A9TgClgGwWIbTxhjjAFmAJgQLJGwBSwkQIMSBtVBnOFKcCAZG2AKWAjBRiQNqoM5gpTgAHJ2gBTwEYKMCBtVBnMFaYAA5K1AaaAjRRgQNqoMpgrTAEGJGsDlihAKQi2DqoPj9ggTPmGhCYkEz6xKbgkL4jLJZIEBxAqJQhegnilhKdlF0HDl0D8+ei5KZ8QUEscNzhTBqTBAjPz5QrQnKEOeD03inzdG6mz6e/gSMwkvkMe4j8IEvy2/CPxKmpxkfSuNoCrDcTkIaBc0pegdA0RS/fxZce3k14LT8eLzgzIeKlJG5aDLr2NR4vL/UW+3q+pp+kzXNFnIP4IfBHQZLc5d+3ei4F/f1MBrsMNoe5DEN3ttvFCyUKu5OAq0uefZ2o3Zt8vGJD2rZuY9Ywe7OpFsMUoJLSYhEvTG8iRrwJAJfBFU3IJ1Ih9If1JiK5mH5DgtzMcnervJGTi1WJuNNZN/5YBabrk8ZuhBKLoqzsOzrRpXOEnRIZQbwBrki8CJ00ZDqHuyD0oy3va0SVtWyyByYCMXz5MK5nUNRWanRlJnI0Wc0Wf8qaDWLWklcGsf+dG0ff14+6Ok740TRANGTEgNYjHkgJ0R5frBU/XjXzB4saWg1gNmEKDx0HdrV9w/HhqMuk/zWfnemNA2rl2bO4b3XHDvQidWAApIpnZNY1Wl4h/oeZvfUtL997q7vLWoWhNmPU9A9IspeMoH7qmoRf1uq5H0bp+cCiYIbVL2cMBCA2fBOGSHuE7/n2GXdyq7AcD0o61YmOf6K62TSlp8jUp3eKJKRgrNA0HQJMGIJw+ZqGz1YQxdttgwIC0ceO3m2t0S6OOlPfmyQv5du6i1iac1IV1uhFqNmebU9wwjLSa768tiVm/Z0CapXSM50O3pnaD6Dtg+/GiUp0jGw1Crd/f5xTXDrQLlAxIpRV4DX9Ht3i7Qig7KEsQy5GxmlnYUJsFuc5zKwaT/h9aPgPLgLyGQVNSdLotsQkE4WzcRMarFVoMINR6ca7zbO5gq5dFGJBKWuU1/I24szsl/gPxFRmvFikBhFq9l+v8cdsQ0mvWFauqnAFplfIxkK+wb6SfK/6XO666qdXp/tOYctFe59l9Q6yKlAzIGADDCheFbde/yAWOPW/o0kbFCQ5pC7iAUggoAIVQPlaFBwQ8HEiP/LtcBqPHsGIA4ZZzdjuwbagVEz0MSCtau83zpDmpLSEWnjQExgoIwzKAn4BiFkqwk9weAbEabejnaA+KMeBxJzxoZSicMpRzdznC+4eSdm9WOvdlfMUxII3XOOZyEHf2DhD/Xpeu0UgCUZBP+R+BgFFkBFRv9qYrkQKKV+HCvXBAXz+l2or80Qi3nLXDgR1ZZkZKBmTM4WKsw8LW9pO54FfP6hody2E8igAyya9xXs8S0GV4HYl4CE63S0+7P0HZYuY2B9lj2uYBBqSutRjbxigFh00QdIuM5SAGIWI4GY7NRqlDc5CEYixDCjJ0871ypGzx7nYH2ZptRqRkQBrVSmLQrriz71ri3z1Ml0ZdDuMF+NCa/AamLCPQT/AqUvGkLv5Xrr9wAOHWc3Y6sC3TaCgZkDEIjhEu06XgkY6wLo1ZPiDM7SNZYi8jfK3JJv0EdyIV7+tSjsoZSZsHWr2320k3Gjr7yoA0u8XYND9he7d5XPDgWM0NWYKRJu4jmVdMh7FCWvopslEH6zSXpQqQ0j/DLd7e7SC7DIOSAWlTQMx2i252a7/nVAyAkuSL3NCShmb7XzU/uhxZSMJ6Q6BsOXe3A1sMgZIBaXXLsUH+dKN7BGhgteaZ1XDAj3wk1bamaFaRDYmUcpgMINRmYa6Tbhik95iSAWlW67BxPsKOQee4wNbGmqJJOACE0UXL+qIREtEVyIZX5+5rZAY23PLdHY4fVmfreUqEAWlEK4ghm7pM5sjjxtTPSWbhLXYsOl2O4UjCGk1/cK5WMGlHT4s52x3n84bptfeVAWnHFmSiT3Q9eoNgj6buavnOlmSSgVITXY8qK0O6rxU7elq8vd0h5GXpsc2OARlVtcbfx3RP/y0o2zFIdfSQo2PybJJZMsHu6hgJZbD1vLXuFveN0KoBA1KrgjGeXtzWSiChk5xqIKWxI4c0koHCWJCCLkMmkrAOvLvy6yLaXI/c0eNvPP39hDbj79ZijAGpRb04SEtzQFXDKC1zONt/xw38qmUsSUGXYyi82KA3lDRpOMTEXvc4Ok1apFYPBqRa5eIgHV2ORCSiTPX4UYqOcP+WZAWWx5ocdDlughfbwbv1Y0C697XJ38M8vdCWdJzxnRpN9HNGTe4sjaUK0PXoCII8TUBSNCLZuGBpQVRmTpejD5KwW3UP4Wr5SmuUrebsd7Ue10ONWwxINarFSRq6Fg/Cibc1NciygIfcDFMP8eopP12GfkjGTk0aVHZI6sa72oDWufURvvMrUd+OzoDUs3ZjzBZd75kN3j9OVWMUAxAThpzj+22+LsaK/Qt36TL0QDL2qdKhmigpNP4/H3/lbGPSa1ZRNPowIKNRK86+FTe3+oKIJ29U1RClSODJXMHdtPE38SAL/Rx9kYCduo0ppa5rs6nzXO2fuj8afRiQ0agVZ9+KW1qcIsJ3LdQCCeeNU8jA/c/Fiyx0BfojEVt1mX0VAxDqPw6eoy1IpzdOK9WIAalUqTj8Ttzc5BwRz6nbwyqtvfFNHyWDv58eT9LoCqUUJZv8dbHrhr+PVqoRA1KpUnH4Hd1U/xToj+oipLTk4Wz2JBl8Zlq8SSOvUyYhR1XPocoED677G0Au1yHt3ixWohMDUolKcfoN3ZR+FPTS9aoanjSpw3eezA/+8vl4lId+hjFIwXxV2lSBUqz/8ON8lxlvKNGJAalEpTj9hq4lK+Gkv1LV6CQgnb3f5wfu1bRVzM7S0k/xFurgIVX6VBRMntx59YyzXUlLQiZKV0LX+MOArE2hOP49XYEn4MU0VQ1OAtJ7y1d8nxUd4lgi0M+RhyR3R9VllGajk4aDOBt3Jt0X5NVmhwFZm0Jx/Hu6Ap3hxWG1QFJPd5B+B3hCUOtf/liVka5CS3hwUpVGlaJkOP3hl5xdZzxbmw4MyNoUiuPf0zXwwoVS1Y1NmthJaFqP9P/+chzLBLocK5Di/rXqMkp7XJtO/dbR4am2tdlgQNamUJz/nm4A1bSXlW84gQy9MDueZaLrUAc88sG7eVXlrFiTDBU3ID3mXarJBgNSlcLxk0gTkNL4yN33BNd/d5v4UeTqJaHLsQcp7t5ayhlOHpbt7LFiAwNSi4pxnpZuwHdwuJurLqa0QSChbTPS75vvVduIgYT0YwxEGrZq6d6LdW55nu+1YjIDMgYq3CoX6Qr8Fl58prqhSVEyYeinXL9N/2VVGczKl65DKVxur6r8pOcI0h9b6ez6Ro1jUdZlVaVu/CSiO5AAH66oHkdWSMG3vJ4MPH48fpT5ZUnoahxBgvsGVWWUbqhLf+qYs/PUGtMzIFWpG1+J6Dr44HJ7VJdK6rYm/+oAeq7qGddLIJ9iMurgWVW9CUmjJn8Oo/2LLkLkdzKv+sOAVN0K4ychXYF34cX9qhpahQzhAMSUW57he694OX6U+XlJ6MfohjQcUKWTtJEi9W5wLk890undapeJGJDx2nqiKJfmu3WkvCIn5QW+9Qhnv3Vro8g+Zj6lK5EOD86Bdzuidrpixw7vuY70WHaORcioFby2EtC1uAi3O11TqaUokPyfIkd8HUjPNd9osmXDxPJGCgd+hENF914+0N0dhKS3J/3Wfc2AtGEF28kl3a7bl3alpN59kQ/80IP033jWTmXUwxe6DmVwuROjthXpQRA07EIG7PiSARm1gtdeAtWNrapUEpR1x1zkAxd7kn6r4mp9UrVGFUDy9buRfrsPMSCvPb6iLjFdjoeRhOmqJi2uBmXaPRd4saAP6bVC8RUWUTttYgL6GZKRiEtwud1RZ1vRZRW815OB26tdHmKTOlErG98J6DpcgcudoEsppUiZNuYCj0t9SY+Vqi4O1sUPnYzQNWgFF06o+oMlAZk4AIRHC9Jre7V/oBiQOlVWrJrJmQhHcuOepGfaPlF6aDW0HFkOPV8eLu++XuKFs71Ir/UxHSnpSvwKCVipFkixzihwKGpAeqyqdoM5AzJWSdLo9/63GrUEUv9GnOm3gnCcy52Sm8AVvBROPZ/TxvHNCeJ2N9GYxb+Ty5Hy3ou8eLl3LHdf6TLMRjJU32Mr1H80zHd+k20M0K1hxYmhvVP5kaGg8CHhAS5yoEgUACoAdZv1eKdZnWPvJiZe2QWnji9EyZHy/nxeuNgjVqGka3AWHpV/qKQlobrjD/PdZnetqRmxCBknkCktxu4p6CaIOMBXM0wUAj6ktrptZ7vm+T5HcGOmqu5Zdc7IUI4t4AMXusba7CvNhRMFKFa9xVAu+x3zHDcuqfHiZAak0pYcJ9/lTuP8giC6Qaqft5GgrNf58UvtGh9NJ6VroT+UD1zmfRe6kv4rYmadkq7ESCTgQ9VayFsLb36S772yxmszGZBxApqSYixdCr7pNwhXFx0r2xCDPqR3GYvWaVtBwjovJcrR4r7LvHDpxljpvtKVOA6vu70Snav9xt05k/Tbl8O6rJpUjJ/Eue/AGbqMIOdStqohhn1o2HYgWjXcCwg66yBBWW9cIR883ZX0WXtGZ+u6mqNrcD1cOKo6OlZsLC87lUIGbi9hQOpaPbFrLJoIWVFKGcoW7dCq6WmDoJxQxPvPdLbzmJKuwgEkuruprnnpTp20B9c5ur8zvDYbrMtam0Ix/vutk5HmFOFyuCGESxEkSSh/Hq2GMWTVIosCRcOGQKs21CAoxxfz4qkbSI911Z6CsKoa6CoMhEfD1R2S49L4MfWOR/meS2p9B4UBaVVNG5zvnimuTiSp5c5Q8VfJMn8E8Db5bRHvSalTemZRVEBK6Q2HUtr7euWHLmTA2osGS6PYPF0JN3ich8edqjjRL/6aRU551LJlriIZA1K10vZNuH0SRhLgQ95VJRJSX7nTUUTHyqU0HMq0ey7yvgu2gZKuxna40V/12DESHYW6o7c5blw0SEmLYUAqUSmGvtk1ESmCE4UOT4IhdWs4lPXGl/Fl37W2OlLS1ZgCN57RBKPctQhA8GaNdvTZsFhJMzKk0pRkzL4xRoGdLzdcT3Ahi/DKZlLVeGE8lOPK+OC5tqTPyvNq/NOahq7Eo3DjDc0Xf0kw1rm7kD9/uRG5eVVAiV8MSCUqxdA3O6eglHPAq7ZbqrSoRkMppo70c+HijqTv2pNKfdLjO7oSL8KN5zXDGOmuigk9HuX7f1HrZA4bQ+pReza0seNFFPBupBoNpNwbM3L2VTqu5B1GiejrTfpt22e01JSCYD1ZBQcdobmbGumqypdacYeTSLdDZUr9ZxFSqVIx8t2Wv2GDOxmZZgBpBpRyHt7/XMC5TzwcTcOOprroBrQBh/I7gLjozx5fNS9p40Ny9v2OPuvnReMLAzIatWLg2+1/RgvixSkl2+P0Ko6hkTLS9aPeQT4iBm7HTXtW6nX3K92KNAQTPgF8Q3TpolYIKo8d7/qRP1/QVOnYkXVZ9WqNNrSz+Xn8y52K/zZyYqdqsQ2HUrpoWATEpKxCLlzwJErPLkXRBb90qDqaKpBPbeSjKfU0/oCEf+gLTseoWNkRR6v+ZMCxndH4Jn3LImS0isXI91v+ih2uJNwUV1BGxmby87AON8SErBNc8NybEM5+Dq/zLIIcRaFHRIM65Q/IluTzwCnpDlUHwp7uNKHlX4hwMlPaOWMYiNKunKQBb/J9tz+mpqkwINWoFiNpNv8Ve91J6BV3UFbqGv70drMU6ZxuUP4GgPMCYhmIcBQIlUfW8vGhQdGwclc1ZdQl3nOoKel0JKimmTAg1agWQ2m2voCDTje6xi2Uv+g7V1ru02uCRkl9y29ldhUJhxak3yHV59UYkErEjvFvtr2Aww43Ol8zUFpRX9IY193pP0j/vDVasmdAalEvhtJuewEHHddSpDSzbqQxqeO6sWTI2QVas2VAalUwRtLTieD2N+kphIr3qd5crqaohs++qnFKzzQSjM7rfk8Gn31bD7MMSD1UjAEbZ5am1G3aMJC//yCHUMhch2Uomzcz5pCzuUX5eW4SjHyLP5Gh372mlxsMSL2UtLGdi0uRlJ6OkopdKAxKjZUljRflWdt6Y8mQfM3d1MreMCA11o3dk8tvP6a4y6RjQJW3hVkCZdiH+m3/A22anAfxH9Bvm5qZlfCTjklZZEj+Rr2zZkDqraiN7MkwJrtKQYPkans0rYIy7YbH0K5ZPrjLi+UF/pj5CUsb3m8qJaGz3cig0yeM8JsBaYSqNrBJc5AEiiIQcDVtmLYCSune1/pdniy4Lu2b9xN9y8bDAZdum7qN0L5i256zzXRO+PaPJANhI7KRbDIgjVLWQrvyS79OGUZeSUO3Csq6bUcfaJ6U8xtX+Oxk3ovRtoyWUlRM7OEnoZN9yeCCat911Ku6GZB6KWkTO3I31YtipTBWuG0VlHWaZy/s+M36sf4eaOpJc55EMMTZAkxpBlV6BpI2fg4DT71ECKgZVcyANENlk/KgO5CAoKMENKwoMlZ1ywoopRvSvXWat+n6h/IxmX8VOrhdyAWQZPje06oCRLqmEogimrzCnTv5XLSnSbRWNQNSq4I2SV8Oo7MUNFTjmLFGd8UA9h9OMHWdUgKSd3nv6fOnskWVfZOuYKQuVw4hwZtkMKUfI/amVixhiABNGhIkZfv/CxnFq8yKiFXrgwFpE6C0uCHDGMAVvRqtmZFSAhKOei/d9HT+s9VpQNfhBvAp70Ms7gYiT1OpB7QSgJIR6r2J0tDpF/lBZ/+ipQ70SsuA1EtJi+zIY8YklN/ZomMEMQtKCUjiuu6Ffn86+1clEsqXFwOZ1J32BHEWDUVQlF64lNqxhOrV2zMFBQcKpxPU1T9M/KdnQTg3nWQGjivJ08xvGJBmqq1zXvJsqgulesNY4aYZUEpLIOBT+vZ/pniPXvJIupARkT9Sehk1yQ4D0iSh9c5GXmcEyl9S0jEyVvXTSCil6OipP/h7QSxr3evBfSbvsNW7RvSxx4DUR0dTrRgdGfWGUnpBS346veIJA+qDEAScda4v40Xavsejx233yI6pFVopMwakVcqrzNeoMWNt7siRUpqAifZdEOqDI7nz3GDB2U5iuKC7FM+dSQ2Dguh81+n9/qleD4JFRgZkbc3Pnr+3CkZpY3phofuJb880eiLs/65lNDcPSNExpc2YMxdLvmufcd8mvz2VtY9XLELapy5q9ITmwAOg/PkqA8eMv3AiHECYS5/izLj0nHTIeVeC5yAhfuXXgVAfnCk9EUxsUKff6FXFMSK3ZW4yIC2TXnnG8jqjH2Xla3Amno6oBGOFt9IrzM1Peg6C+DspipTSE3gkAaGwN2XgMz/W+Jy3ckXi90sGpM3rNgJjSbR7UzUXS7pfFKkT+azC/6tqS34a/aTnAKckUlIf3HWH+AtOk+SMiZsMOyWhubw2McCAtElFXM2NyKmNQhA4zI6MIN7nSWbZ5OrkyZkIh9uTeJDjrnSsKVJK64yeet1e7fHgwadsLLVtXGNA2qYqfu5I5NSGdITKfBi5pP8lGaUv1iaNBGVCQtKXFKUdOMcv36OUJnQ8dfsHUXqu4Y1/PFVYmz32e3Ye0pZtIBIZC0DgND0ywvscySqbolQYqfva7GTqZioUDiA8QAhAKUAFwJPW/QIfEnt1e0z9xcFK/YiX71iEtFlNRiKj1E01H0aS8D8k0/eKGkm2v4IGtAy3gne0J5zjChX9C891wDe3R/kYjpq84ykNA9JGtWkpjEh4mmT5ptpIjmvSFQakTard2gkc95MkMzDNJlJc024wIG1Q/dHegaOby9I1FdT5BMkOva6bTWZIkwIMSE3yaU8cWWcsre12OO05VbEgwQjnoyQrNF1328ygagUYkKql054wsh1OOulv+g4cUO4Rki3O0F4KZkFPBWwJ5M5XkoYiXJoTLMG6wS9ihFX3m+gpdFVb8sl3aUOc9GPydjhQ7iGSLb5jZPmYbXUK2A7I3dMSboLg2yEVh4qAvwDrh0zC8HiCki6FC+kofyDCdBidj5DsEIuM6ngxPJWtgNw7LXmAECrZRqRLjCLn7qjgQ6AAawa7cTOZ+NPj1IYLY1QGlsIocn8gw8S3jCobs6tdAdsAuWtq8kAaKtnKOSudLI+UT4LSX4CcIW5kxzKUkW6qdITK/DEjm8DRTosJFmwB5N5p9bLDwfx1P7vmoUrhZSgLkTPEFZtQ0vWoBw4XLZlNpdyDJFucZUJ7YlloVMByIHe9UXc4/JfXVO6mVlemSKRcP8SNEbEUKS2GkU3gaITEzOSWArn39fSbhcClz5XAWCFKrI0p6RakI4wfrDjPyGZTzURJn7wsA3L3PxqMEAMXV9fUTa0pUvouY/XQybjZzrOvDEZ9Gum1ZMUSIGUYfRdXX20CR6n4kUi5YfAkDLMjlHQNGsCJs5acZwT3B5LFZlOVtiU7fWc6kBKMNHhxdTTd1NoiZcYU/MpOokbGjOctgvH3JEt82056MF+UK2AqkLteTehHg76dWiJj1aJFJnrWDZ2M4cqLbdyXFkdGBqNxVWuKZVOB3PFawnUuV/r34SunoejGMoUSRJZE1g2dZC2UDEaFFcY+q1YBU4GUvNj7VocBRPBtMwLKYAE2DZ6MDCvqOzKBc86SbipbZ7Siyg3J03Qgy6Hs2IcIpbuNgNJfgI1DJyPLELWqMUpzUB8U0phR1cvFqn2VzzOyjeKq9bNhQkuAlHTYM6Ndd44G9hsBZaAQG4ZMQrYZetOVSIfHsnVGtgPHjEo2MQ/LgCyPlO37EMFvSKQMFGHDkBeNhTLSTZUio/pnxNVUNouMalSLiTSWAikplPtOx74Ile4S/Kejf1mpBonldcpibB7y/zDUiJqgW5GGEH60CEYWGY2oVBvYtBzIylAa0n01AMrIOuMlK97aADCeZGGODdoOc8EABWwBpFSufTM7DhKFks3h0jOyT9Jlu9KPdPEuOPz8wc8ohNA7UspLGy5ckF0w/XAxRpFsLImi+OzTGFNANyBzp7cfd+XCV5OEIB7LeAn/VKND7rQWjf3F391MKXLcwBW/E8QBT0dP/a5PUQSHBfIP8Lzrl+cla8vrp1MiGm8eoDloBOAHi2AcTbKxuLayst/HtgK6ALlvZtvRwaJvFko7cKSnqn2XcWvWVHyitzR7p7cf5XDXX+C7tMPFu3/5lkRN+UX2vm4c7MYwNUe36Fo0kfemWhIZ2bUberclu9rTDGTuzOvHhIqOza+8HU7w+6ivAL/Lmorlehf84CtdvUJqnRn+S1vHqIKyEFsudEdmNFfcWwzjwyQ7NFNvHZk9eyqgCci9Mzo8EC4+Pudqe1PDfp8YKMJtmS/jYyOKvn/2wL/5Lm2bqAbKYBE2ne+GbCVQ0jVoBhdOWxIZifMBkhmaa4R+zKY9FVANZO7MTmNCJXnzazrPGPb5woES3J35EpYaUfz9czMX+85vvEsVlAVYP3gyhtXYzd2AFuBwyhIY4ZxAskKzjdCN2bSvAqqA3Duj7QPh0m/mKDlcLEEZLME9aid6apJu/7TuqUhJyQ8WbOEqbqlTKrU0pgzWAKWlkRHO8SQrxJY2lFZmHH0XNZD7ZnYcHSw6Ik/gKIVAgjJUjAlDX8Y8vbXbO6PTyFBR3ofRRknJDxnKYmweXGXzAF2JpkjAGUsiI3WOI9mhd/XWidmLDQWiAjJ35g3jQkVHZ0cDY4UMYZ8vFCjBaL27r1tnNk9LEPl8wX+SKP0D8bOqoT4E8rF78GT0k/6/5FN0TKqDPFPXGKWM5bc2+PtIljA/NpoO89IIBRQDmTuz/bhQyVezlXRTq3PUd8l3jAf6D5qCAj0Ls3/eiM3+i2sGX+1ZbUX5UB8EHw7VbeT4Y4e24Q3WREZ+LMkWFijyl30UtwooAnLfjOvHB4uPzVITGSsr5y/0nR3yAprqrWbumx1vC5UeWcq5olubrPBDFCiSUxPQqV2BubtvKiKjyI8hw4T39NaF2Ys9BWoFMvfN1neFSk8s1gqjJI0UIYdOwQ16y7RjSkJ/iL7tasaRP8HY8Qog6O1ZLfakbiqD0WTR7Z1drUDue6f/i4H8Hc+raexVi156wbc/62X00FuSHS95syCUrY/WR8thJPwYkskio97tIZbt1QqkVLi8JXcuLPr2g9HRNviqwvh+9H07dDLa6i3Yzlfq3I5w0ZJouqyWw8gio97NIC7sKQJSKunhj8bMLTm+4D4tUIZKfYUoQ/OBL6NET/V2v95htug/Pk7ppI7lMFL+HpItLNJTA2YrPhRQDKQcKT+6/72i43PvUQtl5Ha4zKGTkKOXfHkzOib5eVdBuPSAQ8myh/Uwgp3a0Kvy49BOVEBGIuWikuML7lYFJfWh7BxWZ76m38XGe/7RqHf4yvk9SvxhMMZhC46zIkUNpBwpP3lgcdHRd+9SczYxfMXnD5SiV+ZLyNOq5cFXGnqD7pQDgv/rtrXd82o9jKybqrW+r4X0qoCUhDny6YQPCo/MGqUGytKzvn11SnFTr1kIaRF516v1RouB/IW1RUfLYQR/L8kSFmopK0t7bSigGsifQRnlYWFQH0q/x7Ksf+B3amXe+XLCAAi+bbXNrFoOI5tNVVvF12Q6TUCWQzn+g8Ijs0fVFqV+oS71wXceHw6ZijsIELlBR1kd7HzJezfEskW1bVawHEbKtsMpq1H2VYUCmoEsh/L3HxQeeUsdlD/iBOXw3xmTcKC2atnzsrdRmLrnQLj869r+ADAYa1PLtP3GAAAF6klEQVST/d6OCugCpNYxpRiWT1x8QYHJSMSmSx1RUHGaP3cq6gcD/HDiTLtHDP6YxbvgtP8EDm4j2fiXHSuc+WRvBXQDUirml58+8EHxkXejj5QRjaR1Sir8+wrIn8I4AWrrnlZ8a3lkFDGSDMNH9q525p1dFdAVSDlSfvbQksK8t2+vrUtphCCWw8j2phpRrdeUTd2BlKH8ZPySwqOzTYXSchjZ0sY1BY5RhTUESMnZvE/GLS46OkfV5oFoC2s5jIS/g2QKhlzkFa0W7PvYVsAwIGUoP75/UdGxuXer2TygVFbLYWRjRqVVxb5ToIChQFIKkvfRvYuKv3ov6qsaFfgOBqMSldg3saSAoUBKQkhQHlvxyJKCw9Nv03Oix3IY2QROLLXzmPHVcCBlKCeCO9pt/KLCo7Pv1KP7ajmMlK0zxkwLjzFHTQHy31BOWFB4dNZoLVBaDiPBSJLJ1hljrJ3HjLumAVkBZV6n0XOLv140Rg2U1sPIZlNjpmXHqKOmAlkxpjzy8f0Li47PjeqQs+UwiriDDDPmjZIYbTvMbQMUMB3ICiiPfjp+sTymVHB0y3IY2ZjRgKbHTF5NAUuArHAk76Oxi4qOz69xndJyGIHbSRY+ZM2HKWCGApYCKRUw76Ox84q/mj/2apvHLYeR8qNItrDEjIpgeTAFJAUsB1Jy4shHY98rPD7/Z7fZ2QDGO0m28E/WTJgCZipgCyClAh/9eOz8gmPz5WfKGYxmNgGWl50UsA2QcqRccvtbhd8ufSilfho6WfXWBsffSTJYZLRTI72WfLEVkJLw59bdt7WxY95Ai95nvItkCR9cSw2AldVeCtgKyLINjXskOi7vM10i6RUqyrMxo+nCswyrKmAbIOkaV2c4gofhcJtbSwxGc/VmudWogC2ApOvQBRwOWQIj4e8mmcL7rJ0wBeyggOVA0vXoCh4HLRkzsleo7NAGmQ+VFLAUSEthhPNekhVi1/szHGylgGVA0hx0h4j91nRTnWNIZug9W9UEc4YpYNVOHbre2RsktMcSGFlkZA3fxgqYHiFpjrMXxNBea2B03UWygmyd0cYN8lp3zVQg6QZnH3Ch3dZM4LjuJNlBtjf1Wm/xNi+/aUDSDY7+QHg7i4w2bxHMPUsVMAVIutEzBNS/yRIYOed9JCM031KVWeZMAYUKGA4k3ZT2GwgFyyyBEWzMqLAdsM9sooDhQIZ298nkudQNpHQtTBs7StvhONedJIONGW3SzpgbChUwHEjJD+HLZ/9IfF+8ZgqU8t5U1yiSHWQn/RU2AvaZfRQwBUipuMEjf/6Do2zvDEOhlGBkD9/Yp3UxT6JWwDQg5UiZ9/yj5EruG4ZAybqpUVc+S2A/BUwFUobyyP8+Tsr2/ENXKBmM9mtZzCNVCpgOZDmUf32clO3SB8pyGEeTjOBiVQqwREwBGylgCZDl3de/PEau7H5dU6SUx4yeMSTTzzaK26hRMVfUK2AZkPJET96fH3Fc2fumKijlyOi5j2T42aK/+vpnKW2mgKVASlqEjzw7jiv7YnZUULLIaLNmxNzRSwHLgZS7r4f/5yHiP/CWIijlyOi9j2SUscioVytgdmyjgC2AlCPl4ace4PyH5tQIpQQjnzyBDC2ZbRsFmSNMAR0VsA2QcqT88ukJxHfwnatCyWDUsdqZKbsqYCsg5Uj55VPjOd+hWT+DUu6m1nuEZOTPsKuQzC+mgB4K2A7I8u7r46M5/9GFMpQiAC79EZJxicGoR40zG7ZWwJZARiZ6HiNlW18jwQtPk8EnptlaReYcU0AnBWwLpFQ+mntLc9JrxWmdysrMMAVsr4CtgbS9esxBpoDOCjAgdRaUmWMKaFGAAalFPZaWKaCzAgxInQVl5pgCWhRgQGpRj6VlCuisAANSZ0GZOaaAFgUYkFrUY2mZAjorwIDUWVBmjimgRQEGpBb1WFqmgM4KMCB1FpSZYwpoUYABqUU9lpYpoLMCDEidBWXmmAJaFGBAalGPpWUK6KwAA1JnQZk5poAWBf4/m9O5sDjn0ogAAAAASUVORK5CYII=;rotation=-180;" vertex="1" parent="1">
          <mxGeometry x="-20.960000000000036" y="479.99" width="30.96" height="30.01" as="geometry" />
        </mxCell>
        <mxCell id="znCDfpoOOdXMXpQ7IVTM-70" value="&lt;span style=&quot;font-size: 20px;&quot;&gt;Статус сотрудника&lt;/span&gt;" style="swimlane;childLayout=stackLayout;horizontal=1;startSize=50;horizontalStack=0;rounded=1;fontSize=14;fontStyle=0;strokeWidth=2;resizeParent=0;resizeLast=1;shadow=0;dashed=0;align=center;arcSize=4;whiteSpace=wrap;html=1;fillColor=#EFE6EB;strokeColor=#9673a6;gradientColor=none;" vertex="1" parent="1">
          <mxGeometry x="120" y="690" width="360" height="280" as="geometry" />
        </mxCell>
        <mxCell id="znCDfpoOOdXMXpQ7IVTM-71" value="&lt;div&gt;&lt;span style=&quot;font-size: 20px; background-color: rgb(247, 126, 126);&quot;&gt;Код сотрудника&lt;/span&gt;&lt;/div&gt;&lt;div&gt;&lt;span style=&quot;font-size: 20px;&quot;&gt;Статус сотрудника&lt;/span&gt;&lt;/div&gt;&lt;div&gt;&lt;span style=&quot;font-size: 20px;&quot;&gt;Дата начала работы&lt;/span&gt;&lt;/div&gt;&lt;div&gt;&lt;span style=&quot;font-size: 20px;&quot;&gt;Опыт с предыдущего места работы&lt;/span&gt;&lt;/div&gt;&lt;div&gt;&lt;span style=&quot;font-size: 20px;&quot;&gt;Дата увольнения&lt;/span&gt;&lt;/div&gt;&lt;div&gt;&lt;div style=&quot;font-size: 20px;&quot;&gt;Фамилия&lt;/div&gt;&lt;div style=&quot;font-size: 20px;&quot;&gt;Имя&lt;/div&gt;&lt;div style=&quot;font-size: 20px;&quot;&gt;Отчество&lt;/div&gt;&lt;div style=&quot;font-size: 20px;&quot;&gt;Должность&lt;/div&gt;&lt;/div&gt;" style="align=left;strokeColor=none;fillColor=none;spacingLeft=4;fontSize=12;verticalAlign=top;resizable=0;rotatable=0;part=1;html=1;" vertex="1" parent="znCDfpoOOdXMXpQ7IVTM-70">
          <mxGeometry y="50" width="360" height="230" as="geometry" />
        </mxCell>
        <mxCell id="znCDfpoOOdXMXpQ7IVTM-72" value="" style="edgeStyle=entityRelationEdgeStyle;fontSize=12;html=1;endArrow=ERoneToMany;rounded=0;exitX=-0.006;exitY=0.119;exitDx=0;exitDy=0;exitPerimeter=0;entryX=1;entryY=0.25;entryDx=0;entryDy=0;" edge="1" parent="1" source="znCDfpoOOdXMXpQ7IVTM-59" target="znCDfpoOOdXMXpQ7IVTM-29">
          <mxGeometry width="100" height="100" relative="1" as="geometry">
            <mxPoint x="-30" y="800" as="sourcePoint" />
            <mxPoint x="70" y="700" as="targetPoint" />
          </mxGeometry>
        </mxCell>
        <mxCell id="znCDfpoOOdXMXpQ7IVTM-73" value="" style="edgeStyle=entityRelationEdgeStyle;fontSize=12;html=1;endArrow=ERone;endFill=1;rounded=0;exitX=0;exitY=0.5;exitDx=0;exitDy=0;entryX=0.993;entryY=0.113;entryDx=0;entryDy=0;entryPerimeter=0;" edge="1" parent="1" source="znCDfpoOOdXMXpQ7IVTM-59" target="znCDfpoOOdXMXpQ7IVTM-62">
          <mxGeometry width="100" height="100" relative="1" as="geometry">
            <mxPoint x="20" y="730" as="sourcePoint" />
            <mxPoint x="120" y="630" as="targetPoint" />
          </mxGeometry>
        </mxCell>
        <mxCell id="znCDfpoOOdXMXpQ7IVTM-75" value="" style="edgeStyle=entityRelationEdgeStyle;fontSize=12;html=1;endArrow=ERone;endFill=1;rounded=0;exitX=0;exitY=0.25;exitDx=0;exitDy=0;entryX=0.004;entryY=0.073;entryDx=0;entryDy=0;entryPerimeter=0;" edge="1" parent="1" source="znCDfpoOOdXMXpQ7IVTM-59" target="znCDfpoOOdXMXpQ7IVTM-71">
          <mxGeometry width="100" height="100" relative="1" as="geometry">
            <mxPoint y="680" as="sourcePoint" />
            <mxPoint x="100" y="580" as="targetPoint" />
          </mxGeometry>
        </mxCell>
        <mxCell id="znCDfpoOOdXMXpQ7IVTM-76" value="&lt;font style=&quot;font-size: 25px;&quot;&gt;Справочник&lt;/font&gt;" style="text;html=1;align=center;verticalAlign=middle;whiteSpace=wrap;rounded=0;" vertex="1" parent="1">
          <mxGeometry x="-270" y="895" width="60" height="30" as="geometry" />
        </mxCell>
        <mxCell id="znCDfpoOOdXMXpQ7IVTM-77" value="&lt;font style=&quot;font-size: 25px;&quot;&gt;Справочник&lt;/font&gt;" style="text;html=1;align=center;verticalAlign=middle;whiteSpace=wrap;rounded=0;" vertex="1" parent="1">
          <mxGeometry x="260" y="650" width="60" height="30" as="geometry" />
        </mxCell>
        <mxCell id="znCDfpoOOdXMXpQ7IVTM-78" value="&lt;span style=&quot;font-size: 25px;&quot;&gt;Ассоциативная сущность&lt;/span&gt;" style="text;html=1;align=center;verticalAlign=middle;whiteSpace=wrap;rounded=0;" vertex="1" parent="1">
          <mxGeometry x="-430.96" y="610" width="350" height="30" as="geometry" />
        </mxCell>
        <mxCell id="znCDfpoOOdXMXpQ7IVTM-80" value="&lt;font style=&quot;font-size: 25px;&quot;&gt;Стержневая сущность&lt;/font&gt;" style="text;html=1;align=center;verticalAlign=middle;whiteSpace=wrap;rounded=0;" vertex="1" parent="1">
          <mxGeometry x="3.999999999999986" y="400" width="410" height="30" as="geometry" />
        </mxCell>
      </root>
    </mxGraphModel>
  </diagram>
</mxfile>
